<?xml version="1.0" encoding="UTF-8"?>
<svg id="Layer_1" xmlns="http://www.w3.org/2000/svg" version="1.1" viewBox="0 0 257.22 237.66">
  <!-- Generator: Adobe Illustrator 30.0.0, SVG Export Plug-In . SVG Version: 2.1.1 Build 123)  -->
  <defs>
    <style>
      .st0 {
        fill: #5c5e61;
      }

      .st1 {
        fill: #010101;
      }

      .st2 {
        fill: #fec726;
      }

      .st3 {
        fill: #92d8ed;
      }

      .st4 {
        fill: #e1c875;
      }

      .st5 {
        fill: #79c143;
      }

      .st6 {
        fill: #fccdb1;
      }

      .st7 {
        fill: #f386a4;
      }

      .st8 {
        fill: #ee365f;
      }

      .st9 {
        fill: #5ccbee;
      }

      .st10 {
        fill: #172841;
      }
    </style>
  </defs>
  <path class="st4" d="M180.26,183.99c-.22-4-3.02-7.39-6.91-8.37l-19.24-4.03c-1.33-.34-2.63-.81-3.86-1.42l-5.52-2.72c-2.12-1.05-3.46-3.2-3.46-5.57v-5.07c-3.28,1.79-7.04,2.81-11.03,2.81h0c-3.71,0-7.23-.89-10.35-2.46v4.73c0,2.36-1.34,4.52-3.46,5.57l-5.52,2.72c-1.23.61-2.53,1.08-3.86,1.42l-19.24,4.03c-3.89.98-6.68,4.37-6.91,8.37l-1.76,48.48c-.08,1.46,1.08,2.69,2.54,2.69h97.81c1.46,0,2.62-1.23,2.54-2.69l-1.76-48.48Z"/>
  <path class="st4" d="M240.01,188.36c-.2-3.66-2.76-6.76-6.32-7.65l-17.6-3.69c-1.22-.31-2.4-.74-3.53-1.3l-5.05-2.49c-1.94-.96-3.17-2.93-3.17-5.09v-4.64c-3,1.64-6.44,2.57-10.08,2.57-3.4,0-6.61-.81-9.47-2.25v4.32c0,2.16-1.23,4.14-3.17,5.09l-5.05,2.49c-.45.22-.91.41-1.38.59,2.89,1.45,4.86,4.35,5.05,7.67l1.76,48.48c.08,1.46-1.08,2.69-2.54,2.69h59.82c1.34,0,2.4-1.12,2.32-2.46l-1.61-44.34Z"/>
  <path class="st4" d="M85.95,176.32c-.47-.18-.93-.37-1.38-.59l-5.05-2.49c-1.94-.96-3.17-2.93-3.17-5.09v-4.64c-3,1.64-6.44,2.57-10.08,2.57-3.4,0-6.61-.81-9.47-2.25v4.32c0,2.16-1.23,4.14-3.17,5.09l-5.05,2.49c-1.13.56-2.31.99-3.53,1.3l-17.6,3.69c-3.55.89-6.11,4-6.32,7.65l-1.61,44.34c-.07,1.33.99,2.46,2.32,2.46h59.82c-1.46,0-2.62-1.23-2.54-2.69l1.76-48.48c.19-3.33,2.16-6.23,5.05-7.67Z"/>
  <path class="st6" d="M241.03,216.24h-19.22v18.92h17.5c1.34,0,2.4-1.12,2.32-2.46l-.6-16.46Z"/>
  <path class="st9" d="M240.38,198.43h-7.19c-2.45,0-4.43,1.98-4.43,4.43s1.98,4.43,4.43,4.43h7.51l-.32-8.86Z"/>
  <path class="st7" d="M216.64,202.4c-.15-.54-.63-.93-1.19-.93h-10.59c-.56,0-1.04.38-1.19.93-.27,1-.41,2.05-.41,3.13,0,4.6,2.56,8.6,6.33,10.66.35.19.78.19,1.13,0,3.77-2.07,6.33-6.06,6.33-10.66,0-1.08-.15-2.13-.41-3.13Z"/>
  <path class="st6" d="M212.57,175.73l-5.05-2.49c-1.94-.96-3.17-2.93-3.17-5.09v-4.64c-3,1.64-6.44,2.57-10.08,2.57h0c-3.4,0-6.61-.81-9.47-2.25v4.32c0,2.16-1.23,4.14-3.17,5.09l-5.05,2.49c-.45.22-.9.41-1.37.6,2.89,1.45,4.85,4.35,5.03,7.67l.03.72c3.21,3.98,7.29,7.31,12.07,9.72.69.35,1.46.52,2.22.52s1.52-.17,2.22-.52c7.85-3.95,13.82-10.39,17.15-18.1-.47-.18-.93-.38-1.38-.6Z"/>
  <path class="st10" d="M204.86,201.47h5.26v-18.39c-3.38,4.7-7.9,8.62-13.32,11.35-.69.35-1.46.52-2.22.52s-1.52-.17-2.22-.52c-4.78-2.4-8.86-5.74-12.07-9.71l1.74,47.76c.08,1.46-1.08,2.69-2.54,2.69h30.64v-18.83c-.18,0-.37-.05-.53-.14-3.77-2.07-6.33-6.06-6.33-10.66,0-1.08.15-2.13.41-3.13.15-.54.63-.93,1.19-.93Z"/>
  <path class="st6" d="M150.25,170.17l-5.52-2.72c-2.12-1.05-3.46-3.2-3.46-5.57v-5.07c-3.28,1.79-7.04,2.81-11.03,2.81h0c-3.71,0-7.23-.89-10.35-2.46v4.73c0,2.36-1.34,4.52-3.46,5.57l-5.52,2.72c-.49.24-1,.46-1.51.66,3.64,8.43,10.17,15.47,18.75,19.79.76.38,1.59.57,2.43.57s1.67-.19,2.43-.57c8.59-4.32,15.11-11.37,18.75-19.79-.51-.2-1.02-.42-1.51-.66Z"/>
  <path class="st6" d="M181.37,214.48h-21.02v20.68h19.13c1.46,0,2.62-1.23,2.54-2.69l-.65-18Z"/>
  <path class="st9" d="M180.66,195h-7.86c-2.68,0-4.84,2.17-4.84,4.84s2.17,4.84,4.84,4.84h8.22l-.35-9.69Z"/>
  <path class="st6" d="M79.79,214.48l-.65,18c-.08,1.46,1.08,2.69,2.54,2.69h19.13v-20.68h-21.02Z"/>
  <path class="st2" d="M81.94,189.27c-.42,0-.83.04-1.23.1l-.6,16.5c.59.13,1.2.21,1.83.21,4.64,0,8.4-3.76,8.4-8.4s-3.76-8.4-8.4-8.4Z"/>
  <path class="st10" d="M141.82,198.33h5.75v-20.11c-3.69,5.14-8.64,9.43-14.57,12.41-.76.38-1.59.57-2.43.57s-1.67-.19-2.43-.57c-5.94-2.99-10.89-7.28-14.59-12.43v56.97h34.01v-20.59c-.2,0-.4-.05-.58-.15-4.12-2.26-6.92-6.63-6.92-11.66,0-1.18.16-2.33.45-3.42.16-.59.69-1.01,1.3-1.01Z"/>
  <path class="st7" d="M154.7,199.34c-.16-.59-.69-1.01-1.3-1.01h-11.57c-.61,0-1.14.42-1.3,1.01-.29,1.09-.45,2.24-.45,3.42,0,5.03,2.8,9.4,6.92,11.66.38.21.86.21,1.24,0,4.12-2.26,6.92-6.63,6.92-11.66,0-1.18-.16-2.33-.45-3.42Z"/>
  <path class="st6" d="M84.57,175.73l-5.05-2.49c-1.94-.96-3.17-2.93-3.17-5.09v-4.64c-3,1.64-6.44,2.57-10.08,2.57h0c-3.4,0-6.61-.81-9.47-2.25v4.32c0,2.16-1.23,4.14-3.17,5.09l-5.05,2.49c-.45.22-.91.42-1.38.6,3.33,7.71,9.3,14.15,17.15,18.1.69.35,1.46.52,2.22.52s1.52-.17,2.22-.52c4.78-2.4,8.86-5.74,12.07-9.72l.03-.72c.19-3.32,2.15-6.22,5.04-7.67-.46-.18-.92-.38-1.37-.6Z"/>
  <path class="st6" d="M20.13,216.24l-.6,16.46c-.07,1.33.99,2.46,2.32,2.46h17.5v-18.92h-19.22Z"/>
  <path class="st2" d="M22.09,193.19c-.38,0-.76.04-1.13.09l-.55,15.09c.54.12,1.1.19,1.68.19,4.24,0,7.68-3.44,7.68-7.68s-3.44-7.68-7.68-7.68Z"/>
  <path class="st10" d="M79.14,232.47l1.74-47.76c-3.21,3.98-7.29,7.31-12.07,9.71-.69.35-1.46.52-2.22.52s-1.52-.17-2.22-.52c-5.43-2.73-9.96-6.66-13.34-11.37v52.1h30.65c-1.46,0-2.62-1.23-2.54-2.69Z"/>
  <path class="st6" d="M154.93,118.74c-.53,0-1.04.04-1.55.13.04.52.06,1.04.06,1.57v15.99c0,.52-.02,1.04-.06,1.56.51.08,1.02.13,1.55.13,5.35,0,9.69-4.34,9.69-9.69s-4.34-9.69-9.69-9.69Z"/>
  <path class="st6" d="M107.04,120.43c0-.53.02-1.05.06-1.57-.5-.08-1.02-.13-1.55-.13-5.35,0-9.69,4.34-9.69,9.69s4.34,9.69,9.69,9.69c.53,0,1.04-.05,1.55-.13-.03-.51-.06-1.03-.06-1.56v-15.99Z"/>
  <path class="st6" d="M153.44,115.39c-.01-.66-.54-1.2-1.2-1.22-9.64-.28-14.72-4.1-16.67-6.02-.53-.52-1.39-.47-1.86.12-8.47,10.66-20.97,9.15-25.18,8.27-.76-.16-1.5.42-1.5,1.2v18.68c0,12.76,10.44,23.2,23.2,23.2h0c12.76,0,23.2-10.44,23.2-23.2v-20.67c0-.12,0-.24,0-.36Z"/>
  <path class="st0" d="M148.4,90.78c-2.47,0-4.78.7-6.77,1.89-2.32-3.87-6.55-6.49-11.36-6.49h-6.8c-13.17,0-23.95,10.78-23.95,23.95v10.73c1.66-1.33,3.76-2.12,6.04-2.12.51,0,1,.04,1.49.12v-1.11c0-.78.73-1.36,1.5-1.2,4.2.88,16.7,2.38,25.18-8.27.46-.58,1.32-.64,1.86-.12,1.95,1.91,7.03,5.73,16.67,6.01.66.02,1.18.56,1.2,1.22,0,.12,0,.24,0,.36v3.1c.49-.08.98-.12,1.49-.12,2.61,0,4.98,1.04,6.72,2.72v-17.42c0-7.29-5.96-13.25-13.25-13.25Z"/>
  <path class="st6" d="M216.85,128.69c-.48,0-.95.04-1.42.11.03.47.05.95.05,1.43v14.62c0,.48-.02.95-.05,1.42.46.07.93.12,1.41.12,4.89,0,8.86-3.97,8.86-8.86s-3.97-8.86-8.86-8.86Z"/>
  <path class="st6" d="M173.06,130.23c0-.48.02-.96.05-1.43-.46-.07-.93-.11-1.42-.11-4.89,0-8.86,3.97-8.86,8.86s3.97,8.86,8.86,8.86c.48,0,.95-.05,1.41-.12-.03-.47-.05-.94-.05-1.42v-14.62Z"/>
  <path class="st6" d="M215.48,125.63c-.01-.6-.49-1.1-1.1-1.12-8.81-.26-13.46-3.75-15.24-5.5-.49-.48-1.27-.43-1.7.11-7.75,9.74-19.18,8.37-23.02,7.57-.7-.15-1.37.38-1.37,1.09h0v17.08c0,11.67,9.55,21.22,21.22,21.22h0c11.67,0,21.22-9.55,21.22-21.22v-18.9c0-.11,0-.22,0-.33Z"/>
  <path class="st0" d="M210.87,103.12c-2.26,0-4.37.64-6.19,1.73-2.12-3.54-5.99-5.93-10.39-5.93h-6.22c-12.04,0-21.9,9.85-21.9,21.9v9.81c1.52-1.21,3.43-1.94,5.53-1.94.46,0,.92.04,1.36.11v-1.01h0c0-.73.67-1.25,1.37-1.11,3.84.8,15.28,2.18,23.02-7.57.42-.53,1.21-.58,1.7-.11,1.78,1.75,6.43,5.24,15.24,5.5.6.02,1.08.51,1.1,1.12,0,.11,0,.22,0,.33v2.84c.44-.07.9-.11,1.36-.11,2.39,0,4.55.95,6.14,2.49v-15.93c0-6.67-5.45-12.12-12.12-12.12Z"/>
  <path class="st6" d="M88.85,128.69c-.48,0-.95.04-1.42.11.03.47.05.95.05,1.43v14.62c0,.48-.02.95-.05,1.42.46.07.93.12,1.41.12,4.89,0,8.86-3.97,8.86-8.86s-3.97-8.86-8.86-8.86Z"/>
  <path class="st6" d="M45.06,130.23c0-.48.02-.96.05-1.43-.46-.07-.93-.11-1.42-.11-4.89,0-8.86,3.97-8.86,8.86s3.97,8.86,8.86,8.86c.48,0,.95-.05,1.41-.12-.03-.47-.05-.94-.05-1.42v-14.62Z"/>
  <path class="st6" d="M87.48,125.63c-.01-.6-.49-1.1-1.1-1.12-8.81-.26-13.46-3.75-15.24-5.5-.49-.48-1.27-.43-1.7.11-7.75,9.74-19.18,8.37-23.02,7.57-.7-.15-1.37.38-1.37,1.09h0v17.08c0,11.67,9.55,21.22,21.22,21.22h0c11.67,0,21.22-9.55,21.22-21.22v-18.9c0-.11,0-.22,0-.33Z"/>
  <path class="st0" d="M82.87,103.12c-2.26,0-4.37.64-6.19,1.73-2.12-3.54-5.99-5.93-10.39-5.93h-6.22c-12.04,0-21.9,9.85-21.9,21.9v9.81c1.52-1.21,3.43-1.94,5.53-1.94.46,0,.92.04,1.36.11v-1.01h0c0-.73.67-1.25,1.37-1.11,3.84.8,15.28,2.18,23.02-7.57.42-.53,1.21-.58,1.7-.11,1.78,1.75,6.43,5.24,15.24,5.5.6.02,1.08.51,1.1,1.12,0,.11,0,.22,0,.33v2.84c.44-.07.9-.11,1.36-.11,2.39,0,4.55.95,6.14,2.49v-15.93c0-6.67-5.45-12.12-12.12-12.12Z"/>
  <path class="st5" d="M45.11,146.28h0c-.46.07-.93.12-1.41.12-.91,0-1.79-.14-2.61-.39v31.85l3.98-.83c1.22-.31,2.4-.74,3.53-1.3l5.05-2.49c.48-.24.92-.54,1.31-.89.58-.53,1.04-1.17,1.36-1.89.32-.71.49-1.5.49-2.31v-4.32h0c-6.55-3.3-11.18-9.88-11.7-17.54Z"/>
  <path class="st5" d="M216.85,146.4c-.48,0-.95-.05-1.42-.12h0c-.5,7.43-4.87,13.83-11.09,17.21,0,0,.01.01.01.01v4.64c0,2.16,1.23,4.14,3.17,5.09l5.05,2.49c1.13.56,2.31.99,3.53,1.3l3.98.83v-32.07c-1,.39-2.09.62-3.23.62Z"/>
  <path class="st5" d="M216.55,2.5H44.61c-1.95,0-3.53,1.58-3.53,3.53v103.92c3.79-6.58,10.89-11.03,18.99-11.03h6.22c4.41,0,8.27,2.39,10.39,5.93,1.82-1.09,3.93-1.73,6.19-1.73,6.67,0,12.12,5.45,12.12,12.12v15.93h0c1.67,1.61,2.71,3.87,2.71,6.37,0,4.89-3.97,8.86-8.86,8.86-.48,0-.95-.05-1.41-.12-.5,7.43-4.87,13.82-11.09,17.21v.02s0,4.64,0,4.64c0,2.16,1.23,4.14,3.17,5.09l5.05,2.49c.45.22.91.41,1.38.59.59-.29,1.21-.53,1.86-.7l19.24-4.03c1.33-.34,2.63-.81,3.86-1.42l5.52-2.72c.53-.26,1.01-.59,1.44-.98,1.27-1.16,2.03-2.82,2.03-4.59v-4.73c-7.16-3.6-12.23-10.8-12.79-19.18-.51.08-1.02.14-1.55.14-5.35,0-9.69-4.34-9.69-9.69,0-3.06,1.42-5.79,3.64-7.56v-10.73c0-13.17,10.78-23.95,23.95-23.95h6.8c4.82,0,9.04,2.61,11.36,6.49,1.99-1.19,4.3-1.89,6.77-1.89,7.29,0,13.25,5.96,13.25,13.25v17.42c1.83,1.76,2.97,4.23,2.97,6.97,0,5.35-4.34,9.69-9.69,9.69-.53,0-1.04-.05-1.55-.14-.55,8.12-5.31,15.13-12.12,18.84v5.07c0,2.36,1.34,4.52,3.46,5.57l5.52,2.72c1.23.61,2.53,1.08,3.86,1.42l19.24,4.03c.65.16,1.27.4,1.86.7.46-.18.93-.37,1.38-.59l5.05-2.49c1.93-.95,3.17-2.93,3.17-5.09v-4.32h0c-6.55-3.3-11.19-9.88-11.7-17.54-.46.07-.93.12-1.41.12-4.89,0-8.86-3.97-8.86-8.86,0-2.8,1.3-5.29,3.33-6.92v-9.81c0-12.04,9.85-21.9,21.9-21.9h6.22c4.41,0,8.27,2.39,10.39,5.93,1.82-1.09,3.93-1.73,6.19-1.73,3.68,0,6.98,1.66,9.21,4.27V6.03c0-1.95-1.58-3.53-3.53-3.53Z"/>
  <path class="st3" d="M23.52,153.15h-2.33v-2.33c0-1.74-1.41-3.16-3.16-3.16s-3.16,1.41-3.16,3.16v2.33h-2.33c-1.74,0-3.16,1.41-3.16,3.16s1.41,3.16,3.16,3.16h2.33v2.33c0,1.74,1.41,3.16,3.16,3.16s3.16-1.41,3.16-3.16v-2.33h2.33c1.74,0,3.16-1.41,3.16-3.16s-1.41-3.16-3.16-3.16Z"/>
  <path class="st8" d="M257.05,133.85c-4.5-.84-8.04-4.31-8.9-8.72-.04-.22-.35-.22-.39,0-.86,4.41-4.4,7.88-8.9,8.72-.23.04-.23.34,0,.39,4.5.84,8.04,4.31,8.9,8.72.04.22.35.22.39,0,.86-4.41,4.4-7.88,8.9-8.72.23-.04.23-.34,0-.39Z"/>
  <circle class="st2" cx="235.01" cy="104.04" r="3.38"/>
  <path class="st1" d="M121.34,126.57c-1.7,0-3.07,1.37-3.07,3.07s1.37,3.07,3.07,3.07,3.07-1.37,3.07-3.07-1.37-3.07-3.07-3.07Z"/>
  <path class="st1" d="M139.44,126.57c-1.7,0-3.07,1.37-3.07,3.07s1.37,3.07,3.07,3.07,3.07-1.37,3.07-3.07-1.37-3.07-3.07-3.07Z"/>
  <path class="st1" d="M186.13,135.85c-1.55,0-2.81,1.26-2.81,2.81s1.26,2.81,2.81,2.81,2.81-1.26,2.81-2.81-1.26-2.81-2.81-2.81Z"/>
  <path class="st1" d="M202.68,135.85c-1.55,0-2.81,1.26-2.81,2.81s1.26,2.81,2.81,2.81,2.81-1.26,2.81-2.81-1.26-2.81-2.81-2.81Z"/>
  <path class="st1" d="M58.13,135.85c-1.55,0-2.81,1.26-2.81,2.81s1.26,2.81,2.81,2.81,2.81-1.26,2.81-2.81-1.26-2.81-2.81-2.81Z"/>
  <path class="st1" d="M74.68,135.85c-1.55,0-2.81,1.26-2.81,2.81s1.26,2.81,2.81,2.81,2.81-1.26,2.81-2.81-1.26-2.81-2.81-2.81Z"/>
  <path class="st1" d="M131.58,40.17h-2c-1.38,0-2.5,1.12-2.5,2.5s1.12,2.5,2.5,2.5h2c1.38,0,2.5-1.12,2.5-2.5s-1.12-2.5-2.5-2.5Z"/>
  <path class="st1" d="M139.42,140.71c-1.14-.77-2.7-.47-3.47.67-1.21,1.79-3.21,2.85-5.37,2.85s-4.16-1.07-5.37-2.85c-.77-1.15-2.33-1.45-3.47-.67-1.14.77-1.45,2.33-.67,3.47,2.14,3.17,5.69,5.06,9.51,5.06s7.37-1.89,9.51-5.06c.77-1.14.47-2.7-.67-3.47Z"/>
  <path class="st1" d="M202.78,148.6c-1.14-.77-2.7-.47-3.47.67-1.07,1.58-2.83,2.52-4.73,2.52s-3.67-.94-4.73-2.52c-.77-1.14-2.33-1.45-3.47-.67-1.14.77-1.45,2.33-.67,3.47,2,2.95,5.31,4.72,8.88,4.72s6.88-1.76,8.87-4.72c.77-1.14.47-2.7-.67-3.47Z"/>
  <path class="st1" d="M74.78,148.6c-1.14-.77-2.7-.47-3.47.67-1.07,1.58-2.83,2.52-4.73,2.52s-3.67-.94-4.73-2.52c-.77-1.14-2.33-1.45-3.47-.67-1.14.77-1.45,2.33-.67,3.47,2,2.95,5.31,4.72,8.88,4.72s6.88-1.76,8.87-4.72c.77-1.14.47-2.7-.67-3.47Z"/>
  <path class="st10" d="M179.47,232.66h0s0-.06,0-.11c0,.04,0,.08,0,.11ZM242.51,188.27s0-.03,0-.05c-.27-4.78-3.56-8.77-8.2-9.94-.03,0-.07-.02-.1-.02l-11.63-2.44v-28.49c3.36-1.97,5.63-5.62,5.63-9.79,0-2.8-1.03-5.37-2.71-7.35v-14.96c0-3.27-1.09-6.28-2.91-8.72V6.03C222.58,2.7,219.88,0,216.55,0H44.61C41.28,0,38.58,2.7,38.58,6.03v103.24c-1.86,3.44-2.91,7.37-2.91,11.55v8.7c-2.06,2.06-3.33,4.9-3.33,8.03,0,4.42,2.55,8.25,6.24,10.13v28.16l-11.63,2.44s-.06.01-.1.02c-4.64,1.17-7.94,5.16-8.2,9.99-.43,11.76-1.1,30.19-1.61,44.29-.15,2.76,2.05,5.1,4.82,5.1h217.45c2.77,0,4.97-2.35,4.82-5.05-1.14-31.3-.86-23.7-1.61-44.34ZM238.11,204.79h-4.92c-1.06,0-1.93-.87-1.93-1.93s.87-1.93,1.93-1.93h4.78l.14,3.86ZM223.21,137.55c0,3.07-2.21,5.69-5.22,6.25v-12.5c3.38.79,5.22,3.38,5.22,6.25ZM220.49,115.24v11.55c-1.31-.44-2.4-.53-2.51-.54,0-.1,0-.77,0-.67-.04-1.94-1.59-3.51-3.52-3.57-4.77-.14-10.22-1.51-13.57-4.79-1.55-1.51-4.06-1.36-5.41.34-6.75,8.49-16.63,7.5-20.55,6.67-1.71-.36-3.34.54-4.03,1.98-.64.04-1.71.24-2.24.39v-5.78c0-10.7,8.7-19.4,19.4-19.4h6.22c3.34,0,6.5,1.81,8.25,4.72.71,1.18,2.24,1.57,3.43.86,6.44-3.86,14.53.88,14.53,8.25ZM175.22,173.6c-.32-.11-.9-.33-1.36-.42l-19.19-4.02c-1.14-.29-2.26-.7-3.32-1.23l-5.52-2.72c-1.26-.62-2.07-1.92-2.07-3.32v-3.63c6.2-3.86,10.62-10.25,11.83-17.67,1.54-.08,3.4-.56,4.87-1.31.81,5.25,5.23,9.24,10.43,9.6,1.2,7.01,5.49,12.97,11.4,16.44v2.83c0,1.22-.68,2.31-1.77,2.85-2.56,1.26-4.47,2.22-5.31,2.6ZM178.42,202.19h-5.62c-1.29,0-2.34-1.05-2.34-2.35s1.05-2.34,2.34-2.34h5.45l.17,4.69ZM80.63,171c-1.09-.54-1.77-1.63-1.77-2.85v-3.2c5.79-3.64,9.67-9.54,10.79-16.07,5.25-.36,9.62-4.37,10.43-9.57,1.48.75,3.32,1.21,4.82,1.29,1.27,7.72,5.98,14.28,12.51,18.07v3.22c0,1.3-.73,2.66-2.07,3.32l-5.52,2.72c-1.09.54-2.73,1.07-3.32,1.23l-19.19,4.02c-.25.05-.87.24-1.36.42-.75-.34-3.35-1.64-5.31-2.6ZM83.11,191.88c2.69.55,4.73,2.93,4.73,5.78,0,3-2.25,5.48-5.15,5.85l.42-11.64ZM47.56,144.86c0-6.88-.02-14.32.03-15.44,8.59,1.24,17.1-1.14,22.9-7.65,4,3.29,9.27,4.83,14.5,5.18v17.91c0,10.24-8.39,18.72-18.72,18.72s-18.72-8.55-18.72-18.72ZM54.31,165.32v2.83c0,1.13-.64,2.29-1.77,2.85l-5.05,2.49c-.95.47-1.96.84-2.99,1.1l-.92.19v-23.03c1.75,5.75,5.64,10.58,10.73,13.57ZM89.99,143.8v-12.5c2.39.9,4.52,1.59,5.12,5.19.59,3.51-1.78,6.71-5.12,7.32ZM123.46,88.68h6.8c3.75,0,7.3,2.07,9.22,5.27.71,1.19,2.25,1.57,3.43.86,1.67-1,3.57-1.53,5.48-1.53,5.93,0,10.75,4.82,10.75,10.75v12.96c-1.02-.38-2.2-.63-3.21-.71,0-.1,0-1.04,0-.94-.04-2-1.63-3.61-3.62-3.67-8.92-.26-13.45-3.79-14.99-5.3-1.59-1.56-4.18-1.4-5.56.34-7.47,9.39-18.37,8.29-22.71,7.38-1.78-.37-3.51.58-4.2,2.16-.76.04-1.93.23-2.84.51v-6.64c0-11.88,9.73-21.45,21.45-21.45ZM119.18,84.03c-9.88-3.84-17.23-12.58-19.42-22.86h61.64c-2.51,12.08-11.81,21.57-23.98,24.25-2.02-1.04-4.66-1.74-7.16-1.74h-6.8c-1.2,0-2.81.11-4.28.35ZM162.12,128.42c0,3.52-2.59,6.6-6.17,7.11v-14.21c3.53.5,6.17,3.53,6.17,7.11ZM104.54,121.32v14.21c-3.64-.52-6.17-3.66-6.17-7.11s2.51-6.59,6.17-7.1ZM109.54,136.42c.02-17.04-.04-15.69.04-17.15.34-.02,15.12,3.12,25.23-8.42,2.7,2.27,7.77,5.27,16.12,5.77v19.8c0,11.27-9.23,20.7-20.7,20.7s-20.7-9.41-20.7-20.7ZM165.34,137.55c0-3.11,2.29-5.72,5.22-6.26v12.51c-2.96-.53-5.22-3.16-5.22-6.25ZM175.56,144.86c0-6.88-.02-14.32.03-15.44,8.59,1.24,17.12-1.17,22.9-7.65,4,3.29,9.27,4.83,14.5,5.18v17.91c0,10.27-8.43,18.72-18.72,18.72s-18.72-8.61-18.72-18.72ZM206.86,164.95c6.53-4.11,9.35-9.73,10.73-15.73v25.57l-.92-.19c-2.47-.63-3.66-1.51-8.04-3.59-1.09-.54-1.77-1.63-1.77-2.85v-3.2ZM190.08,56.01V5h26.47c.57,0,1.03.46,1.03,1.03v96.24c-.37-.1-5.63-3.2-12.1-.59-2.76-3.29-6.87-5.25-11.19-5.25h-6.22c-11.62,0-21.62,8.27-23.91,19.54,0,0,0,.02,0,.03v-11.95c0-8.69-7.07-15.75-15.75-15.75-1.96,0-4,.38-5.97,1.19-.06-.07-.13-.13-.19-.21,12.58-4.2,21.89-14.89,24.25-28.1h18.43c2.85,0,5.16-2.32,5.16-5.16ZM99.33,5h62.5v20.01c0,.09-.07.16-.16.16h-62.17c-.09,0-.16-.07-.16-.16V5ZM76.08,5h18.25v20.01c0,2.85,2.32,5.16,5.16,5.16h62.17c2.85,0,5.16-2.32,5.16-5.16V5h18.25v51.01c0,.09-.07.16-.16.16h-108.67c-.09,0-.16-.07-.16-.16V5ZM43.58,6.03c0-.57.46-1.03,1.03-1.03h26.47v51.01c0,2.85,2.32,5.16,5.16,5.16h18.43c1.9,10.48,8.44,19.67,17.56,25.02-16.67,7.84-15.16,25.09-15.23,25.32-1.68-6.38-7.53-10.89-14.14-10.89-1.85,0-3.68.36-5.4,1.05-2.76-3.29-6.87-5.25-11.19-5.25h-6.22c-6.09,0-11.96,2.28-16.49,6.43V6.03ZM40.67,120.82c0-10.75,8.86-19.4,19.4-19.4h6.22c3.34,0,6.5,1.81,8.25,4.72.71,1.18,2.24,1.57,3.43.86,1.5-.9,3.19-1.37,4.91-1.37,5.3,0,9.62,4.31,9.62,9.62v11.55c-1.37-.46-2.4-.52-2.51-.54,0-.1,0-.77,0-.67-.04-1.94-1.59-3.51-3.52-3.57-4.77-.14-10.22-1.51-13.57-4.79-1.55-1.51-4.06-1.36-5.41.34-6.75,8.49-16.63,7.5-20.55,6.67-1.69-.36-3.33.53-4.03,1.98-.64.04-1.68.23-2.24.39v-5.78ZM37.34,137.55c0-3.16,2.32-5.73,5.22-6.26v12.5c-2.92-.53-5.22-3.1-5.22-6.24ZM23.38,195.85c2.24.57,3.9,2.61,3.9,5.02,0,2.55-1.85,4.67-4.27,5.1l.37-10.13ZM36.86,232.66h-14.82l.51-13.92h14.31v13.92ZM48.52,232.66h-6.67v-27.45c0-1.38-1.12-2.5-2.5-2.5s-2.5,1.12-2.5,2.5v8.54h-14.13l.1-2.72c5.28-.38,9.46-4.78,9.46-10.15s-3.8-9.35-8.72-10.07l.08-2.3c.14-2.56,1.9-4.71,4.39-5.36,1.09-.23,17.1-3.56,17.86-3.76.78,1.54,1.66,3.03,2.63,4.45v48.83ZM76.63,232.66h-23.11v-42.9c2.74,2.65,6.14,5.1,9.71,6.9,2.12,1.07,4.62,1.04,6.68,0,3.01-1.51,5.98-3.56,8.22-5.51,0,.1-1.51,41.2-1.51,41.51ZM78.41,183.75c-3,3.54-6.55,6.34-10.74,8.44-.67.34-1.52.34-2.19,0-6.32-3.18-11.64-8.35-14.93-14.65,3.61-1.89,4.76-2.06,6.33-3.61,1.94-1.92,2.36-3.77,2.42-6.41,4.6,1.42,9.7,1.44,14.55-.21.05.2-.65,5.59,4.56,8.16l2.81,1.39c-1.72,1.99-2.67,4.5-2.82,6.88ZM98.31,232.66c-4.22,0-14.71,0-16.64-.01l-.04-.08.57-15.59h16.11v15.68ZM111.07,232.66h-7.76v-30.25c0-1.38-1.12-2.5-2.5-2.5s-2.5,1.12-2.5,2.5v9.57h-15.93l.12-3.43c5.75-.3,10.33-5.06,10.33-10.87s-4.17-10.14-9.54-10.81l.07-2.05h0c.04-.1-.22-5.4,5-6.75,21.72-4.55,18.85-3.93,19.71-4.16.88,1.76,1.88,3.45,2.99,5.06v53.7ZM117.54,169.69c2.94-1.45,4.86-4.55,4.86-7.81v-1c5.12,1.65,10.88,1.71,16.38-.23v1.23c0,3.34,1.86,6.33,4.86,7.81l4.79,2.36c-3.66,7.13-9.62,12.86-16.54,16.33-.78.39-1.8.41-2.6,0h0c-6.78-3.41-12.8-9.06-16.54-16.33.31-.15,5.09-2.51,4.79-2.36ZM145.07,232.66h-29v-47.69c3.01,2.99,6.85,5.82,10.96,7.89,2.2,1.1,4.85,1.13,7.1,0,4.03-2.03,7.92-4.87,10.95-7.88v10.84h-3.25c-1.74,0-3.26,1.18-3.71,2.87-1.82,6.78,1.11,13.89,6.97,17.5v16.46ZM147.63,211.87c-3.69-2.33-5.68-6.69-4.88-11.05h9.73c.79,4.3-1.11,8.67-4.85,11.05ZM160.35,199.91c-1.38,0-2.5,1.12-2.5,2.5v30.25h-7.78v-16.43c6.02-3.68,8.84-10.83,7.04-17.54-.45-1.69-1.98-2.87-3.72-2.87h-3.32v-16.84c1.12-1.62,2.12-3.32,3.01-5.08,1.14.31-2.14-.44,19.68,4.15,5.27,1.35,4.99,6.65,5.02,6.75h0s.28,7.69.28,7.69h-5.27c-4.05,0-7.34,3.29-7.34,7.34s3.29,7.35,7.34,7.35h5.81l.17,4.79h-15.93v-9.57c0-1.38-1.12-2.5-2.5-2.5ZM179.47,232.66h-16.62v-15.68h16.11c.4,11.87.49,14.94.5,15.57,0-.13,0-.26.02.11h-.02c0,.05,0,.04,0,0ZM179.93,176.87l2.81-1.39c5.14-2.53,4.52-7.8,4.56-7.95,4.68,1.44,9.77,1.41,14.55-.21.05.2-.65,5.59,4.56,8.16l4.19,2.07c-3.37,6.45-8.78,11.56-14.93,14.65-.67.34-1.52.34-2.19,0-4.01-2.02-7.65-4.81-10.73-8.44-.16-2.46-1.1-4.91-2.82-6.89ZM207.62,232.66h-23.09c0-3.26.43,11.61-1.51-41.5,2.26,1.97,5.21,4,8.21,5.51,2.12,1.07,4.62,1.04,6.68,0,3.48-1.75,6.88-4.17,9.7-6.89v9.19h-2.76c-1.68,0-3.17,1.14-3.6,2.78-1.66,6.19.95,12.78,6.37,16.18v14.72ZM210.17,213.61c-3.3-2.15-4.88-5.99-4.28-9.63.27,0,9.08,0,8.54,0,.62,3.76-1.05,7.54-4.25,9.63ZM219.31,232.66h-6.68v-14.69c3.54-2.2,5.95-5.78,6.68-9.81v24.5ZM221.81,202.71c-1.05,0-1.95.65-2.32,1.57-.07-.85-.22-1.69-.44-2.52-.44-1.64-1.92-2.78-3.61-2.78h-2.82v-15.12c.98-1.43,1.87-2.92,2.65-4.47.76.2,17.76,3.74,17.86,3.76,2.48.64,4.23,2.78,4.38,5.33l.27,7.45h-4.6c-3.82,0-6.93,3.11-6.93,6.93s3.11,6.93,6.93,6.93h5.1l.14,3.95h-14.13v-8.54c0-1.38-1.12-2.5-2.5-2.5ZM224.31,232.66v-13.92h14.31l.51,13.92h-14.82Z"/>
</svg>