<?xml version="1.0" encoding="UTF-8"?>
<svg id="Layer_1" xmlns="http://www.w3.org/2000/svg" version="1.1" viewBox="0 0 257.22 237.66">
  <!-- Generator: Adobe Illustrator 30.0.0, SVG Export Plug-In . SVG Version: 2.1.1 Build 123)  -->
  <defs>
    <style>
      .st0 {
        fill: #5c5e61;
      }

      .st1 {
        fill: #010101;
      }

      .st2 {
        fill: #fec726;
      }

      .st3 {
        fill: #e1c875;
      }

      .st4 {
        fill: #79c143;
      }

      .st5 {
        fill: #fccdb1;
      }

      .st6 {
        fill: #828183;
      }

      .st7 {
        fill: #f386a4;
      }

      .st8 {
        fill: #5ccbee;
      }

      .st9 {
        fill: #d7e7f2;
      }

      .st10 {
        fill: #f0597c;
      }
    </style>
  </defs>
  <path class="st5" d="M1268.26,1525c-.87,0-1.73.07-2.56.21.06.86.1,1.72.1,2.59v26.44c0,.87-.04,1.72-.1,2.57.84.13,1.69.22,2.56.22,8.85,0,16.02-7.17,16.02-16.02s-7.17-16.02-16.02-16.02Z"/>
  <path class="st5" d="M1189.08,1527.79c0-.87.04-1.73.1-2.59-.83-.13-1.69-.21-2.56-.21-8.85,0-16.02,7.17-16.02,16.02s7.17,16.02,16.02,16.02c.87,0,1.72-.09,2.56-.22-.06-.85-.1-1.71-.1-2.57v-26.44Z"/>
  <path class="st5" d="M1265.8,1519.46c-.02-1.09-.89-1.98-1.98-2.02-15.94-.47-24.33-6.78-27.56-9.95-.88-.86-2.3-.77-3.07.19-14.01,17.62-34.68,15.13-41.63,13.68-1.26-.26-2.47.69-2.48,1.98v30.88c0,21.1,17.26,38.36,38.36,38.36h0c21.1,0,38.36-17.26,38.36-38.36v-34.17c0-.2,0-.4,0-.6Z"/>
  <path class="st0" d="M1257.46,1478.77c-4.09,0-7.91,1.16-11.19,3.12-3.84-6.4-10.82-10.72-18.79-10.72h-11.25c-21.78,0-39.59,17.82-39.59,39.59v17.74c2.74-2.19,6.21-3.51,9.99-3.51.84,0,1.66.07,2.46.2v-1.84c0-1.29,1.21-2.24,2.48-1.98,6.95,1.45,27.62,3.94,41.63-13.68.77-.97,2.19-1.06,3.07-.19,3.23,3.16,11.62,9.48,27.56,9.95,1.09.03,1.96.93,1.98,2.02,0,.2,0,.4,0,.6v5.13c.8-.12,1.62-.2,2.46-.2,4.32,0,8.23,1.72,11.11,4.49v-28.81c0-12.05-9.86-21.91-21.91-21.91Z"/>
  <path class="st3" d="M1310.15,1632.89c-.37-6.61-4.99-12.22-11.42-13.84l-28.1-5.88c-13.43,16.1-40.62,18.19-42.57,18.32,0,0,0,0,0,0,0,0-.03,0-.06,0-.03,0-.06,0-.06,0,0,0,0,0,0,0-1.95-.13-29.14-2.22-42.57-18.32l-28.1,5.88c-6.42,1.62-11.05,7.22-11.42,13.84l-.66,18.26c4.88-2.57,10.44-4.02,16.34-4.02,19.43,0,35.18,15.75,35.18,35.18s-15.75,35.18-35.18,35.18h147.34c2.42,0,4.34-2.03,4.2-4.44l-2.92-80.16Z"/>
  <path class="st5" d="M1251.4,1605.54c-3.51-1.73-5.72-5.3-5.72-9.21v-8.39c-5.43,2.96-11.64,4.64-18.23,4.64h0c-6.14,0-11.95-1.47-17.11-4.07v7.81c0,3.91-2.22,7.48-5.72,9.21l-.69.34c2.72,5.63,8.6,11.9,19.89,18.33,1.64.93,2.88,2.37,3.59,4.05.23.55.98.55,1.21,0,.7-1.68,1.95-3.12,3.59-4.05,11.29-6.42,17.17-12.7,19.89-18.33l-.69-.34Z"/>
  <path class="st3" d="M1259.38,1575.4c-2.6,3.91-5.9,7.31-9.72,10.04,4.24,5.44,12.75,21.58-17.47,38.77-1.64.93-2.88,2.37-3.59,4.05-.23.55-.98.55-1.21,0-.7-1.68-1.95-3.12-3.59-4.05-29.32-16.68-22.19-32.37-17.86-38.26-3.97-2.71-7.41-6.14-10.14-10.1-10.49,5.99-24.59,18.08-11.75,35.65,12.88,17.63,41.87,19.86,43.88,19.99,0,0,0,0,0,0,0,0,.03,0,.06,0,.03,0,.06,0,.06,0,0,0,0,0,0,0,2.01-.13,31-2.36,43.88-19.99,13.17-18.02-2-30.28-12.56-36.1Z"/>
  <path class="st3" d="M1205.95,1585.95c-2.66,3.62-6.37,10.95-2.02,19.93l.68-.34c3.51-1.73,5.72-5.3,5.72-9.21v-7.81c-1.52-.76-2.99-1.62-4.38-2.57Z"/>
  <path class="st3" d="M1249.67,1585.44c-1.28.91-2.61,1.76-4,2.52,0,0,0,0,0,0v8.39c0,3.91,2.22,7.48,5.72,9.21l.67.33c4.55-9.43.26-17.03-2.4-20.44Z"/>
  <path class="st7" d="M1266.09,1658.34c-.17-.65-.75-1.11-1.42-1.11h-12.61c-.67,0-1.24.46-1.42,1.11-.32,1.19-.49,2.44-.49,3.73,0,5.48,3.05,10.24,7.54,12.7.42.23.93.23,1.35,0,4.49-2.46,7.54-7.22,7.54-12.7,0-1.29-.17-2.54-.49-3.73Z"/>
  <path class="st2" d="M1232.36,1580.98h-8.71c-2.94,0-5.32,2.38-5.32,5.32s2.38,5.32,5.32,5.32h8.71c2.94,0,5.32-2.38,5.32-5.32s-2.38-5.32-5.32-5.32Z"/>
  <path class="st2" d="M1233.82,1570.09c-1.79.77-3.76,1.19-5.82,1.19s-4.04-.43-5.82-1.19c-.1.31-.16.64-.16.99v10.15c.52-.17,1.06-.26,1.63-.26h8.71c.57,0,1.12.09,1.63.26v-10.15c0-.35-.07-.67-.16-.99Z"/>
  <circle class="st1" cx="1212.72" cy="1543.02" r="5.08"/>
  <path class="st1" d="M1242.64,1537.94c-2.8,0-5.08,2.27-5.08,5.08s2.27,5.08,5.08,5.08,5.08-2.27,5.08-5.08-2.27-5.08-5.08-5.08Z"/>
  <path class="st10" d="M1294.15,1577.05c-2.4-.45-4.29-2.3-4.75-4.65-.02-.12-.19-.12-.21,0-.46,2.35-2.35,4.21-4.75,4.65-.12.02-.12.18,0,.21,2.4.45,4.29,2.3,4.75,4.65.02.12.19.12.21,0,.46-2.35,2.35-4.21,4.75-4.65.12-.02.12-.18,0-.21Z"/>
  <path class="st2" d="M1161.7,1592.19c-4.5-.84-8.04-4.31-8.9-8.72-.04-.22-.35-.22-.39,0-.86,4.41-4.4,7.88-8.9,8.72-.23.04-.23.34,0,.39,4.5.84,8.04,4.31,8.9,8.72.04.22.35.22.39,0,.86-4.41,4.4-7.88,8.9-8.72.23-.04.23-.34,0-.39Z"/>
  <path class="st2" d="M1296.66,1497.25c-1.87,0-3.38,1.51-3.38,3.38s1.51,3.38,3.38,3.38,3.38-1.51,3.38-3.38-1.51-3.38-3.38-3.38Z"/>
  <path class="st8" d="M1135.66,1613.25c-1.87,0-3.38,1.51-3.38,3.38s1.51,3.38,3.38,3.38,3.38-1.51,3.38-3.38-1.51-3.38-3.38-3.38Z"/>
  <path class="st4" d="M1325.66,1638.25c-1.87,0-3.38,1.51-3.38,3.38s1.51,3.38,3.38,3.38,3.38-1.51,3.38-3.38-1.51-3.38-3.38-3.38Z"/>
  <circle class="st9" cx="1161.53" cy="1682.32" r="35.18"/>
  <path class="st6" d="M1195.02,1671.55h-2.41c-.43,0-.83.23-1.04.6l-5.52,9.57c-.21.37-.21.83,0,1.2l5.52,9.57c.21.37.61.6,1.04.6h2.41c1.09-3.39,1.69-7.01,1.69-10.77s-.59-7.37-1.69-10.77Z"/>
  <path class="st6" d="M1137,1681.71l-5.52-9.57c-.21-.37-.61-.6-1.04-.6h-2.41c-1.09,3.39-1.69,7.01-1.69,10.77s.59,7.37,1.69,10.77h2.41c.43,0,.83-.23,1.04-.6l5.52-9.57c.21-.37.21-.83,0-1.2Z"/>
  <path class="st6" d="M1168.95,1647.92l-1.2,2.08c-.21.37-.21.83,0,1.2l5.52,9.57c.21.37.61.6,1.04.6h11.04c.43,0,.83-.23,1.04-.6l1.2-2.08c-4.85-5.35-11.33-9.2-18.65-10.77Z"/>
  <path class="st6" d="M1155.31,1713.42l-5.52-9.56c-.21-.37-.61-.6-1.04-.6h-11.04c-.43,0-.83.23-1.04.6l-1.2,2.08c4.85,5.35,11.33,9.2,18.65,10.77l1.2-2.08c.21-.37.21-.83,0-1.2Z"/>
  <path class="st6" d="M1173.61,1681.71l-5.52-9.56c-.21-.37-.61-.6-1.04-.6h-11.04c-.43,0-.83.23-1.04.6l-5.52,9.56c-.21.37-.21.83,0,1.2l5.52,9.57c.21.37.61.6,1.04.6h11.04c.43,0,.83-.23,1.04-.6l5.52-9.57c.21-.37.21-.83,0-1.2Z"/>
  <path class="st6" d="M1155.31,1650.01l-1.2-2.08c-7.32,1.57-13.8,5.42-18.65,10.77l1.2,2.08c.22.37.61.6,1.04.6h11.04c.43,0,.83-.23,1.04-.6l5.52-9.57c.21-.37.21-.83,0-1.2Z"/>
  <path class="st6" d="M1186.4,1703.86c-.22-.37-.61-.6-1.04-.6h-11.04c-.43,0-.83.23-1.04.6l-5.52,9.56c-.21.37-.21.83,0,1.2l1.2,2.08c7.32-1.57,13.8-5.42,18.65-10.77l-1.2-2.08Z"/>
  <path class="st1" d="M1315.56,1712.97l-2.92-80.16s0-.03,0-.05c-.43-7.75-5.78-14.23-13.3-16.12-.03,0-.07-.02-.1-.02l-24.28-5.08c9.78-14.76,3.12-27.75-12.09-36.99,2.61-4.54,4.37-9.62,5.07-15.03,16.26.32,24.9-19.09,13.92-31.01v-27.82c0-17.87-18.68-29.71-34.79-22.06-4.59-6.19-11.9-9.95-19.61-9.95h-11.25c-23.21,0-42.09,18.88-42.09,42.09v16.62c-3.69,3.39-6.02,8.23-6.02,13.63,0,10.31,8.48,18.7,18.83,18.5.73,5.61,2.59,10.87,5.37,15.54-14.64,9.22-20.87,22-11.27,36.48l-24.28,5.08s-.07.01-.1.02c-7.53,1.89-12.87,8.37-13.31,16.17l-.61,16.83c-11.6,6.68-18.9,19.2-18.9,32.68,0,20.94,17.05,37.68,37.68,37.68h147.34c3.91,0,6.91-3.32,6.7-7.03ZM1245.19,1625.65v-.59c0-1.38-1.12-2.5-2.5-2.5s-2.5,1.12-2.5,2.5v1.94c-3.15.74-6.06,1.27-8.98,1.65.35-.63.83-1.24,1.48-1.76,1.49-1.18,34.75-18.02,20.42-40.89,2.63-2.13,4.99-4.57,7.03-7.28,28.16,16.95,10.63,39.13-14.94,46.93ZM1248.17,1589.42c.29-.17.57-.34.85-.52,2.47,4.07,3.25,8.62,1.82,13.28-4.23-3.67-2.12-8.77-2.67-12.77ZM1281.78,1541.01c0,7.44-6.04,13.5-13.48,13.52,0-.8,0-26.93,0-27.03,7.44.02,13.48,6.11,13.48,13.51ZM1173.11,1541.01c0-7.5,6.16-13.49,13.48-13.51,0,18,0,24.31-.01,26.25,0-.1,0,.03.02.77-7.43-.02-13.48-6.08-13.48-13.52ZM1186.67,1522.5c-2.52,0-5.04.49-7.54,1.59v-13.32c0-20.45,16.64-37.09,37.09-37.09h11.25c6.75,0,13.13,3.64,16.65,9.51.71,1.19,2.25,1.57,3.43.86,12.89-7.73,29.32,1.63,29.32,16.64v23.94c-2.73-1.44-5.74-2.12-8.57-2.12v-2.44c0-3.34-2.09-5.05-4.41-5.12-9.18-.27-19.47-2.95-25.88-9.23-1.96-1.92-5.1-1.68-6.78.42-12.91,16.24-31.69,14.35-39.16,12.79-2.56-.53-4.94,1.17-5.4,3.57ZM1191.58,1554.23c0-.1.03-29.6,0-29.7v-.61c16.09,3.15,32.67-1.26,43.27-14.31,7.42,7.02,18.24,9.95,28.45,10.31v4.61c-.03.1,0,29.59,0,29.7,0,15.23-9.66,28.41-23.27,33.55.09-.48.14-.97.14-1.48,0-2.8-1.48-5.25-3.69-6.63v-8.11c2.32-1.3,4.34-3.14,5.88-5.41.77-1.14.47-2.7-.67-3.47-1.14-.77-2.7-.47-3.47.67-4.89,7.24-15.59,7.2-20.46,0-.77-1.14-2.33-1.44-3.47-.67-1.14.77-1.45,2.33-.67,3.47,1.54,2.28,3.56,4.11,5.88,5.41v8.11c-2.21,1.38-3.69,3.83-3.69,6.63,0,.66.09,1.3.25,1.91-14.54-4.93-24.48-18.51-24.48-33.98ZM1232.36,1583.48c1.48,0,2.82,1.22,2.82,2.82s-1.27,2.82-2.82,2.82h-8.71c-1.56,0-2.82-1.27-2.82-2.82s1.34-2.82,2.82-2.82h8.71ZM1224.51,1578.48v-5.04c2.35.48,4.82.44,6.98,0v5.04h-6.98ZM1205.15,1602.2c-1.63-5.31-.16-9.79,1.54-12.79.38.22.76.45,1.14.66-.36,4.22,1.24,8.76-2.68,12.13ZM1195.12,1579.18c2.15,2.78,4.64,5.27,7.42,7.41-7.69,13.04-.36,25.52,11.88,34.53,7.23,5.33,8.89,4.87,10.37,7.53-3-.39-5.95-.93-8.98-1.65v-1.94c0-3.3-5-3.31-5,0v.59c-9.43-2.87-18.96-7.73-24.73-15.62-9.11-12.47-4.06-22.67,9.04-30.85ZM1152.61,1650.88l-4.62,8h-9.21c3.79-3.67,8.51-6.49,13.83-8ZM1157.88,1649.84c1.33-.15,2.58-.21,3.64-.21,0,0,0,0,0,0,1.23,0,2.45.07,3.65.21-.19.88-.06,1.82.41,2.62l5.15,8.92-4.43,7.67h-9.55l-4.43-7.67,5.15-8.92c.46-.8.59-1.74.41-2.62ZM1175.4,1684.82h8.86l5.15,8.92c.46.8,1.21,1.38,2.06,1.66-.97,2.22-2.11,4.23-3.65,6.31-.67-.6-1.54-.95-2.46-.95h-10.3l-4.43-7.67,4.77-8.27ZM1166.3,1690.58h-9.55l-4.77-8.27,4.77-8.27h9.55l4.77,8.27-4.77,8.27ZM1188.59,1682.32l4.62-8.01c.63,2.48,1,5.34,1,8.01s-.37,5.55-1,8.01l-4.62-8.01ZM1189.41,1670.89h0s-5.15,8.92-5.15,8.92h-8.86l-4.77-8.27,4.43-7.67h10.3c.92,0,1.79-.35,2.46-.95,1.56,2.11,2.69,4.13,3.65,6.31-.85.28-1.6.86-2.06,1.66ZM1175.06,1658.88l-4.62-8c5.37,1.52,10.07,4.35,13.83,8h-9.21ZM1135.23,1662.93c.67.6,1.54.95,2.46.95h10.3l4.43,7.67-4.77,8.27h-8.86l-5.15-8.92h0c-.46-.8-1.21-1.38-2.06-1.66.98-2.25,2.21-4.36,3.65-6.31ZM1129.84,1674.31l4.62,8.01-4.62,8.01c-1.33-5.26-1.3-10.85,0-16.02ZM1135.23,1701.7c-1.44-1.95-2.67-4.07-3.65-6.31.85-.28,1.6-.86,2.06-1.66l5.15-8.92h8.86l4.77,8.27-4.43,7.67h-10.3c-.92,0-1.79.35-2.46.95ZM1138.78,1705.75h9.21l4.62,8c-5.23-1.49-9.97-4.25-13.83-8ZM1165.17,1714.79c-1.2.13-2.41.21-3.65.21s-2.45-.07-3.65-.21c.19-.88.06-1.82-.41-2.62l-5.15-8.92,4.43-7.67h9.55l4.43,7.67-5.15,8.92c-.46.8-.59,1.74-.41,2.62ZM1175.06,1705.75h9.21c-3.84,3.72-8.57,6.51-13.83,8l4.62-8ZM1225.5,1715h-45.2c11.31-6.5,18.91-18.87,18.91-32.68,0-20.78-16.88-37.68-37.68-37.68h0c-4.72,0-9.47.93-13.69,2.57l.52-14.17c.31-5.54,4.12-10.17,9.49-11.54l26.61-5.57c6.81,7.53,16.68,12.22,26.36,14.98v28.13c0,1.38,1.12,2.5,2.5,2.5s2.5-1.12,2.5-2.5v-26.87c4.07.91,7.51,1.38,9.69,1.62v81.22ZM1228,1624.5c-.83-.99-1.83-1.83-2.95-2.47-6.48-3.68-13.79-8.83-17.74-15.18,6.03-4.14,5.33-9.54,5.52-14.48,9.59,3.68,20.49,3.69,30.34-.44.02,3.43-1.07,10.44,5.52,14.92-3.94,6.34-11.25,11.49-17.74,15.18-1.13.64-2.13,1.48-2.96,2.47ZM1308.86,1715h-29.14v-51.65c0-1.38-1.12-2.5-2.5-2.5s-2.5,1.12-2.5,2.5v51.65h-44.22v-81.22c2.19-.24,5.61-.71,9.69-1.61v26.86c0,1.38,1.12,2.5,2.5,2.5s2.5-1.12,2.5-2.5v-28.13c9.76-2.78,19.61-7.51,26.36-14.98l26.61,5.57c5.36,1.37,9.17,5.99,9.49,11.52l2.92,80.19c.05.98-.73,1.8-1.71,1.8ZM1186.57,1553.75c0,.22,0,1.61,0,0h0Z"/>
  <path class="st1" d="M1268.51,1657.7c-.47-1.74-2.04-2.96-3.83-2.96h-12.61c-1.79,0-3.37,1.22-3.83,2.96-2.01,7.48,1.33,15.47,8.26,19.27,1.16.63,2.59.64,3.75,0,6.92-3.79,10.27-11.78,8.26-19.27ZM1258.37,1672.27c-4.24-2.61-6.47-7.59-5.48-12.54h10.97c.98,4.91-1.22,9.91-5.48,12.54Z"/>
  <path class="st5" d="M170.43,53.26c-.87,0-1.73.07-2.56.2.06.81.1,1.62.1,2.45v25c0,.82-.04,1.63-.1,2.43.84.13,1.69.21,2.56.21,8.85,0,16.02-6.78,16.02-15.14s-7.17-15.14-16.02-15.14Z"/>
  <path class="st5" d="M91.25,55.91c0-.82.04-1.64.1-2.45-.83-.13-1.69-.2-2.56-.2-8.85,0-16.02,6.78-16.02,15.14s7.17,15.14,16.02,15.14c.87,0,1.72-.08,2.56-.21-.06-.81-.1-1.61-.1-2.43v-25Z"/>
  <path class="st5" d="M167.97,48.03c-.02-1.03-.89-1.88-1.98-1.91-15.94-.44-24.33-6.41-27.56-9.4-.88-.82-2.3-.73-3.07.18-14.01,16.66-34.68,14.31-41.63,12.93-1.26-.25-2.47.65-2.48,1.87v29.2c0,19.95,17.26,36.27,38.36,36.27h0c21.1,0,38.36-16.32,38.36-36.27v-32.31c0-.19,0-.38,0-.57Z"/>
  <path class="st0" d="M159.63,9.55c-4.09,0-7.91,1.09-11.19,2.95-3.84-6.05-10.82-10.14-18.79-10.14h-11.25c-21.78,0-39.6,16.85-39.6,37.44v16.78c2.74-2.07,6.21-3.32,9.99-3.32.84,0,1.66.07,2.46.18v-1.74c0-1.22,1.21-2.12,2.48-1.87,6.95,1.38,27.62,3.73,41.63-12.93.77-.91,2.19-1,3.07-.18,3.23,2.99,11.62,8.96,27.56,9.4,1.09.03,1.96.88,1.98,1.91,0,.19,0,.38,0,.57v4.85c.8-.12,1.62-.18,2.46-.18,4.32,0,8.23,1.62,11.11,4.25v-27.24c0-11.4-9.86-20.72-21.91-20.72Z"/>
  <path class="st3" d="M212.32,155.29c-.37-6.25-4.99-11.56-11.42-13.09l-28.1-5.56c-13.43,15.22-40.62,17.2-42.57,17.32,0,0,0,0,0,0,0,0-.03,0-.06,0-.03,0-.06,0-.06,0,0,0,0,0,0,0-1.95-.12-29.14-2.1-42.57-17.32l-28.1,5.56c-6.42,1.53-11.05,6.83-11.42,13.09l-.66,17.27c4.88-2.43,10.44-3.81,16.34-3.81,19.43,0,35.18,14.9,35.18,33.27s-15.75,33.27-35.18,33.27h147.34c2.42,0,4.34-1.92,4.2-4.2l-2.92-75.8Z"/>
  <path class="st5" d="M153.57,129.43c-3.51-1.63-5.72-5.01-5.72-8.7v-7.93c-5.43,2.8-11.64,4.39-18.23,4.39h0c-6.14,0-11.95-1.39-17.11-3.84v7.39c0,3.7-2.22,7.07-5.72,8.7l-.69.32c2.72,5.32,8.6,11.26,19.89,17.33,1.64.88,2.88,2.24,3.59,3.83.23.52.98.52,1.21,0,.7-1.59,1.95-2.95,3.59-3.83,11.29-6.07,17.17-12.01,19.89-17.33l-.69-.32Z"/>
  <path class="st3" d="M161.55,100.92c-2.6,3.69-5.9,6.91-9.72,9.49,4.24,5.14,12.75,20.41-17.47,36.67-1.64.88-2.88,2.24-3.59,3.83-.23.52-.98.52-1.21,0-.7-1.59-1.95-2.95-3.59-3.83-29.32-15.77-22.19-30.61-17.86-36.18-3.97-2.56-7.41-5.8-10.14-9.55-10.49,5.67-24.59,17.1-11.75,33.71,12.88,16.67,41.87,18.78,43.88,18.9,0,0,0,0,0,0,0,0,.03,0,.06,0,.03,0,.06,0,.06,0,0,0,0,0,0,0,2.01-.13,31-2.23,43.88-18.9,13.17-17.04-2-28.63-12.56-34.14Z"/>
  <path class="st3" d="M108.11,110.9c-2.66,3.42-6.37,10.35-2.02,18.84l.68-.32c3.51-1.63,5.72-5.01,5.72-8.7v-7.39c-1.52-.72-2.99-1.53-4.38-2.43Z"/>
  <path class="st3" d="M151.83,110.41c-1.28.86-2.61,1.67-4,2.38,0,0,0,0,0,0v7.93c0,3.7,2.22,7.07,5.72,8.7l.67.31c4.55-8.91.26-16.11-2.4-19.33Z"/>
  <path class="st7" d="M168.26,179.36c-.17-.61-.75-1.04-1.42-1.04h-12.61c-.67,0-1.24.43-1.42,1.04-.32,1.12-.49,2.3-.49,3.52,0,5.18,3.05,9.68,7.54,12.01.42.22.93.22,1.35,0,4.49-2.33,7.54-6.83,7.54-12.01,0-1.22-.17-2.4-.49-3.52Z"/>
  <path class="st2" d="M134.53,106.2h-8.71c-2.94,0-5.32,2.25-5.32,5.03s2.38,5.03,5.32,5.03h8.71c2.94,0,5.32-2.25,5.32-5.03s-2.38-5.03-5.32-5.03Z"/>
  <path class="st2" d="M135.99,95.91c-1.79.72-3.76,1.13-5.82,1.13s-4.04-.41-5.82-1.13c-.1.3-.16.61-.16.93v9.6c.51-.16,1.06-.24,1.63-.24h8.71c.57,0,1.12.09,1.63.24v-9.6c0-.33-.07-.64-.16-.93Z"/>
  <ellipse class="st1" cx="114.88" cy="70.31" rx="5.08" ry="4.8"/>
  <ellipse class="st1" cx="144.81" cy="70.31" rx="5.08" ry="4.8"/>
  <path class="st10" d="M196.32,102.49c-2.4-.42-4.29-2.18-4.75-4.4-.02-.11-.19-.11-.21,0-.46,2.22-2.35,3.98-4.75,4.4-.12.02-.12.17,0,.2,2.4.42,4.29,2.18,4.75,4.4.02.11.19.11.21,0,.46-2.22,2.35-3.98,4.75-4.4.12-.02.12-.17,0-.2Z"/>
  <path class="st2" d="M63.87,116.8c-4.5-.79-8.04-4.08-8.9-8.24-.04-.21-.35-.21-.39,0-.86,4.17-4.4,7.45-8.9,8.24-.23.04-.23.33,0,.37,4.5.79,8.04,4.08,8.9,8.24.04.21.35.21.39,0,.86-4.17,4.4-7.45,8.9-8.24.23-.04.23-.33,0-.37Z"/>
  <path class="st2" d="M198.83,27.03c-1.87,0-3.38,1.43-3.38,3.19s1.51,3.19,3.38,3.19,3.38-1.43,3.38-3.19-1.51-3.19-3.38-3.19Z"/>
  <path class="st8" d="M37.83,136.72c-1.87,0-3.38,1.43-3.38,3.19s1.51,3.19,3.38,3.19,3.38-1.43,3.38-3.19-1.51-3.19-3.38-3.19Z"/>
  <path class="st4" d="M227.83,160.36c-1.87,0-3.38,1.43-3.38,3.19s1.51,3.19,3.38,3.19,3.38-1.43,3.38-3.19-1.51-3.19-3.38-3.19Z"/>
  <ellipse class="st9" cx="63.7" cy="202.03" rx="35.18" ry="33.27"/>
  <path class="st6" d="M97.19,191.84h-2.41c-.43,0-.83.22-1.04.57l-5.52,9.04c-.21.35-.21.79,0,1.14l5.52,9.04c.21.35.61.57,1.04.57h2.41c1.09-3.21,1.69-6.63,1.69-10.18s-.59-6.97-1.69-10.18Z"/>
  <path class="st6" d="M39.17,201.46l-5.52-9.04c-.21-.35-.61-.57-1.04-.57h-2.41c-1.09,3.21-1.69,6.63-1.69,10.18s.59,6.97,1.69,10.18h2.41c.43,0,.83-.22,1.04-.57l5.52-9.04c.21-.35.21-.79,0-1.14Z"/>
  <path class="st6" d="M71.12,169.5l-1.2,1.97c-.21.35-.21.79,0,1.14l5.52,9.04c.21.35.61.57,1.04.57h11.04c.43,0,.83-.22,1.04-.57l1.2-1.97c-4.85-5.06-11.33-8.7-18.65-10.18Z"/>
  <path class="st6" d="M57.48,231.44l-5.52-9.04c-.21-.35-.61-.57-1.04-.57h-11.04c-.43,0-.83.22-1.04.57l-1.2,1.97c4.85,5.06,11.33,8.7,18.65,10.18l1.2-1.97c.21-.35.21-.79,0-1.14Z"/>
  <path class="st6" d="M75.75,201.4l-5.48-8.98c-.22-.36-.61-.58-1.03-.58h-11.08c-.42,0-.81.22-1.03.58l-5.48,8.98c-.24.38-.24.87,0,1.25l5.48,8.98c.22.36.61.58,1.03.58h11.08c.42,0,.81-.22,1.03-.58l5.48-8.98c.24-.39.24-.87,0-1.25Z"/>
  <path class="st6" d="M57.48,171.47l-1.2-1.97c-7.32,1.49-13.8,5.12-18.65,10.18l1.2,1.97c.21.35.61.57,1.04.57h11.04c.43,0,.83-.22,1.04-.57l5.52-9.04c.21-.35.21-.79,0-1.14Z"/>
  <path class="st6" d="M88.57,222.39c-.21-.35-.61-.57-1.04-.57h-11.04c-.43,0-.83.22-1.04.57l-5.52,9.04c-.21.35-.21.79,0,1.14l1.2,1.97c7.32-1.49,13.8-5.12,18.65-10.18l-1.2-1.97Z"/>
  <path class="st1" d="M217.73,231.01l-2.92-75.8s0-.03,0-.05c-.43-7.33-5.78-13.45-13.3-15.25-.03,0-.07-.01-.1-.02l-24.28-4.81c9.78-13.95,3.12-26.24-12.09-34.97,2.61-4.29,4.37-9.09,5.07-14.21,16.26.3,24.9-18.05,13.92-29.33v-26.3c0-16.9-18.68-28.09-34.79-20.86C144.67,3.56,137.35,0,129.65,0h-11.25C95.18,0,76.3,17.86,76.3,39.81v15.72c-3.69,3.2-6.02,7.79-6.02,12.89,0,9.75,8.48,17.69,18.83,17.49.73,5.31,2.59,10.28,5.37,14.69-14.64,8.72-20.87,20.8-11.27,34.49l-24.28,4.81s-.07.01-.1.02c-7.53,1.79-12.87,7.92-13.31,15.29l-.61,15.92c-11.6,6.31-18.9,18.15-18.9,30.9,0,19.8,17.05,35.63,37.68,35.63h147.34c3.91,0,6.91-3.14,6.7-6.65ZM147.36,148.44v-.56c0-1.31-1.12-2.36-2.5-2.36s-2.5,1.06-2.5,2.36v1.84c-3.15.7-6.06,1.2-8.98,1.56.35-.6.83-1.17,1.48-1.67,1.49-1.12,34.75-17.04,20.42-38.67,2.63-2.01,4.99-4.32,7.03-6.88,28.16,16.03,10.63,37-14.94,44.38ZM150.34,114.18c.29-.16.57-.32.85-.49,2.47,3.85,3.25,8.15,1.82,12.56-4.23-3.47-2.12-8.3-2.67-12.07ZM183.95,68.41c0,7.04-6.04,12.76-13.48,12.78,0-.76,0-25.46,0-25.56,7.44.02,13.48,5.78,13.48,12.78ZM75.28,68.41c0-7.09,6.16-12.76,13.48-12.78,0,17.02,0,22.99-.01,24.83,0-.09,0,.03.02.73-7.43-.02-13.48-5.75-13.48-12.78ZM88.84,50.9c-2.51,0-5.04.46-7.54,1.51v-12.6c0-19.34,16.64-35.08,37.09-35.08h11.25c6.75,0,13.13,3.45,16.65,8.99.71,1.12,2.25,1.48,3.43.81,12.89-7.31,29.32,1.54,29.32,15.74v22.64c-2.73-1.36-5.74-2-8.57-2.01v-2.3c0-3.16-2.09-4.77-4.41-4.84-9.18-.25-19.47-2.79-25.88-8.73-1.96-1.82-5.1-1.59-6.78.4-12.91,15.35-31.69,13.57-39.16,12.09-2.56-.5-4.94,1.11-5.4,3.38ZM93.75,80.91c0-.1.03-27.99,0-28.08v-.57c16.09,2.98,32.67-1.19,43.27-13.53,7.42,6.64,18.24,9.41,28.45,9.75v4.36c-.03.1,0,27.98,0,28.08,0,14.4-9.65,26.86-23.27,31.72.09-.45.14-.92.14-1.4,0-2.64-1.48-4.96-3.69-6.27v-7.67c2.32-1.23,4.34-2.97,5.88-5.12.77-1.08.47-2.55-.67-3.28-1.14-.73-2.7-.45-3.47.64-4.89,6.84-15.59,6.81-20.46,0-.77-1.08-2.33-1.37-3.47-.64-1.14.73-1.45,2.2-.67,3.28,1.54,2.15,3.56,3.89,5.88,5.12v7.67c-2.21,1.31-3.69,3.63-3.69,6.27,0,.62.09,1.23.25,1.81-14.54-4.67-24.48-17.5-24.48-32.13ZM134.53,108.56c1.48,0,2.82,1.15,2.82,2.67s-1.27,2.67-2.82,2.67h-8.71c-1.56,0-2.82-1.2-2.82-2.67s1.34-2.67,2.82-2.67h8.71ZM126.68,103.83v-4.77c2.35.46,4.82.42,6.98,0v4.77h-6.98ZM107.32,126.26c-1.63-5.02-.16-9.26,1.54-12.1.38.21.76.42,1.14.62-.36,3.99,1.24,8.29-2.68,11.47ZM97.29,104.5c2.15,2.62,4.64,4.98,7.42,7.01-7.69,12.33-.36,24.13,11.88,32.65,7.23,5.04,8.89,4.61,10.37,7.12-3-.37-5.95-.88-8.98-1.56v-1.84c0-3.13-5-3.13-5,0v.56c-9.43-2.72-18.96-7.31-24.73-14.77-9.11-11.79-4.06-21.44,9.04-29.17ZM54.78,172.3l-4.62,7.56h-9.21c3.79-3.47,8.51-6.14,13.83-7.56ZM60.05,171.32c1.33-.14,2.58-.2,3.64-.2,0,0,0,0,0,0,1.23,0,2.45.07,3.65.2-.19.83-.06,1.72.41,2.48l5.15,8.43-4.43,7.25h-9.55l-4.43-7.25,5.15-8.43c.46-.76.59-1.64.41-2.48ZM77.57,204.39h8.86l5.15,8.44c.46.75,1.21,1.3,2.06,1.57-.97,2.1-2.11,4-3.65,5.97-.67-.57-1.54-.9-2.46-.9h-10.3l-4.43-7.25,4.77-7.82ZM68.47,209.84h-9.55l-4.77-7.82,4.77-7.82h9.55l4.77,7.82-4.77,7.82ZM90.76,202.03l4.62-7.57c.63,2.34,1,5.05,1,7.57s-.37,5.25-1,7.57l-4.62-7.57ZM91.58,191.23s0,0,0,0l-5.15,8.43h-8.86l-4.77-7.82,4.43-7.25h10.3c.92,0,1.79-.33,2.46-.9,1.56,2,2.69,3.9,3.65,5.97-.85.26-1.6.81-2.06,1.57ZM77.23,179.86l-4.62-7.56c5.37,1.44,10.07,4.11,13.83,7.56h-9.21ZM37.4,183.69c.67.57,1.54.9,2.46.9h10.3l4.43,7.25-4.77,7.82h-8.86l-5.15-8.43s0,0,0,0c-.46-.75-1.21-1.3-2.06-1.57.98-2.12,2.21-4.12,3.65-5.97ZM32.01,194.45l4.62,7.57-4.62,7.57c-1.33-4.98-1.3-10.26,0-15.15ZM37.4,220.36c-1.44-1.84-2.67-3.84-3.65-5.97.85-.26,1.6-.81,2.06-1.57l5.15-8.43h8.86l4.77,7.82-4.43,7.25h-10.3c-.92,0-1.79.33-2.46.9ZM40.95,224.19h9.21l4.62,7.56c-5.23-1.41-9.97-4.02-13.83-7.56ZM67.34,232.73c-1.2.13-2.41.2-3.65.2s-2.45-.07-3.65-.2c.19-.83.06-1.72-.41-2.48l-5.15-8.43,4.43-7.25h9.55l4.43,7.25-5.15,8.43c-.46.76-.59,1.64-.41,2.48ZM77.23,224.19h9.21c-3.84,3.52-8.57,6.15-13.83,7.56l4.62-7.56ZM127.67,232.93h-45.2c11.31-6.15,18.91-17.85,18.91-30.91,0-19.65-16.88-35.63-37.68-35.63h0c-4.72,0-9.47.88-13.69,2.43l.52-13.4c.31-5.24,4.12-9.62,9.49-10.91l26.61-5.27c6.81,7.12,16.68,11.56,26.36,14.16v26.6c0,1.31,1.12,2.36,2.5,2.36s2.5-1.06,2.5-2.36v-25.41c4.07.86,7.51,1.3,9.69,1.53v76.8ZM130.17,147.36c-.83-.93-1.83-1.73-2.95-2.33-6.48-3.48-13.79-8.35-17.74-14.36,6.03-3.91,5.33-9.02,5.52-13.69,9.59,3.48,20.49,3.49,30.34-.42.02,3.25-1.07,9.87,5.52,14.11-3.94,6-11.25,10.86-17.74,14.36-1.13.61-2.13,1.4-2.96,2.33ZM211.03,232.93h-29.14v-48.84c0-1.31-1.12-2.36-2.5-2.36s-2.5,1.06-2.5,2.36v48.84h-44.22v-76.8c2.19-.22,5.61-.67,9.69-1.53v25.4c0,1.31,1.12,2.36,2.5,2.36s2.5-1.06,2.5-2.36v-26.6c9.76-2.63,19.61-7.1,26.36-14.16l26.61,5.27c5.36,1.3,9.17,5.66,9.49,10.89l2.92,75.83c.05.93-.73,1.71-1.71,1.71ZM88.74,80.45c0,.21,0,1.52,0,0h0Z"/>
  <path class="st1" d="M170.68,178.75c-.47-1.65-2.04-2.8-3.83-2.8h-12.61c-1.79,0-3.37,1.15-3.83,2.8-2.01,7.07,1.33,14.63,8.26,18.22,1.16.6,2.59.6,3.75,0,6.92-3.59,10.27-11.14,8.26-18.22ZM160.54,192.53c-4.24-2.47-6.47-7.18-5.48-11.85h10.97c.98,4.65-1.22,9.37-5.48,11.85Z"/>
</svg>