<?xml version="1.0" encoding="UTF-8"?>
<svg id="Layer_1" xmlns="http://www.w3.org/2000/svg" version="1.1" viewBox="0 0 257.22 237.66">
  <!-- Generator: Adobe Illustrator 30.0.0, SVG Export Plug-In . SVG Version: 2.1.1 Build 123)  -->
  <defs>
    <style>
      .st0 {
        fill: #5c5e61;
      }

      .st1 {
        fill: #010101;
      }

      .st2 {
        fill: #ffdb7a;
      }

      .st3 {
        fill: #fec726;
      }

      .st4 {
        fill: #e1c875;
      }

      .st5 {
        fill: #79c143;
      }

      .st6 {
        fill: #fccdb1;
      }

      .st7 {
        fill: #828183;
      }

      .st8 {
        fill: #f386a4;
      }

      .st9 {
        fill: #5ccbee;
      }

      .st10 {
        fill: #d7e7f2;
      }

      .st11 {
        fill: #f0597c;
      }
    </style>
  </defs>
  <path class="st6" d="M1268.26,1525c-.87,0-1.73.07-2.56.21.06.86.1,1.72.1,2.59v26.44c0,.87-.04,1.72-.1,2.57.84.13,1.69.22,2.56.22,8.85,0,16.02-7.17,16.02-16.02s-7.17-16.02-16.02-16.02Z"/>
  <path class="st6" d="M1189.08,1527.79c0-.87.04-1.73.1-2.59-.83-.13-1.69-.21-2.56-.21-8.85,0-16.02,7.17-16.02,16.02s7.17,16.02,16.02,16.02c.87,0,1.72-.09,2.56-.22-.06-.85-.1-1.71-.1-2.57v-26.44Z"/>
  <path class="st6" d="M1265.8,1519.46c-.02-1.09-.89-1.98-1.98-2.02-15.94-.47-24.33-6.78-27.56-9.95-.88-.86-2.3-.77-3.07.19-14.01,17.62-34.68,15.13-41.63,13.68-1.26-.26-2.47.69-2.48,1.98v30.88c0,21.1,17.26,38.36,38.36,38.36h0c21.1,0,38.36-17.26,38.36-38.36v-34.17c0-.2,0-.4,0-.6Z"/>
  <path class="st0" d="M1257.46,1478.77c-4.09,0-7.91,1.16-11.19,3.12-3.84-6.4-10.82-10.72-18.79-10.72h-11.25c-21.78,0-39.59,17.82-39.59,39.59v17.74c2.74-2.19,6.21-3.51,9.99-3.51.84,0,1.66.07,2.46.2v-1.84c0-1.29,1.21-2.24,2.48-1.98,6.95,1.45,27.62,3.94,41.63-13.68.77-.97,2.19-1.06,3.07-.19,3.23,3.16,11.62,9.48,27.56,9.95,1.09.03,1.96.93,1.98,2.02,0,.2,0,.4,0,.6v5.13c.8-.12,1.62-.2,2.46-.2,4.32,0,8.23,1.72,11.11,4.49v-28.81c0-12.05-9.86-21.91-21.91-21.91Z"/>
  <path class="st4" d="M1310.15,1632.89c-.37-6.61-4.99-12.22-11.42-13.84l-28.1-5.88c-13.43,16.1-40.62,18.19-42.57,18.32,0,0,0,0,0,0,0,0-.03,0-.06,0-.03,0-.06,0-.06,0,0,0,0,0,0,0-1.95-.13-29.14-2.22-42.57-18.32l-28.1,5.88c-6.42,1.62-11.05,7.22-11.42,13.84l-.66,18.26c4.88-2.57,10.44-4.02,16.34-4.02,19.43,0,35.18,15.75,35.18,35.18s-15.75,35.18-35.18,35.18h147.34c2.42,0,4.34-2.03,4.2-4.44l-2.92-80.16Z"/>
  <path class="st6" d="M1251.4,1605.54c-3.51-1.73-5.72-5.3-5.72-9.21v-8.39c-5.43,2.96-11.64,4.64-18.23,4.64h0c-6.14,0-11.95-1.47-17.11-4.07v7.81c0,3.91-2.22,7.48-5.72,9.21l-.69.34c2.72,5.63,8.6,11.9,19.89,18.33,1.64.93,2.88,2.37,3.59,4.05.23.55.98.55,1.21,0,.7-1.68,1.95-3.12,3.59-4.05,11.29-6.42,17.17-12.7,19.89-18.33l-.69-.34Z"/>
  <path class="st4" d="M1259.38,1575.4c-2.6,3.91-5.9,7.31-9.72,10.04,4.24,5.44,12.75,21.58-17.47,38.77-1.64.93-2.88,2.37-3.59,4.05-.23.55-.98.55-1.21,0-.7-1.68-1.95-3.12-3.59-4.05-29.32-16.68-22.19-32.37-17.86-38.26-3.97-2.71-7.41-6.14-10.14-10.1-10.49,5.99-24.59,18.08-11.75,35.65,12.88,17.63,41.87,19.86,43.88,19.99,0,0,0,0,0,0,0,0,.03,0,.06,0,.03,0,.06,0,.06,0,0,0,0,0,0,0,2.01-.13,31-2.36,43.88-19.99,13.17-18.02-2-30.28-12.56-36.1Z"/>
  <path class="st4" d="M1205.95,1585.95c-2.66,3.62-6.37,10.95-2.02,19.93l.68-.34c3.51-1.73,5.72-5.3,5.72-9.21v-7.81c-1.52-.76-2.99-1.62-4.38-2.57Z"/>
  <path class="st4" d="M1249.67,1585.44c-1.28.91-2.61,1.76-4,2.52,0,0,0,0,0,0v8.39c0,3.91,2.22,7.48,5.72,9.21l.67.33c4.55-9.43.26-17.03-2.4-20.44Z"/>
  <path class="st8" d="M1266.09,1658.34c-.17-.65-.75-1.11-1.42-1.11h-12.61c-.67,0-1.24.46-1.42,1.11-.32,1.19-.49,2.44-.49,3.73,0,5.48,3.05,10.24,7.54,12.7.42.23.93.23,1.35,0,4.49-2.46,7.54-7.22,7.54-12.7,0-1.29-.17-2.54-.49-3.73Z"/>
  <path class="st3" d="M1232.36,1580.98h-8.71c-2.94,0-5.32,2.38-5.32,5.32s2.38,5.32,5.32,5.32h8.71c2.94,0,5.32-2.38,5.32-5.32s-2.38-5.32-5.32-5.32Z"/>
  <path class="st3" d="M1233.82,1570.09c-1.79.77-3.76,1.19-5.82,1.19s-4.04-.43-5.82-1.19c-.1.31-.16.64-.16.99v10.15c.52-.17,1.06-.26,1.63-.26h8.71c.57,0,1.12.09,1.63.26v-10.15c0-.35-.07-.67-.16-.99Z"/>
  <circle class="st1" cx="1212.72" cy="1543.02" r="5.08"/>
  <path class="st1" d="M1242.64,1537.94c-2.8,0-5.08,2.27-5.08,5.08s2.27,5.08,5.08,5.08,5.08-2.27,5.08-5.08-2.27-5.08-5.08-5.08Z"/>
  <path class="st11" d="M1294.15,1577.05c-2.4-.45-4.29-2.3-4.75-4.65-.02-.12-.19-.12-.21,0-.46,2.35-2.35,4.21-4.75,4.65-.12.02-.12.18,0,.21,2.4.45,4.29,2.3,4.75,4.65.02.12.19.12.21,0,.46-2.35,2.35-4.21,4.75-4.65.12-.02.12-.18,0-.21Z"/>
  <path class="st3" d="M1161.7,1592.19c-4.5-.84-8.04-4.31-8.9-8.72-.04-.22-.35-.22-.39,0-.86,4.41-4.4,7.88-8.9,8.72-.23.04-.23.34,0,.39,4.5.84,8.04,4.31,8.9,8.72.04.22.35.22.39,0,.86-4.41,4.4-7.88,8.9-8.72.23-.04.23-.34,0-.39Z"/>
  <path class="st3" d="M1296.66,1497.25c-1.87,0-3.38,1.51-3.38,3.38s1.51,3.38,3.38,3.38,3.38-1.51,3.38-3.38-1.51-3.38-3.38-3.38Z"/>
  <path class="st9" d="M1135.66,1613.25c-1.87,0-3.38,1.51-3.38,3.38s1.51,3.38,3.38,3.38,3.38-1.51,3.38-3.38-1.51-3.38-3.38-3.38Z"/>
  <path class="st5" d="M1325.66,1638.25c-1.87,0-3.38,1.51-3.38,3.38s1.51,3.38,3.38,3.38,3.38-1.51,3.38-3.38-1.51-3.38-3.38-3.38Z"/>
  <circle class="st10" cx="1161.53" cy="1682.32" r="35.18"/>
  <path class="st7" d="M1195.02,1671.55h-2.41c-.43,0-.83.23-1.04.6l-5.52,9.57c-.21.37-.21.83,0,1.2l5.52,9.57c.21.37.61.6,1.04.6h2.41c1.09-3.39,1.69-7.01,1.69-10.77s-.59-7.37-1.69-10.77Z"/>
  <path class="st7" d="M1137,1681.71l-5.52-9.57c-.21-.37-.61-.6-1.04-.6h-2.41c-1.09,3.39-1.69,7.01-1.69,10.77s.59,7.37,1.69,10.77h2.41c.43,0,.83-.23,1.04-.6l5.52-9.57c.21-.37.21-.83,0-1.2Z"/>
  <path class="st7" d="M1168.95,1647.92l-1.2,2.08c-.21.37-.21.83,0,1.2l5.52,9.57c.21.37.61.6,1.04.6h11.04c.43,0,.83-.23,1.04-.6l1.2-2.08c-4.85-5.35-11.33-9.2-18.65-10.77Z"/>
  <path class="st7" d="M1155.31,1713.42l-5.52-9.56c-.21-.37-.61-.6-1.04-.6h-11.04c-.43,0-.83.23-1.04.6l-1.2,2.08c4.85,5.35,11.33,9.2,18.65,10.77l1.2-2.08c.21-.37.21-.83,0-1.2Z"/>
  <path class="st7" d="M1173.61,1681.71l-5.52-9.56c-.21-.37-.61-.6-1.04-.6h-11.04c-.43,0-.83.23-1.04.6l-5.52,9.56c-.21.37-.21.83,0,1.2l5.52,9.57c.21.37.61.6,1.04.6h11.04c.43,0,.83-.23,1.04-.6l5.52-9.57c.21-.37.21-.83,0-1.2Z"/>
  <path class="st7" d="M1155.31,1650.01l-1.2-2.08c-7.32,1.57-13.8,5.42-18.65,10.77l1.2,2.08c.22.37.61.6,1.04.6h11.04c.43,0,.83-.23,1.04-.6l5.52-9.57c.21-.37.21-.83,0-1.2Z"/>
  <path class="st7" d="M1186.4,1703.86c-.22-.37-.61-.6-1.04-.6h-11.04c-.43,0-.83.23-1.04.6l-5.52,9.56c-.21.37-.21.83,0,1.2l1.2,2.08c7.32-1.57,13.8-5.42,18.65-10.77l-1.2-2.08Z"/>
  <path class="st1" d="M1315.56,1712.97l-2.92-80.16s0-.03,0-.05c-.43-7.75-5.78-14.23-13.3-16.12-.03,0-.07-.02-.1-.02l-24.28-5.08c9.78-14.76,3.12-27.75-12.09-36.99,2.61-4.54,4.37-9.62,5.07-15.03,16.26.32,24.9-19.09,13.92-31.01v-27.82c0-17.87-18.68-29.71-34.79-22.06-4.59-6.19-11.9-9.95-19.61-9.95h-11.25c-23.21,0-42.09,18.88-42.09,42.09v16.62c-3.69,3.39-6.02,8.23-6.02,13.63,0,10.31,8.48,18.7,18.83,18.5.73,5.61,2.59,10.87,5.37,15.54-14.64,9.22-20.87,22-11.27,36.48l-24.28,5.08s-.07.01-.1.02c-7.53,1.89-12.87,8.37-13.31,16.17l-.61,16.83c-11.6,6.68-18.9,19.2-18.9,32.68,0,20.94,17.05,37.68,37.68,37.68h147.34c3.91,0,6.91-3.32,6.7-7.03ZM1245.19,1625.65v-.59c0-1.38-1.12-2.5-2.5-2.5s-2.5,1.12-2.5,2.5v1.94c-3.15.74-6.06,1.27-8.98,1.65.35-.63.83-1.24,1.48-1.76,1.49-1.18,34.75-18.02,20.42-40.89,2.63-2.13,4.99-4.57,7.03-7.28,28.16,16.95,10.63,39.13-14.94,46.93ZM1248.17,1589.42c.29-.17.57-.34.85-.52,2.47,4.07,3.25,8.62,1.82,13.28-4.23-3.67-2.12-8.77-2.67-12.77ZM1281.78,1541.01c0,7.44-6.04,13.5-13.48,13.52,0-.8,0-26.93,0-27.03,7.44.02,13.48,6.11,13.48,13.51ZM1173.11,1541.01c0-7.5,6.16-13.49,13.48-13.51,0,18,0,24.31-.01,26.25,0-.1,0,.03.02.77-7.43-.02-13.48-6.08-13.48-13.52ZM1186.67,1522.5c-2.52,0-5.04.49-7.54,1.59v-13.32c0-20.45,16.64-37.09,37.09-37.09h11.25c6.75,0,13.13,3.64,16.65,9.51.71,1.19,2.25,1.57,3.43.86,12.89-7.73,29.32,1.63,29.32,16.64v23.94c-2.73-1.44-5.74-2.12-8.57-2.12v-2.44c0-3.34-2.09-5.05-4.41-5.12-9.18-.27-19.47-2.95-25.88-9.23-1.96-1.92-5.1-1.68-6.78.42-12.91,16.24-31.69,14.35-39.16,12.79-2.56-.53-4.94,1.17-5.4,3.57ZM1191.58,1554.23c0-.1.03-29.6,0-29.7v-.61c16.09,3.15,32.67-1.26,43.27-14.31,7.42,7.02,18.24,9.95,28.45,10.31v4.61c-.03.1,0,29.59,0,29.7,0,15.23-9.66,28.41-23.27,33.55.09-.48.14-.97.14-1.48,0-2.8-1.48-5.25-3.69-6.63v-8.11c2.32-1.3,4.34-3.14,5.88-5.41.77-1.14.47-2.7-.67-3.47-1.14-.77-2.7-.47-3.47.67-4.89,7.24-15.59,7.2-20.46,0-.77-1.14-2.33-1.44-3.47-.67-1.14.77-1.45,2.33-.67,3.47,1.54,2.28,3.56,4.11,5.88,5.41v8.11c-2.21,1.38-3.69,3.83-3.69,6.63,0,.66.09,1.3.25,1.91-14.54-4.93-24.48-18.51-24.48-33.98ZM1232.36,1583.48c1.48,0,2.82,1.22,2.82,2.82s-1.27,2.82-2.82,2.82h-8.71c-1.56,0-2.82-1.27-2.82-2.82s1.34-2.82,2.82-2.82h8.71ZM1224.51,1578.48v-5.04c2.35.48,4.82.44,6.98,0v5.04h-6.98ZM1205.15,1602.2c-1.63-5.31-.16-9.79,1.54-12.79.38.22.76.45,1.14.66-.36,4.22,1.24,8.76-2.68,12.13ZM1195.12,1579.18c2.15,2.78,4.64,5.27,7.42,7.41-7.69,13.04-.36,25.52,11.88,34.53,7.23,5.33,8.89,4.87,10.37,7.53-3-.39-5.95-.93-8.98-1.65v-1.94c0-3.3-5-3.31-5,0v.59c-9.43-2.87-18.96-7.73-24.73-15.62-9.11-12.47-4.06-22.67,9.04-30.85ZM1152.61,1650.88l-4.62,8h-9.21c3.79-3.67,8.51-6.49,13.83-8ZM1157.88,1649.84c1.33-.15,2.58-.21,3.64-.21,0,0,0,0,0,0,1.23,0,2.45.07,3.65.21-.19.88-.06,1.82.41,2.62l5.15,8.92-4.43,7.67h-9.55l-4.43-7.67,5.15-8.92c.46-.8.59-1.74.41-2.62ZM1175.4,1684.82h8.86l5.15,8.92c.46.8,1.21,1.38,2.06,1.66-.97,2.22-2.11,4.23-3.65,6.31-.67-.6-1.54-.95-2.46-.95h-10.3l-4.43-7.67,4.77-8.27ZM1166.3,1690.58h-9.55l-4.77-8.27,4.77-8.27h9.55l4.77,8.27-4.77,8.27ZM1188.59,1682.32l4.62-8.01c.63,2.48,1,5.34,1,8.01s-.37,5.55-1,8.01l-4.62-8.01ZM1189.41,1670.89h0s-5.15,8.92-5.15,8.92h-8.86l-4.77-8.27,4.43-7.67h10.3c.92,0,1.79-.35,2.46-.95,1.56,2.11,2.69,4.13,3.65,6.31-.85.28-1.6.86-2.06,1.66ZM1175.06,1658.88l-4.62-8c5.37,1.52,10.07,4.35,13.83,8h-9.21ZM1135.23,1662.93c.67.6,1.54.95,2.46.95h10.3l4.43,7.67-4.77,8.27h-8.86l-5.15-8.92h0c-.46-.8-1.21-1.38-2.06-1.66.98-2.25,2.21-4.36,3.65-6.31ZM1129.84,1674.31l4.62,8.01-4.62,8.01c-1.33-5.26-1.3-10.85,0-16.02ZM1135.23,1701.7c-1.44-1.95-2.67-4.07-3.65-6.31.85-.28,1.6-.86,2.06-1.66l5.15-8.92h8.86l4.77,8.27-4.43,7.67h-10.3c-.92,0-1.79.35-2.46.95ZM1138.78,1705.75h9.21l4.62,8c-5.23-1.49-9.97-4.25-13.83-8ZM1165.17,1714.79c-1.2.13-2.41.21-3.65.21s-2.45-.07-3.65-.21c.19-.88.06-1.82-.41-2.62l-5.15-8.92,4.43-7.67h9.55l4.43,7.67-5.15,8.92c-.46.8-.59,1.74-.41,2.62ZM1175.06,1705.75h9.21c-3.84,3.72-8.57,6.51-13.83,8l4.62-8ZM1225.5,1715h-45.2c11.31-6.5,18.91-18.87,18.91-32.68,0-20.78-16.88-37.68-37.68-37.68h0c-4.72,0-9.47.93-13.69,2.57l.52-14.17c.31-5.54,4.12-10.17,9.49-11.54l26.61-5.57c6.81,7.53,16.68,12.22,26.36,14.98v28.13c0,1.38,1.12,2.5,2.5,2.5s2.5-1.12,2.5-2.5v-26.87c4.07.91,7.51,1.38,9.69,1.62v81.22ZM1228,1624.5c-.83-.99-1.83-1.83-2.95-2.47-6.48-3.68-13.79-8.83-17.74-15.18,6.03-4.14,5.33-9.54,5.52-14.48,9.59,3.68,20.49,3.69,30.34-.44.02,3.43-1.07,10.44,5.52,14.92-3.94,6.34-11.25,11.49-17.74,15.18-1.13.64-2.13,1.48-2.96,2.47ZM1308.86,1715h-29.14v-51.65c0-1.38-1.12-2.5-2.5-2.5s-2.5,1.12-2.5,2.5v51.65h-44.22v-81.22c2.19-.24,5.61-.71,9.69-1.61v26.86c0,1.38,1.12,2.5,2.5,2.5s2.5-1.12,2.5-2.5v-28.13c9.76-2.78,19.61-7.51,26.36-14.98l26.61,5.57c5.36,1.37,9.17,5.99,9.49,11.52l2.92,80.19c.05.98-.73,1.8-1.71,1.8ZM1186.57,1553.75c0,.22,0,1.61,0,0h0Z"/>
  <path class="st1" d="M1268.51,1657.7c-.47-1.74-2.04-2.96-3.83-2.96h-12.61c-1.79,0-3.37,1.22-3.83,2.96-2.01,7.48,1.33,15.47,8.26,19.27,1.16.63,2.59.64,3.75,0,6.92-3.79,10.27-11.78,8.26-19.27ZM1258.37,1672.27c-4.24-2.61-6.47-7.59-5.48-12.54h10.97c.98,4.91-1.22,9.91-5.48,12.54Z"/>
  <circle class="st4" cx="162.38" cy="88.72" r="84.37"/>
  <polygon class="st2" points="183.46 67.64 154.66 59.92 133.58 81 141.29 109.81 170.1 117.52 191.18 96.44 183.46 67.64"/>
  <path class="st2" d="M222.04,29.06c-6.37-6.37-13.51-11.5-21.12-15.4l-4.08,4.08c-.73.73-1.01,1.79-.75,2.79l6.86,25.58c.27,1,1.04,1.77,2.04,2.04l25.58,6.86c1,.27,2.06-.02,2.79-.75l4.08-4.08c-3.91-7.61-9.03-14.75-15.4-21.12Z"/>
  <path class="st2" d="M128.66,156.91l-6.86-25.58c-.27-1-1.04-1.77-2.04-2.04l-25.58-6.86c-1-.27-2.06.02-2.79.75l-4.08,4.08c3.91,7.61,9.03,14.75,15.4,21.12s13.51,11.5,21.12,15.4l4.08-4.08c.73-.73,1.01-1.79.75-2.79Z"/>
  <path class="st2" d="M168.02,10.02l-1.49-5.57c-17.3-.85-34.81,3.62-49.89,13.36l1.49,5.57c.27,1,1.04,1.77,2.04,2.04l25.58,6.86c1,.27,2.06-.02,2.79-.75l18.73-18.73c.73-.73,1.01-1.79.75-2.79Z"/>
  <path class="st2" d="M206.62,154.05c-.27-1-1.04-1.77-2.04-2.04l-25.58-6.86c-1-.27-2.06.02-2.79.75l-18.73,18.73c-.73.73-1.01,1.79-.75,2.79l1.49,5.57c17.3.85,34.81-3.62,49.89-13.36l-1.49-5.57Z"/>
  <path class="st2" d="M105.94,72.1l-6.86-25.58c-.27-1-1.04-1.77-2.04-2.04l-5.57-1.49c-9.75,15.08-14.21,32.59-13.36,49.89l5.57,1.49c1,.27,2.06-.02,2.79-.75l18.73-18.73c.73-.73,1.01-1.79.75-2.79Z"/>
  <path class="st2" d="M246.65,84.57l-5.57-1.49c-1-.27-2.06.02-2.79.75l-18.73,18.73c-.73.73-1.01,1.79-.75,2.79l6.86,25.58c.27,1,1.04,1.77,2.04,2.04l5.57,1.49c9.75-15.08,14.21-32.59,13.36-49.89Z"/>
  <path class="st9" d="M22.05,186.66h-2.33v-2.33c0-1.74-1.41-3.16-3.16-3.16s-3.16,1.41-3.16,3.16v2.33h-2.33c-1.74,0-3.16,1.41-3.16,3.16s1.41,3.16,3.16,3.16h2.33v2.33c0,1.74,1.41,3.16,3.16,3.16s3.16-1.41,3.16-3.16v-2.33h2.33c1.74,0,3.16-1.41,3.16-3.16s-1.41-3.16-3.16-3.16Z"/>
  <circle class="st5" cx="225.35" cy="173.55" r="3.38"/>
  <circle class="st3" cx="85.35" cy="228.55" r="3.38"/>
  <path class="st11" d="M48.41,228.31h.33c-.04-.18-.29-.18-.33,0Z"/>
  <path class="st1" d="M166.65,1.95C124.72-.1,101.02,27.27,100.89,27.35L31.04,97.2c-.98.98-.98,2.56,0,3.54.98.98,2.56.98,3.54,0l49.28-49.28c-5.94,12.48-8.84,26.42-8.26,41.06-.49.31,1.49-1.55-32.61,32.52-.98.98-.98,2.56,0,3.54.98.98,2.56.98,3.54,0l29.6-29.6c1.04,8.93,3.44,17.54,7.1,25.61l-47.84,47.84c-.98.98-.98,2.56,0,3.54.98.98,2.56.98,3.54,0l46.62-46.62c3.64,6.86,8.37,13.4,13.68,19.03l-62.56,62.56c-.98.98-.98,2.56,0,3.54.98.98,2.56.98,3.54,0l62.56-62.56c5.65,5.33,12.16,10.04,19.03,13.68l-54.19,54.19c-.98.98-.98,2.56,0,3.54.98.98,2.56.98,3.54,0l55.41-55.41c8.07,3.66,16.68,6.06,25.61,7.1l-29.6,29.6c-.98.98-.98,2.56,0,3.54.98.98,2.56.98,3.54,0,34.33-34.37,32.21-32.12,32.52-32.61,14.65.63,28.81-2.43,41.06-8.26l-49.28,49.28c-.98.98-.98,2.56,0,3.54.98.98,2.56.98,3.54,0,14.83-14.84,24.77-24.77,31.2-31.2-6.08,6.08-5.39,5.39,38.71-38.71C277.19,96.77,241.26,5.61,166.65,1.95ZM236.73,54.43c3.93,8.54,6.3,17.61,7.14,26.8l-2.14-.57c-1.85-.5-3.85.04-5.2,1.39l-18.73,18.73c-.05.05-.09.11-.14.16l-24.43-6.55-6.97-26.01,17.67-17.67c.07-.07.12-.15.19-.23.08.03.15.06.23.08l25.58,6.85c.46.12.92.18,1.39.18,1.41,0,2.79-.56,3.81-1.58l1.6-1.6ZM188.39,95.69l-19.04,19.04-26.01-6.97-6.95-25.95s.02-.04.02-.06c0-.02,0-.04,0-.06l18.95-18.95s.04,0,.06,0c.02,0,.04-.02.06-.02l25.88,6.93s.02.03.04.05c.01.01.03.02.05.04l6.95,25.95ZM198.61,19.51l2.77-2.77c13.78,7.46,25.35,18.88,32.99,32.98l-2.77,2.77c-.1.1-.24.14-.37.1l-25.58-6.85c-.13-.04-.24-.14-.27-.27l-6.85-25.58c-.04-.13,0-.28.1-.37ZM169.04,14.58c1.36-1.36,1.89-3.35,1.4-5.2l-.57-2.14c9.19.84,18.27,3.22,26.8,7.14l-1.6,1.6c-1.36,1.36-1.89,3.35-1.39,5.2h0s6.86,25.59,6.86,25.59c.02.08.05.15.08.23-.08.06-.16.11-.23.19l-17.67,17.67-26.01-6.97-6.47-24.13c-.03-.1-.07-.19-.11-.28.06-.06.13-.1.19-.15l18.73-18.73ZM164.61,6.94l1,3.73c.04.13,0,.28-.1.37l-18.73,18.73c-.1.1-.24.13-.37.1l-25.58-6.86c-.13-.04-.24-.14-.27-.27l-1.01-3.78c13.36-8.2,28.79-12.47,45.07-12.03ZM115.14,21.87l.58,2.17c.5,1.85,1.96,3.31,3.81,3.81l25.58,6.86c.08.02.16.03.24.05.01.1.02.19.05.29l6.47,24.14-19.04,19.04-24.14-6.47c-.1-.03-.19-.03-.29-.05-.02-.08-.03-.16-.05-.24l-6.86-25.58c-.5-1.85-1.96-3.31-3.81-3.81l-2.18-.58c5.38-7.58,11.77-14.05,19.63-19.62ZM92.6,45.88l3.79,1.02c.13.04.24.14.27.27l6.86,25.58c.04.13,0,.28-.1.37l-18.73,18.73c-.1.1-.24.14-.37.1l-3.77-1.01c-.44-16.49,3.92-31.88,12.05-45.06ZM88.01,123.03c-3.88-8.41-6.31-17.45-7.16-26.84l2.18.58c1.84.49,3.84-.03,5.2-1.39l18.73-18.73c.06-.06.11-.13.16-.19.09.04.18.08.27.1l24.14,6.47,6.97,26.01-17.88,17.88c-.07-.02-.13-.05-.2-.07l-25.58-6.86h0c-1.85-.5-3.84.04-5.2,1.39l-1.62,1.62ZM126.15,157.93l-2.78,2.78c-14.26-7.73-25.65-19.46-32.98-32.98l2.78-2.78c.1-.1.24-.14.37-.1l25.59,6.86c.13.04.24.14.27.27l6.86,25.58c.04.13,0,.28-.1.37ZM155.71,162.87c-1.36,1.36-1.89,3.35-1.39,5.2l.58,2.18c-9.38-.84-18.43-3.27-26.84-7.16l1.62-1.62c1.36-1.36,1.89-3.35,1.39-5.2l-6.86-25.58c-.02-.07-.05-.14-.07-.2l17.88-17.88,26.01,6.97,6.55,24.43c-.05.05-.11.09-.16.14l-18.73,18.73ZM160.16,170.54l-1.01-3.77c-.04-.13,0-.28.1-.37l18.73-18.73c.1-.1.24-.14.37-.1h0s25.58,6.85,25.58,6.85c.13.04.24.14.27.27l1.02,3.8c-13.24,8.15-28.63,12.48-45.06,12.05ZM220.27,146.61c-3.32,3.32-6.9,6.31-10.65,8.97l-.58-2.18c-.5-1.85-1.96-3.31-3.81-3.81l-25.58-6.85c-.07-.02-.14-.03-.21-.04l-6.55-24.43,19.04-19.04,24.43,6.55c.02.07.02.14.04.21l6.86,25.59c.5,1.85,1.96,3.31,3.81,3.81l2.17.58c-2.64,3.74-5.62,7.31-8.96,10.66ZM228.36,130.55c-.13-.04-.24-.14-.27-.27l-6.86-25.59c-.04-.13,0-.27.1-.37l18.73-18.73c.07-.07.17-.11.27-.11.03,0,.07,0,.1.01l3.73,1c.42,15.71-3.58,31.33-12.03,45.07l-3.78-1.01Z"/>
  <path class="st1" d="M36.5,135.05c-.98-.98-2.56-.98-3.54,0l-9.64,9.64c-.98.98-.98,2.56,0,3.54.98.98,2.56.98,3.54,0l9.64-9.64c.98-.98.98-2.56,0-3.54Z"/>
  <path class="st1" d="M116.05,214.6c-.98-.98-2.56-.98-3.54,0l-9.64,9.64c-.98.98-.98,2.56,0,3.54.98.98,2.56.98,3.54,0l9.64-9.64c.98-.98.98-2.56,0-3.54Z"/>
</svg>