<?xml version="1.0" encoding="UTF-8"?>
<svg id="Layer_1" xmlns="http://www.w3.org/2000/svg" version="1.1" viewBox="0 0 257.22 237.66">
  <!-- Generator: Adobe Illustrator 30.0.0, SVG Export Plug-In . SVG Version: 2.1.1 Build 123)  -->
  <defs>
    <style>
      .st0 {
        fill: #5c5e61;
      }

      .st1 {
        fill: #a8d15d;
      }

      .st2 {
        fill: #f4b11b;
      }

      .st3 {
        fill: #010101;
      }

      .st4 {
        fill: #ffdb7a;
      }

      .st5 {
        fill: #fec726;
      }

      .st6 {
        fill: #e1c875;
      }

      .st7 {
        fill: #fccdb1;
      }

      .st8 {
        fill: #f386a4;
      }

      .st9 {
        fill: #5ccbee;
      }

      .st10 {
        fill: #172841;
      }

      .st11 {
        fill: #f0597c;
      }
    </style>
  </defs>
  <path class="st5" d="M188.68,171c-4.18-.78-7.47-4-8.26-8.09-.04-.21-.33-.21-.37,0-.79,4.09-4.08,7.31-8.26,8.09-.21.04-.21.32,0,.36,4.18.78,7.47,4,8.26,8.09.04.21.33.21.37,0,.79-4.09,4.08-7.31,8.26-8.09.21-.04.21-.32,0-.36Z"/>
  <path class="st1" d="M72.68,106.78c-2.9-.54-5.19-2.78-5.74-5.62-.03-.14-.23-.14-.25,0-.55,2.84-2.84,5.08-5.74,5.62-.15.03-.15.22,0,.25,2.9.54,5.19,2.78,5.74,5.62.03.14.23.14.25,0,.55-2.84,2.84-5.08,5.74-5.62.15-.03.15-.22,0-.25Z"/>
  <path class="st9" d="M80.28,12.75h-2.16v-2.16c0-1.62-1.31-2.93-2.93-2.93s-2.93,1.31-2.93,2.93v2.16h-2.16c-1.62,0-2.93,1.31-2.93,2.93s1.31,2.93,2.93,2.93h2.16v2.16c0,1.62,1.31,2.93,2.93,2.93s2.93-1.31,2.93-2.93v-2.16h2.16c1.62,0,2.93-1.31,2.93-2.93s-1.31-2.93-2.93-2.93Z"/>
  <circle class="st9" cx="149.65" cy="75.78" r="3.14"/>
  <circle class="st11" cx="175.64" cy="193.68" r="3.14"/>
  <circle class="st5" cx="95.8" cy="3.14" r="3.14"/>
  <path class="st6" d="M187.51,116.7l-31.05-19.54c-1.66-1.05-3.58-1.6-5.55-1.6h-25.75c-1.13,0-2.16.66-2.62,1.69-9.67,21.21-23.54,14.47-28.26,11.32-1.04-.69-2.4-.62-3.38.16l-19.4,15.52c-1.59,1.27-2.77,2.98-3.4,4.92l-10.79,33.21c-.18.55.15,1.13.71,1.27l24.87,6.1c.48.12.97-.13,1.15-.59l5.97-14.75c.83-2.22,4.03-2,4.57.32,4.73,20.04,5.09,41.01,5.12,44.14,0,.21.19.37.4.34l58.18-9.31c.19-.03.32-.21.29-.4l-8.85-55.28c-.23-1.45,1.21-2.6,2.57-2.06l18.57,7.43c1.13.45,2.42.1,3.17-.85l14.17-18.03c1-1.28.68-3.14-.69-4Z"/>
  <path class="st2" d="M66.32,134.65l-6.13,18.89c1.55.94,3.35,1.49,5.3,1.49,5.64,0,10.21-4.57,10.21-10.21s-4.13-9.74-9.38-10.17Z"/>
  <path class="st9" d="M170.8,106.19l-5.62,7.69c-1.51,2.07-1.06,4.97,1.01,6.49.83.6,1.78.89,2.73.89,1.43,0,2.84-.66,3.75-1.9l6-8.21-7.88-4.96Z"/>
  <path class="st10" d="M170.05,232.84c-4.52-18.36-9.95-34.94-13.21-42.72l-55.41,8.87c-5.43,11.2-12.87,23.64-19.41,33.2-.91,1.34.05,3.15,1.67,3.15h36.88c.81,0,1.54-.48,1.86-1.23l4.01-9.46c.37-.88,1.65-.82,1.94.09l2.88,9.18c.26.84,1.04,1.41,1.92,1.41h34.92c1.31,0,2.27-1.23,1.96-2.49Z"/>
  <path class="st10" d="M133.96,143.54c-.18.03-.37.03-.55-.03-4.17-1.24-7.56-4.65-8.54-9.21-.23-1.07-.31-2.14-.26-3.19.03-.57.42-1.05.98-1.17l5.41-1.17c-1.24-5.65-2.62-11.35-4.15-17.03l-.54-2.02c-4.35,6.91-12.03,11.5-20.79,11.5-1.73,0-3.41-.18-5.04-.52,7.57,28.7,10.99,58.53,12.48,76.43l27.54-4.41c-1.1-12.76-3.07-30.25-6.54-49.2Z"/>
  <path class="st8" d="M138.52,131.36c-.23-1.07-.6-2.08-1.08-3.01-.26-.51-.82-.78-1.38-.66l-10.48,2.26c-.56.12-.95.6-.98,1.17-.05,1.05.03,2.11.26,3.19.98,4.56,4.37,7.97,8.54,9.21.39.12.82.02,1.12-.24,3.29-2.85,4.98-7.35,3.99-11.91Z"/>
  <path class="st0" d="M130.04,95.56h-4.88c-1.13,0-2.16.66-2.62,1.69-9.67,21.21-23.54,14.47-28.26,11.32-1.04-.69-2.4-.62-3.38.16l-4.38,3.51c4.5,5.49,11.34,9,19,9,13.56,0,24.55-10.99,24.55-24.55,0-.38-.01-.75-.03-1.12Z"/>
  <path class="st7" d="M242.81,111.13c-3.38-3.84-9.23-4.22-13.08-.84l-25.38,22.3-17.52-10.14-11.57,14.72,25.56,14.8c1.45.84,3.05,1.25,4.64,1.25,2.2,0,4.38-.78,6.12-2.31l30.38-26.7c3.84-3.38,4.22-9.23.84-13.08Z"/>
  <path class="st7" d="M61.38,164.47l-7.54,19.05-31.92-1.9c-5.13-.29-9.5,3.59-9.8,8.7-.3,5.11,3.59,9.5,8.7,9.8l38.62,2.3c.19.01.37.02.55.02,3.78,0,7.21-2.31,8.61-5.86l10.95-27.66-18.17-4.45Z"/>
  <path class="st7" d="M117.4,90.36c-3.4,3.58-8.04,6.02-13.3,6.56-2.99.31-5.9-.02-8.61-.87.92,5.01.68,9.48-.06,13.23,5.46,3.21,17.79,7.52,26.74-11.27-2.06-2.31-3.61-5.03-4.77-7.66Z"/>
  <path class="st7" d="M132.78,64.87c-.07-.66-.21-1.3-.42-1.91-3.85-.63-7.53-2.19-10.68-4.59,0,.07.02.14.03.21l1.54,14.74c.05.48.08.96.1,1.44.47.03.95.03,1.44-.02,4.93-.51,8.51-4.93,8-9.86Z"/>
  <path class="st7" d="M80.49,77.77l-1.54-14.74c-.05-.49-.08-.97-.1-1.45-.47-.03-.95-.02-1.44.03-4.93.51-8.51,4.93-8,9.86.51,4.93,4.93,8.51,9.86,8,.49-.05.96-.15,1.41-.27-.08-.47-.15-.95-.2-1.43Z"/>
  <path class="st7" d="M123.25,73.31l-1.56-14.94c-1.94-1.48-3.68-3.28-5.14-5.38-6.78-.22-10.78-2.66-12.49-4.01-.54-.43-1.33-.3-1.7.29-6.78,10.63-18.45,10.45-22.41,10.04-.72-.07-1.34.53-1.26,1.25,0,0,0,0,0,.01l1.79,17.2c1.23,11.76,11.85,20.38,23.61,19.15,11.76-1.23,20.38-11.85,19.15-23.61Z"/>
  <path class="st0" d="M115.47,51.3c-3.55-6.14-4.06-13.21-2.01-19.45-1.98.33-3.78,1.14-5.31,2.29-2.51-3.35-6.66-5.35-11.1-4.89l-6.27.65c-12.14,1.27-21.03,12.23-19.77,24.37l1.03,9.89c1.4-1.38,3.26-2.32,5.37-2.54.47-.05.93-.06,1.38-.03l-.11-1.01s0,0,0-.01c-.07-.72.55-1.32,1.26-1.25,3.96.41,15.62.59,22.41-10.04.37-.58,1.16-.72,1.7-.29,1.71,1.36,5.71,3.8,12.49,4.01-.38-.55-.75-1.11-1.09-1.7Z"/>
  <circle class="st2" cx="136.21" cy="39.33" r="23.95" transform="translate(17.54 116.9) rotate(-49.28)"/>
  <path class="st4" d="M143.1,34.84l-6.45-3.72c-.27-.16-.61-.16-.88,0l-6.45,3.72c-.27.16-.44.45-.44.76v7.44c0,.32.17.61.44.76l6.45,3.72c.27.16.61.16.88,0l6.45-3.72c.27-.16.44-.45.44-.76v-7.44c0-.32-.17-.61-.44-.76Z"/>
  <path class="st4" d="M156.95,27.35c-1.28-2.22-2.86-4.14-4.66-5.77l-4.89,2.82c-.25.15-.41.42-.41.71v7.52c0,.29.16.56.41.71l6.51,3.76c.25.15.57.15.82,0l4.89-2.82c-.51-2.37-1.39-4.71-2.67-6.92Z"/>
  <path class="st4" d="M125.02,45.31l-6.51-3.76c-.25-.15-.57-.15-.82,0l-4.89,2.82c.51,2.37,1.39,4.71,2.67,6.92,1.28,2.22,2.86,4.14,4.66,5.77l4.89-2.82c.25-.15.41-.42.41-.71v-7.52c0-.29-.16-.56-.41-.71Z"/>
  <path class="st4" d="M133.98,20.81l-2.82-4.89c-2.37.51-4.71,1.39-6.92,2.67-2.22,1.28-4.14,2.86-5.77,4.66l2.82,4.89c.15.25.42.41.71.41h7.52c.29,0,.56-.16.71-.41l3.76-6.51c.15-.25.15-.57,0-.82Z"/>
  <path class="st4" d="M151.13,50.51c-.15-.25-.42-.41-.71-.41h-7.52c-.29,0-.56.16-.71.41l-3.76,6.51c-.15.25-.15.57,0,.82l2.82,4.89c2.37-.51,4.71-1.39,6.92-2.67,2.22-1.28,4.14-2.86,5.77-4.66l-2.82-4.89Z"/>
  <path class="st3" d="M244.55,109.59c-4.23-4.82-11.55-5.27-16.35-1.06l-24.13,21.2-13.78-7.98c1.55-2.4.81-5.54-1.55-7.02l-31.05-19.54c-2.03-1.28-4.38-1.96-6.78-1.96h-25.75c-1.1,0-2.14.36-3,.97-.71-1.05-1.38-2.2-2-3.46.06-.07.12-.14.18-.22,3.19-3.93,5.01-8.65,5.3-13.59,5.56-.89,9.61-5.77,9.5-11.37,20.39.88,34.22-21.36,23.82-39.38-11.1-19.22-39.46-16.63-47.25,3.67-1.08.29-2.13.71-3.12,1.24-3.09-3.05-7.42-4.63-11.77-4.17l-6.27.65c-13.42,1.4-23.24,13.49-21.84,26.92l.92,8.85s-.04.04-.06.07c-1.9,2.34-2.77,5.29-2.46,8.29.61,5.87,5.69,10.39,11.78,10.1,1.99,7.32,7.39,13.24,14.52,15.97.39,2.71.45,5.42.18,8.08-1.43-.25-2.94.1-4.14,1.06l-19.4,15.52c-1.95,1.56-3.39,3.64-4.16,6.01l-1.78,5.49h0s-6.13,18.89-6.13,18.89h0s-2.87,8.84-2.87,8.84c-.6,1.83.49,3.78,2.36,4.24l.78.19-5.94,15.02-30.25-1.8c-6.39-.35-11.87,4.51-12.25,10.88-.38,6.38,4.5,11.87,10.88,12.25l38.62,2.3c5.03.3,9.61-2.62,11.46-7.3l10.2-25.77,1.38.34c1.59.38,3.24-.46,3.86-1.98l5.97-14.75s.02-.07.03-.09c.02-.01.09,0,.13.07,4.72,19.99,5.04,41.27,5.06,43.63,0,.63.25,1.23.65,1.71-4.89,9.71-11.46,20.82-17.93,30.29-1.96,2.87.1,6.78,3.58,6.78h36.88c1.75,0,3.31-1.04,3.99-2.64l2.64-6.24,1.83,5.84c.57,1.82,2.23,3.04,4.14,3.04h34.92c2.81,0,4.89-2.64,4.21-5.37-4.19-17.03-9.12-32.34-12.37-40.7.78-.65,1.07-1.59.93-2.47l-8.73-54.54,17.87,7.15c2.06.82,4.46.18,5.84-1.56l23.82,13.79c4.28,2.48,9.7,1.97,13.45-1.32l30.38-26.7c4.8-4.22,5.29-11.53,1.05-16.35ZM175.34,111.79l-4.53,6.2c-.73,1-2.23,1.25-3.24.5-1.03-.75-1.27-2.2-.51-3.24l4.34-5.94,3.94,2.48ZM125.09,127.68c-1.57.34-2.73,1.71-2.81,3.33-.32,6.57,3.8,12.37,9.67,14.47,3.18,17.76,5.02,34.06,6.04,45.31l-22.94,3.67c-1.64-18.62-4.92-45.02-11.47-70.98.05,0,.1,0,.16,0,8.19.53,16.05-2.62,21.54-8.6,1.03,3.93,2.01,7.98,2.94,12.11l-3.13.67ZM135.72,130.14c1.54,3.7.71,8.04-2.23,10.94-3.96-1.45-6.45-5.11-6.57-9.04l8.8-1.9ZM123.11,52.67l-2.6,1.5c-1.31-1.39-2.04-2.43-3.03-4.03h0c-.82-1.43-1.5-3.01-1.99-4.64l2.61-1.5,5.01,2.89v5.78ZM125.47,72.26c-.36-3.45-.61-5.9-.98-9.41,1.86.92,4,1.67,5.96,2.11.45,3.3-1.71,6.49-4.98,7.3ZM142.39,60.05l-1.51-2.61,2.89-5.01h5.78l1.51,2.61c-2.55,2.39-5.49,4.06-8.67,5.01ZM154.24,51.25l-1.1-1.9c-.56-.97-1.6-1.57-2.72-1.57h-7.52c-1.12,0-2.16.6-2.72,1.57l-3.76,6.51s0,0,0,0c-.56.97-.56,2.17,0,3.14l1.1,1.91c-4.54.27-9.19-.88-13.25-3.56l1.9-1.09c.97-.56,1.57-1.6,1.57-2.72v-7.52c0-.18-.02-.35-.05-.52.13.11.27.22.43.3l6.51,3.76c.97.56,2.17.56,3.14,0l6.51-3.76c.97-.56,1.57-1.6,1.57-2.72v-7.52c0-.18-.02-.35-.05-.52.13.11.27.22.43.3l6.51,3.76c.97.56,2.17.56,3.14,0l1.9-1.1c.28,4.67-.97,9.34-3.55,13.24ZM131.2,42.22v-5.78l5.01-2.89,5.01,2.89v5.78l-5.01,2.89-5.01-2.89ZM149.31,25.98l2.6-1.5c2.4,2.54,4.06,5.43,5.02,8.67l-2.61,1.51-5.01-2.89v-5.78ZM130.03,18.6l1.51,2.61-2.89,5.01h-5.78s-1.5-2.6-1.5-2.6c2.53-2.38,5.43-4.06,8.67-5.02ZM115.35,33.62c.61-2.24,1.58-4.33,2.83-6.22l1.09,1.9c.56.97,1.6,1.57,2.72,1.57h7.52c1.12,0,2.16-.6,2.72-1.57l3.76-6.51c.56-.97.56-2.17,0-3.14l-1.11-1.91c4.51-.27,9.15.86,13.25,3.56l-1.9,1.1c-.97.56-1.57,1.6-1.57,2.72v7.52c0,.18.02.35.05.52-.13-.11-.27-.22-.43-.3l-6.51-3.76c-.97-.56-2.17-.56-3.14,0l-6.51,3.76c-.97.56-1.57,1.6-1.57,2.72v7.52c0,.18.02.35.05.52-.13-.11-.27-.22-.43-.3l-6.51-3.76c-.97-.56-2.17-.56-3.14,0l-1.9,1.1c-.14-2.35.09-4.72.72-7.02ZM71.73,71.24c-.35-3.33,1.81-6.33,5-7.13.03.29.32,3.09,1.36,13.09-3.25-.12-6.02-2.63-6.36-5.96ZM76.53,59.4c-.79.13-1.8.41-2.56.73l-.64-6.1c-1.13-10.87,6.83-20.69,17.7-21.82l6.27-.65c3.48-.36,6.91,1.19,9,3.97.77,1.03,2.23,1.23,3.25.46.22-.16.44-.32.67-.46-.76,5.1.03,10.17,2.06,14.63-2.24-.48-4.51-1.35-6.35-2.68-.75-.54-1.62-1.28-3.15-1.02-.97.16-1.83.73-2.36,1.56-5.98,9.37-16.12,9.4-20.21,8.98-1.73-.18-3.21.93-3.67,2.39ZM82.8,77.53c-1.63-15.79-1.55-14.48-1.61-15.8,8.93.42,17.27-2.88,22.44-10.19,3.35,2.26,7.7,3.44,11.69,3.72,1.22,1.61,2.61,3.06,4.15,4.33l1.46,13.97s0,0,0,.01c.98,9.44-5.18,18.26-14.44,20.56-11.28,2.84-22.5-5.06-23.7-16.6ZM98.24,99.08c6.28.98,13.07-.61,18.44-4.92.84,1.53,1.75,2.93,2.73,4.18-6.07,11.74-13.83,13.43-21.41,9.7.44-2.95.52-5.95.24-8.96ZM92.35,110.54c.19-.15.45-.17.64-.04,13.3,8.89,24.89,2.57,31.66-12.29.09-.2.29-.33.51-.33h2.55c-1.02,19.07-24.25,28.04-37.82,14.62l2.45-1.96ZM67.89,137.32c3.18,1.03,5.48,4.04,5.48,7.5,0,5.36-5.27,9.18-10.35,7.49l4.87-15ZM66.44,195.73c-1.11,2.8-3.88,4.55-6.87,4.38l-38.62-2.3c-3.82-.23-6.75-3.52-6.52-7.34.22-3.68,3.3-6.53,6.94-6.53.13,0,.27,0,.4.01l31.92,1.9c.99.07,1.93-.53,2.3-1.46l6.8-17.17,13.62,3.34-9.97,25.18ZM96.84,154.2c-1.07-4.56-7.38-4.94-8.98-.66l-5.53,13.68c-8.56-2.1-13.98-3.43-22.36-5.48l1.63-5.01c8.11,2.67,16.42-3.43,16.42-11.9,0-5.5-3.65-10.26-8.69-11.91l.98-3.03c.49-1.51,1.4-2.83,2.64-3.82l13.31-10.65c3.41,3.51,7.66,5.99,12.32,7.23,6.85,26.45,10.23,53.62,11.88,72.55l-8.48,1.36c-.17-6.92-1.02-24.86-5.14-42.36ZM167.7,233.02h-34.31l-2.81-8.97c-.93-2.96-5.06-3.2-6.29-.3l-3.93,9.27h-36.1c6.82-10.04,13.74-21.84,18.72-31.92,3.86-.62,45.84-7.34,52.4-8.38,3.15,7.97,8.09,23.21,12.31,40.31ZM172.21,137.3c-.11.14-.31.2-.48.13l-18.57-7.43c-3.03-1.21-6.24,1.35-5.73,4.58l8.53,53.34-13.38,2.14c-1.03-11.35-2.89-27.68-6.08-45.45,4.75-4.48,5.98-11.53,3-17.31-.74-1.44-2.34-2.21-3.93-1.87l-2.82.61c-1.93-8.55-3.92-15.83-3.96-15.96,2.09-3.62,3.36-7.77,3.56-12.19h18.55c1.53,0,3.02.43,4.31,1.24l12.24,7.7-4.15,5.68c-2.27,3.11-1.59,7.46,1.51,9.73,3.12,2.28,7.48,1.57,9.73-1.51l4.72-6.46,7,4.4c.21.13.26.41.1.61l-14.17,18.03ZM240.44,122.46l-30.38,26.7c-2.25,1.97-5.49,2.28-8.06.79l-23.25-13.46,8.67-11.03,15.77,9.13c.86.5,1.95.39,2.7-.27l25.38-22.3c2.89-2.54,7.27-2.25,9.8.63,2.53,2.88,2.25,7.27-.63,9.8Z"/>
  <path class="st3" d="M178.25,1.16c-.64-1.11-2.06-1.49-3.17-.85l-20.1,11.61c-1.11.64-1.49,2.06-.85,3.17.64,1.11,2.06,1.49,3.17.85l20.1-11.61c1.11-.64,1.49-2.06.85-3.17Z"/>
  <path class="st3" d="M189.33,8.65c-.64-1.11-2.06-1.49-3.17-.85l-22.3,12.88c-1.11.64-1.49,2.06-.85,3.17.64,1.11,2.06,1.49,3.17.85l22.3-12.88c1.11-.64,1.49-2.06.85-3.17Z"/>
  <path class="st3" d="M190.28,22c-.64-1.11-2.06-1.49-3.17-.85l-20.1,11.61c-1.11.64-1.49,2.06-.85,3.17.64,1.11,2.06,1.49,3.17.85l20.1-11.61c1.11-.64,1.49-2.06.85-3.17Z"/>
</svg>