<?xml version="1.0" encoding="UTF-8"?>
<svg id="Layer_1" xmlns="http://www.w3.org/2000/svg" version="1.1" viewBox="0 0 257.22 237.66">
  <!-- Generator: Adobe Illustrator 30.0.0, SVG Export Plug-In . SVG Version: 2.1.1 Build 123)  -->
  <defs>
    <style>
      .st0 {
        fill: #5c5e61;
      }

      .st1 {
        fill: #a8d15d;
      }

      .st2 {
        fill: #f4b11b;
      }

      .st3 {
        fill: #010101;
      }

      .st4 {
        fill: #ffdb7a;
      }

      .st5 {
        fill: #fec726;
      }

      .st6 {
        fill: #e1c875;
      }

      .st7 {
        fill: #79c143;
      }

      .st8 {
        fill: #fccdb1;
      }

      .st9 {
        fill: #828183;
      }

      .st10 {
        fill: #f386a4;
      }

      .st11 {
        fill: #5ccbee;
      }

      .st12 {
        fill: #d7e7f2;
      }

      .st13 {
        fill: #172841;
      }

      .st14 {
        fill: #f0597c;
      }
    </style>
  </defs>
  <path class="st8" d="M1268.26,1525c-.87,0-1.73.07-2.56.21.06.86.1,1.72.1,2.59v26.44c0,.87-.04,1.72-.1,2.57.84.13,1.69.22,2.56.22,8.85,0,16.02-7.17,16.02-16.02s-7.17-16.02-16.02-16.02Z"/>
  <path class="st8" d="M1189.08,1527.79c0-.87.04-1.73.1-2.59-.83-.13-1.69-.21-2.56-.21-8.85,0-16.02,7.17-16.02,16.02s7.17,16.02,16.02,16.02c.87,0,1.72-.09,2.56-.22-.06-.85-.1-1.71-.1-2.57v-26.44Z"/>
  <path class="st8" d="M1265.8,1519.46c-.02-1.09-.89-1.98-1.98-2.02-15.94-.47-24.33-6.78-27.56-9.95-.88-.86-2.3-.77-3.07.19-14.01,17.62-34.68,15.13-41.63,13.68-1.26-.26-2.47.69-2.48,1.98v30.88c0,21.1,17.26,38.36,38.36,38.36h0c21.1,0,38.36-17.26,38.36-38.36v-34.17c0-.2,0-.4,0-.6Z"/>
  <path class="st0" d="M1257.46,1478.77c-4.09,0-7.91,1.16-11.19,3.12-3.84-6.4-10.82-10.72-18.79-10.72h-11.25c-21.78,0-39.59,17.82-39.59,39.59v17.74c2.74-2.19,6.21-3.51,9.99-3.51.84,0,1.66.07,2.46.2v-1.84c0-1.29,1.21-2.24,2.48-1.98,6.95,1.45,27.62,3.94,41.63-13.68.77-.97,2.19-1.06,3.07-.19,3.23,3.16,11.62,9.48,27.56,9.95,1.09.03,1.96.93,1.98,2.02,0,.2,0,.4,0,.6v5.13c.8-.12,1.62-.2,2.46-.2,4.32,0,8.23,1.72,11.11,4.49v-28.81c0-12.05-9.86-21.91-21.91-21.91Z"/>
  <path class="st6" d="M1310.15,1632.89c-.37-6.61-4.99-12.22-11.42-13.84l-28.1-5.88c-13.43,16.1-40.62,18.19-42.57,18.32,0,0,0,0,0,0,0,0-.03,0-.06,0-.03,0-.06,0-.06,0,0,0,0,0,0,0-1.95-.13-29.14-2.22-42.57-18.32l-28.1,5.88c-6.42,1.62-11.05,7.22-11.42,13.84l-.66,18.26c4.88-2.57,10.44-4.02,16.34-4.02,19.43,0,35.18,15.75,35.18,35.18s-15.75,35.18-35.18,35.18h147.34c2.42,0,4.34-2.03,4.2-4.44l-2.92-80.16Z"/>
  <path class="st8" d="M1251.4,1605.54c-3.51-1.73-5.72-5.3-5.72-9.21v-8.39c-5.43,2.96-11.64,4.64-18.23,4.64h0c-6.14,0-11.95-1.47-17.11-4.07v7.81c0,3.91-2.22,7.48-5.72,9.21l-.69.34c2.72,5.63,8.6,11.9,19.89,18.33,1.64.93,2.88,2.37,3.59,4.05.23.55.98.55,1.21,0,.7-1.68,1.95-3.12,3.59-4.05,11.29-6.42,17.17-12.7,19.89-18.33l-.69-.34Z"/>
  <path class="st6" d="M1259.38,1575.4c-2.6,3.91-5.9,7.31-9.72,10.04,4.24,5.44,12.75,21.58-17.47,38.77-1.64.93-2.88,2.37-3.59,4.05-.23.55-.98.55-1.21,0-.7-1.68-1.95-3.12-3.59-4.05-29.32-16.68-22.19-32.37-17.86-38.26-3.97-2.71-7.41-6.14-10.14-10.1-10.49,5.99-24.59,18.08-11.75,35.65,12.88,17.63,41.87,19.86,43.88,19.99,0,0,0,0,0,0,0,0,.03,0,.06,0,.03,0,.06,0,.06,0,0,0,0,0,0,0,2.01-.13,31-2.36,43.88-19.99,13.17-18.02-2-30.28-12.56-36.1Z"/>
  <path class="st6" d="M1205.95,1585.95c-2.66,3.62-6.37,10.95-2.02,19.93l.68-.34c3.51-1.73,5.72-5.3,5.72-9.21v-7.81c-1.52-.76-2.99-1.62-4.38-2.57Z"/>
  <path class="st6" d="M1249.67,1585.44c-1.28.91-2.61,1.76-4,2.52,0,0,0,0,0,0v8.39c0,3.91,2.22,7.48,5.72,9.21l.67.33c4.55-9.43.26-17.03-2.4-20.44Z"/>
  <path class="st10" d="M1266.09,1658.34c-.17-.65-.75-1.11-1.42-1.11h-12.61c-.67,0-1.24.46-1.42,1.11-.32,1.19-.49,2.44-.49,3.73,0,5.48,3.05,10.24,7.54,12.7.42.23.93.23,1.35,0,4.49-2.46,7.54-7.22,7.54-12.7,0-1.29-.17-2.54-.49-3.73Z"/>
  <path class="st5" d="M1232.36,1580.98h-8.71c-2.94,0-5.32,2.38-5.32,5.32s2.38,5.32,5.32,5.32h8.71c2.94,0,5.32-2.38,5.32-5.32s-2.38-5.32-5.32-5.32Z"/>
  <path class="st5" d="M1233.82,1570.09c-1.79.77-3.76,1.19-5.82,1.19s-4.04-.43-5.82-1.19c-.1.31-.16.64-.16.99v10.15c.52-.17,1.06-.26,1.63-.26h8.71c.57,0,1.12.09,1.63.26v-10.15c0-.35-.07-.67-.16-.99Z"/>
  <circle class="st3" cx="1212.72" cy="1543.02" r="5.08"/>
  <path class="st3" d="M1242.64,1537.94c-2.8,0-5.08,2.27-5.08,5.08s2.27,5.08,5.08,5.08,5.08-2.27,5.08-5.08-2.27-5.08-5.08-5.08Z"/>
  <path class="st14" d="M1294.15,1577.05c-2.4-.45-4.29-2.3-4.75-4.65-.02-.12-.19-.12-.21,0-.46,2.35-2.35,4.21-4.75,4.65-.12.02-.12.18,0,.21,2.4.45,4.29,2.3,4.75,4.65.02.12.19.12.21,0,.46-2.35,2.35-4.21,4.75-4.65.12-.02.12-.18,0-.21Z"/>
  <path class="st5" d="M1161.7,1592.19c-4.5-.84-8.04-4.31-8.9-8.72-.04-.22-.35-.22-.39,0-.86,4.41-4.4,7.88-8.9,8.72-.23.04-.23.34,0,.39,4.5.84,8.04,4.31,8.9,8.72.04.22.35.22.39,0,.86-4.41,4.4-7.88,8.9-8.72.23-.04.23-.34,0-.39Z"/>
  <path class="st5" d="M1296.66,1497.25c-1.87,0-3.38,1.51-3.38,3.38s1.51,3.38,3.38,3.38,3.38-1.51,3.38-3.38-1.51-3.38-3.38-3.38Z"/>
  <path class="st11" d="M1135.66,1613.25c-1.87,0-3.38,1.51-3.38,3.38s1.51,3.38,3.38,3.38,3.38-1.51,3.38-3.38-1.51-3.38-3.38-3.38Z"/>
  <path class="st7" d="M1325.66,1638.25c-1.87,0-3.38,1.51-3.38,3.38s1.51,3.38,3.38,3.38,3.38-1.51,3.38-3.38-1.51-3.38-3.38-3.38Z"/>
  <circle class="st12" cx="1161.53" cy="1682.32" r="35.18"/>
  <path class="st9" d="M1195.02,1671.55h-2.41c-.43,0-.83.23-1.04.6l-5.52,9.57c-.21.37-.21.83,0,1.2l5.52,9.57c.21.37.61.6,1.04.6h2.41c1.09-3.39,1.69-7.01,1.69-10.77s-.59-7.37-1.69-10.77Z"/>
  <path class="st9" d="M1137,1681.71l-5.52-9.57c-.21-.37-.61-.6-1.04-.6h-2.41c-1.09,3.39-1.69,7.01-1.69,10.77s.59,7.37,1.69,10.77h2.41c.43,0,.83-.23,1.04-.6l5.52-9.57c.21-.37.21-.83,0-1.2Z"/>
  <path class="st9" d="M1168.95,1647.92l-1.2,2.08c-.21.37-.21.83,0,1.2l5.52,9.57c.21.37.61.6,1.04.6h11.04c.43,0,.83-.23,1.04-.6l1.2-2.08c-4.85-5.35-11.33-9.2-18.65-10.77Z"/>
  <path class="st9" d="M1155.31,1713.42l-5.52-9.56c-.21-.37-.61-.6-1.04-.6h-11.04c-.43,0-.83.23-1.04.6l-1.2,2.08c4.85,5.35,11.33,9.2,18.65,10.77l1.2-2.08c.21-.37.21-.83,0-1.2Z"/>
  <path class="st9" d="M1173.61,1681.71l-5.52-9.56c-.21-.37-.61-.6-1.04-.6h-11.04c-.43,0-.83.23-1.04.6l-5.52,9.56c-.21.37-.21.83,0,1.2l5.52,9.57c.21.37.61.6,1.04.6h11.04c.43,0,.83-.23,1.04-.6l5.52-9.57c.21-.37.21-.83,0-1.2Z"/>
  <path class="st9" d="M1155.31,1650.01l-1.2-2.08c-7.32,1.57-13.8,5.42-18.65,10.77l1.2,2.08c.22.37.61.6,1.04.6h11.04c.43,0,.83-.23,1.04-.6l5.52-9.57c.21-.37.21-.83,0-1.2Z"/>
  <path class="st9" d="M1186.4,1703.86c-.22-.37-.61-.6-1.04-.6h-11.04c-.43,0-.83.23-1.04.6l-5.52,9.56c-.21.37-.21.83,0,1.2l1.2,2.08c7.32-1.57,13.8-5.42,18.65-10.77l-1.2-2.08Z"/>
  <path class="st3" d="M1315.56,1712.97l-2.92-80.16s0-.03,0-.05c-.43-7.75-5.78-14.23-13.3-16.12-.03,0-.07-.02-.1-.02l-24.28-5.08c9.78-14.76,3.12-27.75-12.09-36.99,2.61-4.54,4.37-9.62,5.07-15.03,16.26.32,24.9-19.09,13.92-31.01v-27.82c0-17.87-18.68-29.71-34.79-22.06-4.59-6.19-11.9-9.95-19.61-9.95h-11.25c-23.21,0-42.09,18.88-42.09,42.09v16.62c-3.69,3.39-6.02,8.23-6.02,13.63,0,10.31,8.48,18.7,18.83,18.5.73,5.61,2.59,10.87,5.37,15.54-14.64,9.22-20.87,22-11.27,36.48l-24.28,5.08s-.07.01-.1.02c-7.53,1.89-12.87,8.37-13.31,16.17l-.61,16.83c-11.6,6.68-18.9,19.2-18.9,32.68,0,20.94,17.05,37.68,37.68,37.68h147.34c3.91,0,6.91-3.32,6.7-7.03ZM1245.19,1625.65v-.59c0-1.38-1.12-2.5-2.5-2.5s-2.5,1.12-2.5,2.5v1.94c-3.15.74-6.06,1.27-8.98,1.65.35-.63.83-1.24,1.48-1.76,1.49-1.18,34.75-18.02,20.42-40.89,2.63-2.13,4.99-4.57,7.03-7.28,28.16,16.95,10.63,39.13-14.94,46.93ZM1248.17,1589.42c.29-.17.57-.34.85-.52,2.47,4.07,3.25,8.62,1.82,13.28-4.23-3.67-2.12-8.77-2.67-12.77ZM1281.78,1541.01c0,7.44-6.04,13.5-13.48,13.52,0-.8,0-26.93,0-27.03,7.44.02,13.48,6.11,13.48,13.51ZM1173.11,1541.01c0-7.5,6.16-13.49,13.48-13.51,0,18,0,24.31-.01,26.25,0-.1,0,.03.02.77-7.43-.02-13.48-6.08-13.48-13.52ZM1186.67,1522.5c-2.52,0-5.04.49-7.54,1.59v-13.32c0-20.45,16.64-37.09,37.09-37.09h11.25c6.75,0,13.13,3.64,16.65,9.51.71,1.19,2.25,1.57,3.43.86,12.89-7.73,29.32,1.63,29.32,16.64v23.94c-2.73-1.44-5.74-2.12-8.57-2.12v-2.44c0-3.34-2.09-5.05-4.41-5.12-9.18-.27-19.47-2.95-25.88-9.23-1.96-1.92-5.1-1.68-6.78.42-12.91,16.24-31.69,14.35-39.16,12.79-2.56-.53-4.94,1.17-5.4,3.57ZM1191.58,1554.23c0-.1.03-29.6,0-29.7v-.61c16.09,3.15,32.67-1.26,43.27-14.31,7.42,7.02,18.24,9.95,28.45,10.31v4.61c-.03.1,0,29.59,0,29.7,0,15.23-9.66,28.41-23.27,33.55.09-.48.14-.97.14-1.48,0-2.8-1.48-5.25-3.69-6.63v-8.11c2.32-1.3,4.34-3.14,5.88-5.41.77-1.14.47-2.7-.67-3.47-1.14-.77-2.7-.47-3.47.67-4.89,7.24-15.59,7.2-20.46,0-.77-1.14-2.33-1.44-3.47-.67-1.14.77-1.45,2.33-.67,3.47,1.54,2.28,3.56,4.11,5.88,5.41v8.11c-2.21,1.38-3.69,3.83-3.69,6.63,0,.66.09,1.3.25,1.91-14.54-4.93-24.48-18.51-24.48-33.98ZM1232.36,1583.48c1.48,0,2.82,1.22,2.82,2.82s-1.27,2.82-2.82,2.82h-8.71c-1.56,0-2.82-1.27-2.82-2.82s1.34-2.82,2.82-2.82h8.71ZM1224.51,1578.48v-5.04c2.35.48,4.82.44,6.98,0v5.04h-6.98ZM1205.15,1602.2c-1.63-5.31-.16-9.79,1.54-12.79.38.22.76.45,1.14.66-.36,4.22,1.24,8.76-2.68,12.13ZM1195.12,1579.18c2.15,2.78,4.64,5.27,7.42,7.41-7.69,13.04-.36,25.52,11.88,34.53,7.23,5.33,8.89,4.87,10.37,7.53-3-.39-5.95-.93-8.98-1.65v-1.94c0-3.3-5-3.31-5,0v.59c-9.43-2.87-18.96-7.73-24.73-15.62-9.11-12.47-4.06-22.67,9.04-30.85ZM1152.61,1650.88l-4.62,8h-9.21c3.79-3.67,8.51-6.49,13.83-8ZM1157.88,1649.84c1.33-.15,2.58-.21,3.64-.21,0,0,0,0,0,0,1.23,0,2.45.07,3.65.21-.19.88-.06,1.82.41,2.62l5.15,8.92-4.43,7.67h-9.55l-4.43-7.67,5.15-8.92c.46-.8.59-1.74.41-2.62ZM1175.4,1684.82h8.86l5.15,8.92c.46.8,1.21,1.38,2.06,1.66-.97,2.22-2.11,4.23-3.65,6.31-.67-.6-1.54-.95-2.46-.95h-10.3l-4.43-7.67,4.77-8.27ZM1166.3,1690.58h-9.55l-4.77-8.27,4.77-8.27h9.55l4.77,8.27-4.77,8.27ZM1188.59,1682.32l4.62-8.01c.63,2.48,1,5.34,1,8.01s-.37,5.55-1,8.01l-4.62-8.01ZM1189.41,1670.89h0s-5.15,8.92-5.15,8.92h-8.86l-4.77-8.27,4.43-7.67h10.3c.92,0,1.79-.35,2.46-.95,1.56,2.11,2.69,4.13,3.65,6.31-.85.28-1.6.86-2.06,1.66ZM1175.06,1658.88l-4.62-8c5.37,1.52,10.07,4.35,13.83,8h-9.21ZM1135.23,1662.93c.67.6,1.54.95,2.46.95h10.3l4.43,7.67-4.77,8.27h-8.86l-5.15-8.92h0c-.46-.8-1.21-1.38-2.06-1.66.98-2.25,2.21-4.36,3.65-6.31ZM1129.84,1674.31l4.62,8.01-4.62,8.01c-1.33-5.26-1.3-10.85,0-16.02ZM1135.23,1701.7c-1.44-1.95-2.67-4.07-3.65-6.31.85-.28,1.6-.86,2.06-1.66l5.15-8.92h8.86l4.77,8.27-4.43,7.67h-10.3c-.92,0-1.79.35-2.46.95ZM1138.78,1705.75h9.21l4.62,8c-5.23-1.49-9.97-4.25-13.83-8ZM1165.17,1714.79c-1.2.13-2.41.21-3.65.21s-2.45-.07-3.65-.21c.19-.88.06-1.82-.41-2.62l-5.15-8.92,4.43-7.67h9.55l4.43,7.67-5.15,8.92c-.46.8-.59,1.74-.41,2.62ZM1175.06,1705.75h9.21c-3.84,3.72-8.57,6.51-13.83,8l4.62-8ZM1225.5,1715h-45.2c11.31-6.5,18.91-18.87,18.91-32.68,0-20.78-16.88-37.68-37.68-37.68h0c-4.72,0-9.47.93-13.69,2.57l.52-14.17c.31-5.54,4.12-10.17,9.49-11.54l26.61-5.57c6.81,7.53,16.68,12.22,26.36,14.98v28.13c0,1.38,1.12,2.5,2.5,2.5s2.5-1.12,2.5-2.5v-26.87c4.07.91,7.51,1.38,9.69,1.62v81.22ZM1228,1624.5c-.83-.99-1.83-1.83-2.95-2.47-6.48-3.68-13.79-8.83-17.74-15.18,6.03-4.14,5.33-9.54,5.52-14.48,9.59,3.68,20.49,3.69,30.34-.44.02,3.43-1.07,10.44,5.52,14.92-3.94,6.34-11.25,11.49-17.74,15.18-1.13.64-2.13,1.48-2.96,2.47ZM1308.86,1715h-29.14v-51.65c0-1.38-1.12-2.5-2.5-2.5s-2.5,1.12-2.5,2.5v51.65h-44.22v-81.22c2.19-.24,5.61-.71,9.69-1.61v26.86c0,1.38,1.12,2.5,2.5,2.5s2.5-1.12,2.5-2.5v-28.13c9.76-2.78,19.61-7.51,26.36-14.98l26.61,5.57c5.36,1.37,9.17,5.99,9.49,11.52l2.92,80.19c.05.98-.73,1.8-1.71,1.8ZM1186.57,1553.75c0,.22,0,1.61,0,0h0Z"/>
  <path class="st3" d="M1268.51,1657.7c-.47-1.74-2.04-2.96-3.83-2.96h-12.61c-1.79,0-3.37,1.22-3.83,2.96-2.01,7.48,1.33,15.47,8.26,19.27,1.16.63,2.59.64,3.75,0,6.92-3.79,10.27-11.78,8.26-19.27ZM1258.37,1672.27c-4.24-2.61-6.47-7.59-5.48-12.54h10.97c.98,4.91-1.22,9.91-5.48,12.54Z"/>
  <path class="st8" d="M158.89,54.29c-.87,0-1.73.07-2.56.19.06.81.1,1.62.1,2.43v24.86c0,.81-.04,1.62-.1,2.42.83.13,1.69.21,2.56.21,8.85,0,16.02-6.74,16.02-15.06s-7.17-15.06-16.02-15.06Z"/>
  <path class="st8" d="M79.71,56.92c0-.82.04-1.63.1-2.43-.83-.13-1.69-.19-2.56-.19-8.85,0-16.02,6.74-16.02,15.06s7.17,15.06,16.02,15.06c.87,0,1.72-.08,2.56-.21-.06-.8-.1-1.61-.1-2.42v-24.86Z"/>
  <path class="st8" d="M156.43,49.09c-.02-1.02-.89-1.87-1.98-1.9-15.94-.44-24.33-6.38-27.56-9.35-.88-.81-2.3-.73-3.07.18-14.01,16.57-34.68,14.23-41.63,12.86-1.26-.25-2.47.65-2.48,1.86v29.04c0,19.84,17.26,36.07,38.36,36.07h0c21.1,0,38.36-16.23,38.36-36.07v-32.13c0-.19,0-.38,0-.56Z"/>
  <path class="st6" d="M201.42,172.3c-21.56-.22-39.24-15.61-41.53-35.36l-2.35-.46c-2.21-.52-4.35-1.26-6.39-2.21l-9.13-4.23c-3.51-1.63-5.72-4.98-5.72-8.66v-7.89c-5.43,2.78-11.64,4.36-18.23,4.36h0c-6.14,0-11.95-1.38-17.11-3.82v7.35c0,3.67-2.22,7.03-5.72,8.66l-9.13,4.23c-2.04.95-4.18,1.69-6.39,2.21l-31.82,6.27c-6.42,1.52-11.05,6.79-11.42,13.01l-2.92,75.38c-.13,2.27,1.79,4.18,4.2,4.18h161.72c2.42,0,4.34-1.91,4.2-4.18l-2.28-58.84Z"/>
  <path class="st8" d="M202.61,203.15h-34.76v32.16h31.64c2.42,0,4.34-1.91,4.2-4.18l-1.08-27.98Z"/>
  <path class="st8" d="M34.65,203.15l-1.08,27.98c-.13,2.27,1.79,4.18,4.2,4.18h31.64v-32.16h-34.76Z"/>
  <path class="st13" d="M139.13,179.06h7.6v-32.29c-6.11,7.99-14.29,14.66-24.09,19.29-1.26.59-2.63.89-4.01.89s-2.75-.3-4.01-.89c-9.82-4.64-18.01-11.32-24.12-19.33v88.57h56.23v-36.03c-.26,0-.53-.07-.76-.19-5.46-2.81-9.16-8.25-9.16-14.51,0-1.47.21-2.9.6-4.26.21-.74.91-1.26,1.72-1.26Z"/>
  <path class="st0" d="M151.15,134.26l-9.13-4.23c-3.51-1.63-5.72-4.98-5.72-8.66v-7.89c-5.43,2.78-11.64,4.36-18.23,4.36h0c-6.14,0-11.95-1.38-17.11-3.82v7.35c0,3.67-2.22,7.03-5.72,8.66l-9.13,4.23c-.82.38-1.65.71-2.5,1.03,6.02,13.1,16.81,24.06,31.01,30.77,1.26.59,2.63.89,4.01.89s2.75-.3,4.01-.89c14.2-6.71,24.99-17.67,31.01-30.77-.85-.31-1.68-.65-2.5-1.03Z"/>
  <path class="st8" d="M142.03,130.03c-3.51-1.63-5.72-4.98-5.72-8.66v-7.89c-5.43,2.78-11.64,4.36-18.23,4.36h0c-6.14,0-11.95-1.38-17.11-3.82v7.35c0,3.67-2.22,7.03-5.72,8.66l-1.91.89c4.9,10.87,13.7,20.01,25.31,25.72,11.61-5.71,20.42-14.85,25.31-25.72l-1.91-.89Z"/>
  <path class="st10" d="M156.17,180.32c-.21-.74-.91-1.26-1.72-1.26h-15.32c-.81,0-1.51.52-1.72,1.26-.39,1.36-.6,2.78-.6,4.26,0,6.26,3.71,11.7,9.16,14.51.51.26,1.13.26,1.64,0,5.46-2.81,9.16-8.25,9.16-14.51,0-1.47-.21-2.9-.6-4.26Z"/>
  <path class="st5" d="M38.2,163.95c-.69,0-1.37.06-2.04.16l-.99,25.65c.98.2,1.99.32,3.03.32,7.67,0,13.89-5.85,13.89-13.07s-6.22-13.07-13.89-13.07Z"/>
  <polygon class="st14" points="202.61 203.15 167.85 203.15 167.85 213.2 203 213.2 202.61 203.15"/>
  <path class="st11" d="M201.69,179.46h-15.09c-3.29,0-5.95,2.51-5.95,5.6s2.67,5.6,5.95,5.6h15.52l-.43-11.2Z"/>
  <polygon class="st14" points="34.65 203.15 34.26 213.2 69.41 213.2 69.41 203.15 34.65 203.15"/>
  <ellipse class="st2" cx="201.88" cy="132.58" rx="42.25" ry="39.73"/>
  <path class="st4" d="M242.11,120.42h-2.89c-.52,0-.99.26-1.25.68l-6.63,10.8c-.26.42-.26.94,0,1.36l6.63,10.8c.26.42.74.68,1.25.68h2.89c1.31-3.83,2.02-7.92,2.02-12.16s-.71-8.33-2.02-12.16Z"/>
  <path class="st4" d="M172.43,131.9l-6.63-10.8c-.26-.42-.74-.68-1.25-.68h-2.89c-1.31,3.83-2.02,7.92-2.02,12.16s.71,8.33,2.02,12.16h2.89c.52,0,.99-.26,1.25-.68l6.63-10.8c.26-.42.26-.94,0-1.36Z"/>
  <path class="st4" d="M210.79,93.74l-1.44,2.35c-.26.42-.26.94,0,1.36l6.63,10.8c.26.42.74.68,1.25.68h13.26c.52,0,.99-.26,1.25-.68l1.44-2.35c-5.83-6.04-13.6-10.38-22.4-12.16Z"/>
  <path class="st4" d="M194.41,167.7l-6.63-10.8c-.26-.42-.74-.68-1.25-.68h-13.26c-.52,0-.99.26-1.25.68l-1.44,2.35c5.83,6.04,13.6,10.38,22.4,12.16l1.44-2.35c.26-.42.26-.94,0-1.36Z"/>
  <path class="st4" d="M194.41,96.1l-1.44-2.35c-8.79,1.78-16.57,6.12-22.4,12.16l1.44,2.35c.26.42.74.68,1.25.68h13.26c.52,0,.99-.26,1.25-.68l6.63-10.8c.26-.42.26-.94,0-1.36Z"/>
  <path class="st4" d="M231.74,156.9c-.26-.42-.74-.68-1.25-.68h-13.26c-.52,0-.99.26-1.25.68l-6.63,10.8c-.26.42-.26.94,0,1.36l1.44,2.35c8.79-1.78,16.57-6.12,22.4-12.16l-1.44-2.35Z"/>
  <path class="st0" d="M148.09,10.82c-4.09,0-7.91,1.09-11.19,2.94-3.84-6.02-10.82-10.08-18.79-10.08h-11.25c-21.78,0-39.6,16.75-39.6,37.23v16.68c2.74-2.06,6.21-3.3,9.99-3.3.84,0,1.66.07,2.46.18v-1.73c0-1.21,1.21-2.11,2.48-1.86,6.95,1.37,27.62,3.71,41.63-12.86.77-.91,2.19-.99,3.07-.18,3.23,2.97,11.62,8.91,27.56,9.35,1.09.03,1.96.87,1.98,1.9,0,.19,0,.38,0,.56v4.82c.8-.12,1.62-.18,2.46-.18,4.32,0,8.23,1.61,11.11,4.23v-27.09c0-11.33-9.86-20.6-21.91-20.6Z"/>
  <ellipse class="st3" cx="103.34" cy="71.24" rx="5.08" ry="4.77"/>
  <ellipse class="st3" cx="133.27" cy="71.24" rx="5.08" ry="4.77"/>
  <path class="st5" d="M203.55,19.68c-4.5-.79-8.04-4.05-8.9-8.2-.04-.21-.35-.21-.39,0-.86,4.14-4.4,7.41-8.9,8.2-.23.04-.23.32,0,.36,4.5.79,8.04,4.05,8.9,8.2.04.21.35.21.39,0,.86-4.14,4.4-7.41,8.9-8.2.23-.04.23-.32,0-.36Z"/>
  <path class="st5" d="M228.81,185.51c-2.65-.46-4.74-2.39-5.24-4.83-.03-.12-.21-.12-.23,0-.5,2.44-2.59,4.36-5.24,4.83-.13.02-.13.19,0,.21,2.65.46,4.74,2.39,5.24,4.83.03.12.21.12.23,0,.5-2.44,2.59-4.36,5.24-4.83.13-.02.13-.19,0-.21Z"/>
  <path class="st11" d="M53.78,117.99h-2.33v-2.19c0-1.64-1.41-2.97-3.16-2.97s-3.16,1.33-3.16,2.97v2.19h-2.33c-1.74,0-3.16,1.33-3.16,2.97s1.41,2.97,3.16,2.97h2.33v2.19c0,1.64,1.41,2.97,3.16,2.97s3.16-1.33,3.16-2.97v-2.19h2.33c1.74,0,3.16-1.33,3.16-2.97s-1.41-2.97-3.16-2.97Z"/>
  <path class="st11" d="M174.51-3.06c1.87,0,3.38,1.42,3.38,3.18s-1.51,3.18-3.38,3.18-3.38-1.42-3.38-3.18,1.51-3.18,3.38-3.18"/>
  <path class="st1" d="M60.51,97.55c-1.87,0-3.38,1.42-3.38,3.18s1.51,3.18,3.38,3.18,3.38-1.42,3.38-3.18-1.51-3.18-3.38-3.18Z"/>
  <ellipse class="st14" cx="194.51" cy="77.22" rx="3.38" ry="3.18"/>
  <path class="st4" d="M216.35,131.82l-6.58-10.71c-.26-.43-.73-.69-1.23-.69h-13.31c-.5,0-.97.26-1.23.69l-6.58,10.71c-.28.46-.28,1.05,0,1.51l6.58,10.71c.26.43.73.69,1.23.69h13.31c.5,0,.97-.26,1.23-.69l6.58-10.71c.28-.46.28-1.05,0-1.51Z"/>
  <path class="st3" d="M132.33,89.73c-1.14-.73-2.7-.44-3.47.63-4.9,6.82-15.56,6.81-20.46,0-.77-1.08-2.33-1.36-3.47-.63-1.14.73-1.45,2.19-.67,3.26,6.89,9.59,21.88,9.55,28.74,0,.77-1.08.47-2.54-.67-3.26Z"/>
  <path class="st3" d="M133.37,208.27h-29.04c-1.38,0-2.5,1.05-2.5,2.35s1.12,2.35,2.5,2.35h29.04c1.38,0,2.5-1.05,2.5-2.35s-1.12-2.35-2.5-2.35Z"/>
  <path class="st3" d="M126.83,217.8h-15.97c-1.38,0-2.5,1.05-2.5,2.35s1.12,2.35,2.5,2.35h15.97c1.38,0,2.5-1.05,2.5-2.35s-1.12-2.35-2.5-2.35Z"/>
  <path class="st3" d="M201.88,90.5c-25.18,0-45.54,19.59-44.72,43.43-1.72-.47-3.51-1.13-4.9-1.78l-9.13-4.23c-2.67-1.24-4.33-3.75-4.33-6.55v-6.51c10.6-5.89,18.13-16.15,19.78-28.12,16.26.3,24.9-17.95,13.92-29.16v-26.16c0-12.66-10.95-22.95-24.41-22.95-3.58,0-7.12.76-10.38,2.21-4.59-5.82-11.9-9.36-19.61-9.36h-11.25c-23.21,0-42.09,17.76-42.09,39.58v15.63c-12.53,10.81-4.19,30.52,12.81,30.21,1.71,12.39,9.71,22.95,20.89,28.73v5.9c0,2.8-1.66,5.31-4.33,6.55-9.32,4.31-9.55,4.48-11.43,5.18,0,0,0,0,0,0-1.16.43-2.34.79-3.54,1.08l-31.77,6.26s-.07.01-.1.02c-7.53,1.78-12.87,7.87-13.31,15.21-.37,9.54-2.28,58.92-2.92,75.33-.21,3.61,2.85,6.66,6.7,6.66h161.72c3.91,0,6.91-3.12,6.7-6.61-.62-15.98-1.52-39.19-2.18-56.44,23.92-1.06,42.62-19.7,42.62-42.03h0c0-23.01-19.83-42.08-44.75-42.08ZM233.5,109.96c2.02,2.5,3.72,5.23,5.04,8.17-1.14.19-2.15.84-2.74,1.79l-6.33,10.3h-11.22l-6.02-9.81,5.61-9.13h12.65c1.17,0,2.27-.5,3.01-1.32ZM185.92,153.87h-12.65c-1.17,0-2.26.5-3.01,1.32-2.02-2.5-3.72-5.23-5.04-8.17,1.14-.19,2.15-.84,2.74-1.79l6.33-10.3h11.22l6.02,9.81-5.61,9.13ZM185.92,158.57l6.02,9.81-.2.33c-6.61-1.64-12.88-4.91-18.06-9.82l.19-.32h12.04ZM189.84,132.58l6.02-9.81h12.04l6.02,9.81-6.02,9.81h-12.04l-6.02-9.81ZM212.02,96.44c6.83,1.7,13.03,5.06,18.06,9.83l-.2.32h-12.04l-6.02-9.81.21-.34ZM196.86,95.51c3.41-.41,6.55-.42,10.04,0-.39,1.02-.3,2.16.28,3.12l6.33,10.3-5.61,9.13h-12.04l-5.61-9.13,6.33-10.31c.59-.95.67-2.1.28-3.12ZM191.73,96.44l.21.34-6.02,9.81h-12.04l-.2-.32c5.01-4.75,11.23-8.13,18.06-9.83ZM170.26,109.96c.74.82,1.84,1.32,3.01,1.32h12.65l5.61,9.13-6.02,9.81h-11.22l-6.33-10.3c-.59-.96-1.6-1.61-2.74-1.79,1.31-2.93,3.01-5.67,5.04-8.17ZM163.53,122.77h.41l6.02,9.81-6.02,9.81h-.41c-1.89-6.55-1.83-13.24,0-19.62ZM172.41,69.35c0,7-6.04,12.69-13.48,12.71,0-.75,0-25.32,0-25.42,7.45.02,13.48,5.76,13.48,12.71ZM63.73,69.35c0-7.04,6.14-12.69,13.48-12.71,0,.1,0,24.72,0,25.42-7.44-.02-13.48-5.71-13.48-12.71ZM77.3,51.94c-2.65,0-5.44.61-7.54,1.48v-12.51c0-19.23,16.64-34.88,37.09-34.88h11.25c6.75,0,13.13,3.43,16.65,8.94.71,1.12,2.25,1.47,3.43.81,3.02-1.7,6.45-2.6,9.91-2.6,10.7,0,19.41,8.19,19.41,18.25v22.51c-2.45-1.22-5.43-1.99-8.57-2v-2.29c0-3.12-2.06-4.74-4.41-4.81-9.18-.25-19.48-2.78-25.88-8.68-1.94-1.79-5.09-1.6-6.78.4-12.91,15.27-31.69,13.5-39.16,12.02-2.55-.5-4.95,1.09-5.4,3.36ZM82.21,81.78v-28.5c15.95,2.93,32.51-1.01,43.27-13.46,7.43,6.61,18.25,9.35,28.45,9.7v32.26c0,18.49-16,33.72-35.86,33.72s-35.86-15.04-35.86-33.72ZM103.46,121.38v-3.72c4.66,1.68,9.7,2.55,14.61,2.55,5.41,0,10.74-1,15.73-2.96v4.14c0,4.63,2.75,8.63,6.87,10.65-4.69,9.22-12.42,16.93-22.04,21.95-9.62-5.02-17.35-12.73-22.04-21.95,4.24-2.07,6.87-6.15,6.87-10.65ZM92.11,134.1c5.35,10.48,14.27,19.16,25.36,24.62.72.36,1.59.36,2.32,0,11.09-5.46,20.01-14.14,25.36-24.62,5.38,2.49,4.85,2.25,5.17,2.39-6.15,12.03-16.52,21.66-28.8,27.47-1.79.85-4.02.83-5.77,0h0c-12.32-5.83-22.68-15.49-28.8-27.47.19-.08-.12.06,5.17-2.39ZM38.58,166.31c6.11.19,11.02,4.92,11.02,10.71s-5.37,10.97-11.84,10.71l.83-21.41ZM66.91,232.96h-29.14c-.94,0-1.76-.72-1.7-1.74l.61-15.67h30.24v17.41ZM66.91,210.85h-30.05l.21-5.35h29.85v5.35ZM88,232.96h-16.1v-48.57c0-1.3-1.12-2.35-2.5-2.35s-2.5,1.05-2.5,2.35v16.41h-29.67l.32-8.4c9.43.36,17.03-6.77,17.03-15.38s-7.06-15.11-15.83-15.39l.22-5.75c.31-5.21,4.12-9.56,9.49-10.85l31.77-6.26s.07-.01.1-.02c.66-.16,1.31-.34,1.96-.53,1.63,3.23,3.54,6.31,5.71,9.22v85.51ZM144.23,232.96h-51.23v-79.54c5.44,5.72,12.54,10.95,20.27,14.64,3.58,1.71,7.36,1.59,10.49.11,7.86-3.72,15.03-9,20.47-14.72v23.26h-5.1c-1.93,0-3.63,1.24-4.14,3.01-2.37,8.32,1.6,16.92,9.24,21.16v32.09ZM139.69,181.41h14.19c1.48,6.01-1.38,12.26-7.09,15.42-5.73-3.16-8.58-9.42-7.1-15.42ZM167.85,182.04c-1.38,0-2.5,1.05-2.5,2.35v48.57h-16.12v-32.04c7.86-4.29,11.71-12.96,9.36-21.21h0c-.5-1.77-2.21-3.01-4.14-3.01h-5.22v-29.23c2.18-2.92,4.1-6.01,5.74-9.26,2.2.65,1.92.49,2.67.67,3.11,19.25,20.09,34.4,41.37,35.67l.1,2.55h-12.5c-4.66,0-8.45,3.57-8.45,7.95s3.79,7.95,8.45,7.95h13.11l.3,7.79h-29.67v-16.41c0-1.3-1.12-2.35-2.5-2.35ZM199.28,181.81l.25,6.49h-12.93c-1.9,0-3.45-1.46-3.45-3.25s1.55-3.25,3.45-3.25h12.68ZM200.2,205.5l.21,5.35h-30.05v-5.35h29.85ZM199.49,232.96h-29.14v-17.41h30.24l.61,15.71c.05.92-.73,1.7-1.71,1.7ZM206.9,169.65c-3.1.37-6.3.44-10.04,0,.39-1.02.3-2.16-.29-3.11l-6.33-10.3,5.61-9.13h12.04l5.61,9.13-6.33,10.31c-.59.96-.67,2.1-.28,3.12ZM212.02,168.72l-.21-.34,6.02-9.81h12.04l.2.32c-5.06,4.79-11.27,8.14-18.06,9.83ZM233.5,155.19c-.74-.82-1.84-1.32-3.01-1.32h-12.65l-5.61-9.13,6.02-9.81h11.22l6.33,10.3c.59.96,1.6,1.61,2.74,1.79-1.31,2.93-3.01,5.67-5.04,8.17ZM241.63,132.58c0,3.11-.44,6.52-1.4,9.81h-.41l-6.02-9.81,6.02-9.81h.41c.95,3.28,1.4,6.64,1.4,9.81h0Z"/>
</svg>