<?xml version="1.0" encoding="UTF-8"?>
<svg id="Layer_1" xmlns="http://www.w3.org/2000/svg" version="1.1" viewBox="0 0 257.22 237.66">
  <!-- Generator: Adobe Illustrator 30.0.0, SVG Export Plug-In . SVG Version: 2.1.1 Build 123)  -->
  <defs>
    <style>
      .st0 {
        fill: #010101;
      }

      .st1 {
        fill: #828183;
      }

      .st2 {
        fill: #145aa5;
      }

      .st3 {
        fill: #3072b9;
      }

      .st4 {
        fill: #5ccbee;
      }

      .st5 {
        fill: #d7e7f2;
      }

      .st6 {
        fill: #f0597c;
      }
    </style>
  </defs>
  <path class="st3" d="M236.49,26.92H20.73c-8.32,0-15.06,6.98-15.06,15.59v133.03c0,8.61,6.74,15.59,15.06,15.59h96.62c1.66,0,3.12,1.02,3.89,2.55,1.39,2.75,4.17,4.62,7.37,4.62s5.98-1.88,7.37-4.62c.77-1.53,2.23-2.55,3.89-2.55h96.62c8.32,0,15.06-6.98,15.06-15.59V42.51c0-8.61-6.74-15.59-15.06-15.59Z"/>
  <path class="st4" d="M236.49,39.6H20.73c-1.55,0-2.81,1.31-2.81,2.91v133.03c0,1.61,1.26,2.91,2.81,2.91h215.77c1.55,0,2.81-1.31,2.81-2.91V42.51c0-1.61-1.26-2.91-2.81-2.91Z"/>
  <path class="st2" d="M32.23,191.14l-5.71,10.27c-1.65,2.97-.67,6.78,2.2,8.49,2.87,1.71,6.54.69,8.2-2.28l9.17-16.48h-13.85Z"/>
  <path class="st2" d="M230.7,201.41l-5.71-10.27h-13.85l9.17,16.48c1.65,2.97,5.32,4,8.2,2.28,2.87-1.71,3.86-5.51,2.2-8.49Z"/>
  <path class="st0" d="M128.63,185.12h-.01c-1.53,0-2.76,1.28-2.76,2.87s1.25,2.87,2.78,2.87,2.77-1.28,2.77-2.87-1.24-2.87-2.77-2.87Z"/>
  <ellipse class="st5" cx="128.61" cy="108.26" rx="41.36" ry="42.84"/>
  <path class="st1" d="M167.99,95.15h-2.83c-.51,0-.97.28-1.23.73l-6.49,11.65c-.25.45-.25,1.01,0,1.46l6.49,11.65c.25.45.72.73,1.23.73h2.83c1.28-4.13,1.98-8.54,1.98-13.11s-.7-8.98-1.98-13.11Z"/>
  <path class="st1" d="M99.78,107.53l-6.49-11.65c-.25-.45-.72-.73-1.23-.73h-2.83c-1.28,4.13-1.98,8.54-1.98,13.11s.7,8.98,1.98,13.11h2.83c.51,0,.97-.28,1.23-.73l6.49-11.65c.25-.45.25-1.01,0-1.46Z"/>
  <path class="st1" d="M137.34,66.39l-1.41,2.54c-.25.45-.25,1.01,0,1.46l6.49,11.65c.25.45.72.73,1.23.73h12.98c.51,0,.97-.28,1.23-.73l1.41-2.54c-5.7-6.52-13.32-11.2-21.93-13.11Z"/>
  <path class="st1" d="M121.3,146.13l-6.49-11.65c-.25-.45-.72-.73-1.23-.73h-12.98c-.51,0-.97.28-1.23.73l-1.41,2.54c5.7,6.52,13.32,11.2,21.93,13.11l1.41-2.54c.25-.45.25-1.01,0-1.47Z"/>
  <path class="st1" d="M142.84,107.56l-6.5-11.67c-.25-.46-.74-.74-1.26-.74h-12.92c-.52,0-1.01.28-1.26.74l-6.5,11.67c-.24.44-.24.97,0,1.41l6.5,11.67c.26.46.74.74,1.26.74h12.92c.52,0,1.01-.28,1.26-.74l6.5-11.67c.24-.44.24-.97,0-1.41Z"/>
  <path class="st1" d="M121.3,68.92l-1.41-2.54c-8.61,1.91-16.22,6.6-21.93,13.11l1.41,2.54c.25.45.72.73,1.23.73h12.98c.51,0,.97-.28,1.23-.73l6.49-11.65c.25-.45.25-1.01,0-1.46Z"/>
  <path class="st1" d="M157.85,134.49c-.25-.45-.72-.73-1.23-.73h-12.98c-.51,0-.97.28-1.23.73l-6.49,11.65c-.25.45-.25,1.01,0,1.47l1.41,2.54c8.61-1.91,16.22-6.6,21.93-13.11l-1.41-2.54Z"/>
  <path class="st6" d="M222.28,52.33h-25.27c-.24,0-.46.16-.54.4l-3.05,9.49c-.12.38.15.77.54.77h25.27c.24,0,.46-.16.54-.4l3.05-9.49c.12-.38-.15-.77-.54-.77Z"/>
  <path class="st0" d="M236.49,37.07H20.73c-2.9,0-5.26,2.44-5.26,5.45v133.03c0,3.01,2.36,5.45,5.26,5.45h215.77c2.9,0,5.26-2.44,5.26-5.45V42.51c0-3-2.36-5.45-5.26-5.45ZM236.86,175.55c0,.2-.17.38-.36.38H20.73c-.2,0-.36-.17-.36-.38V42.51c0-.2.17-.38.36-.38h215.77c.2,0,.36.17.36.38v133.03Z"/>
  <path class="st0" d="M236.49,24.38H20.73c-9.65,0-17.51,8.13-17.51,18.13v133.03c0,10,7.85,18.13,17.51,18.13h7.27l-3.6,6.47c-2.33,4.18-.93,9.54,3.1,11.95,4.06,2.42,9.22.96,11.54-3.22l8.46-15.21h69.85c.7,0,1.35.44,1.72,1.19,4.03,7.97,15.04,7.97,19.08,0,.38-.74,1.02-1.19,1.72-1.19h69.85l8.46,15.21c2.32,4.17,7.47,5.65,11.54,3.22,4.04-2.41,5.43-7.77,3.1-11.95l-3.6-6.47h7.27c9.65,0,17.51-8.13,17.51-18.13V42.51c0-10-7.85-18.13-17.51-18.13ZM34.8,206.36c-.97,1.74-3.13,2.38-4.85,1.35-1.7-1.01-2.28-3.27-1.3-5.03l5.01-9h8.2l-7.05,12.68ZM227.28,207.71c-1.71,1.02-3.88.4-4.85-1.35l-7.05-12.68h8.2l5.01,9c.98,1.76.39,4.01-1.3,5.03ZM249.1,175.55c0,7.2-5.66,13.06-12.61,13.06h-96.62c-2.52,0-4.84,1.5-6.06,3.91-2.2,4.35-8.2,4.35-10.4,0-1.22-2.41-3.54-3.91-6.06-3.91H20.73c-6.95,0-12.61-5.86-12.61-13.06V42.51c0-7.2,5.66-13.06,12.61-13.06h215.77c6.95,0,12.61,5.86,12.61,13.06v133.03Z"/>
  <path class="st0" d="M86.94,94.26c-.92,2.54-2.14,8.34-2.14,14,0,25.03,19.62,45.37,43.81,45.37s43.81-20.58,43.81-45.37c0-51.55-70.23-62.56-85.48-14ZM159.57,83.88c1.98,2.69,3.64,5.64,4.93,8.8-1.11.2-2.11.9-2.68,1.93h0s-6.19,11.11-6.19,11.11h-10.98l-5.9-10.58,5.49-9.84h12.39c1.14,0,2.22-.54,2.94-1.42ZM140.4,108.26l-5.89,10.57h-11.79l-5.89-10.57,5.89-10.57h11.79l5.89,10.57ZM138.54,69.3c6.88,1.89,12.89,5.6,17.67,10.59l-.19.34h-11.79l-5.89-10.57.2-.36ZM123.7,68.29c3.33-.44,6.39-.45,9.82,0-.38,1.1-.3,2.34.28,3.37l6.19,11.11-5.49,9.85h-11.79l-5.49-9.85,6.19-11.11c.58-1.03.66-2.27.28-3.37ZM118.68,69.3l.2.36-5.89,10.57h-11.79l-.19-.34c4.73-4.94,10.71-8.68,17.67-10.59ZM97.65,83.88c.73.89,1.8,1.42,2.94,1.42h12.39l5.49,9.85-5.9,10.58h-10.98l-6.19-11.11h0c-.58-1.03-1.57-1.73-2.68-1.93,1.28-3.16,2.95-6.11,4.93-8.8ZM91.07,118.83c-1.84-7.01-1.8-14.31,0-21.15h.4l5.89,10.57-5.89,10.57h-.4ZM97.65,132.64c-1.98-2.69-3.64-5.64-4.93-8.8,1.11-.2,2.11-.9,2.68-1.93l6.19-11.11h10.98l5.89,10.57-5.49,9.84h-12.39c-1.14,0-2.22.54-2.94,1.42ZM118.68,147.22c-6.87-1.89-12.88-5.59-17.67-10.59l.19-.34h11.79l5.89,10.57-.2.36ZM133.52,148.23c-3.33.44-6.39.45-9.82,0,.38-1.1.3-2.34-.28-3.37l-6.19-11.11,5.49-9.85h11.79l5.49,9.85-6.19,11.11c-.58,1.03-.66,2.27-.28,3.37ZM138.54,147.22l-.2-.36,5.89-10.57h11.79l.19.34c-4.79,5-10.8,8.7-17.67,10.59ZM159.57,132.64c-.73-.89-1.8-1.42-2.94-1.42h-12.39l-5.49-9.85,5.89-10.57h10.98l6.19,11.11c.58,1.03,1.57,1.73,2.68,1.93-1.28,3.16-2.95,6.11-4.93,8.8ZM165.76,118.83l-5.89-10.57,5.89-10.57h.4c1.78,6.76,1.86,14.06,0,21.15h-.4Z"/>
  <path class="st0" d="M222.28,49.79h-25.27c-1.3,0-2.45.86-2.86,2.14l-3.05,9.49c-.65,2.02.81,4.11,2.86,4.11h25.27c1.3,0,2.45-.86,2.86-2.14l3.05-9.49c.65-2.02-.81-4.11-2.86-4.11ZM217.87,60.45h-21.31l1.8-5.59h21.31l-1.8,5.59Z"/>
</svg>