<?xml version="1.0" encoding="UTF-8"?>
<svg id="Layer_1" xmlns="http://www.w3.org/2000/svg" version="1.1" viewBox="0 0 257.22 237.66">
  <!-- Generator: Adobe Illustrator 30.0.0, SVG Export Plug-In . SVG Version: 2.1.1 Build 123)  -->
  <defs>
    <style>
      .st0 {
        fill: #5c5e61;
      }

      .st1 {
        fill: #f4b11b;
      }

      .st2 {
        fill: #010101;
      }

      .st3 {
        fill: #ffdb7a;
      }

      .st4 {
        fill: #fec726;
      }

      .st5 {
        fill: #e1c875;
      }

      .st6 {
        fill: #79c143;
      }

      .st7 {
        fill: #fccdb1;
      }

      .st8 {
        fill: #828183;
      }

      .st9 {
        fill: #f386a4;
      }

      .st10 {
        fill: #5ccbee;
      }

      .st11 {
        fill: #d7e7f2;
      }

      .st12 {
        fill: #f0597c;
      }
    </style>
  </defs>
  <path class="st7" d="M1268.26,1525c-.87,0-1.73.07-2.56.21.06.86.1,1.72.1,2.59v26.44c0,.87-.04,1.72-.1,2.57.84.13,1.69.22,2.56.22,8.85,0,16.02-7.17,16.02-16.02s-7.17-16.02-16.02-16.02Z"/>
  <path class="st7" d="M1189.08,1527.79c0-.87.04-1.73.1-2.59-.83-.13-1.69-.21-2.56-.21-8.85,0-16.02,7.17-16.02,16.02s7.17,16.02,16.02,16.02c.87,0,1.72-.09,2.56-.22-.06-.85-.1-1.71-.1-2.57v-26.44Z"/>
  <path class="st7" d="M1265.8,1519.46c-.02-1.09-.89-1.98-1.98-2.02-15.94-.47-24.33-6.78-27.56-9.95-.88-.86-2.3-.77-3.07.19-14.01,17.62-34.68,15.13-41.63,13.68-1.26-.26-2.47.69-2.48,1.98v30.88c0,21.1,17.26,38.36,38.36,38.36h0c21.1,0,38.36-17.26,38.36-38.36v-34.17c0-.2,0-.4,0-.6Z"/>
  <path class="st0" d="M1257.46,1478.77c-4.09,0-7.91,1.16-11.19,3.12-3.84-6.4-10.82-10.72-18.79-10.72h-11.25c-21.78,0-39.59,17.82-39.59,39.59v17.74c2.74-2.19,6.21-3.51,9.99-3.51.84,0,1.66.07,2.46.2v-1.84c0-1.29,1.21-2.24,2.48-1.98,6.95,1.45,27.62,3.94,41.63-13.68.77-.97,2.19-1.06,3.07-.19,3.23,3.16,11.62,9.48,27.56,9.95,1.09.03,1.96.93,1.98,2.02,0,.2,0,.4,0,.6v5.13c.8-.12,1.62-.2,2.46-.2,4.32,0,8.23,1.72,11.11,4.49v-28.81c0-12.05-9.86-21.91-21.91-21.91Z"/>
  <path class="st5" d="M1310.15,1632.89c-.37-6.61-4.99-12.22-11.42-13.84l-28.1-5.88c-13.43,16.1-40.62,18.19-42.57,18.32,0,0,0,0,0,0,0,0-.03,0-.06,0-.03,0-.06,0-.06,0,0,0,0,0,0,0-1.95-.13-29.14-2.22-42.57-18.32l-28.1,5.88c-6.42,1.62-11.05,7.22-11.42,13.84l-.66,18.26c4.88-2.57,10.44-4.02,16.34-4.02,19.43,0,35.18,15.75,35.18,35.18s-15.75,35.18-35.18,35.18h147.34c2.42,0,4.34-2.03,4.2-4.44l-2.92-80.16Z"/>
  <path class="st7" d="M1251.4,1605.54c-3.51-1.73-5.72-5.3-5.72-9.21v-8.39c-5.43,2.96-11.64,4.64-18.23,4.64h0c-6.14,0-11.95-1.47-17.11-4.07v7.81c0,3.91-2.22,7.48-5.72,9.21l-.69.34c2.72,5.63,8.6,11.9,19.89,18.33,1.64.93,2.88,2.37,3.59,4.05.23.55.98.55,1.21,0,.7-1.68,1.95-3.12,3.59-4.05,11.29-6.42,17.17-12.7,19.89-18.33l-.69-.34Z"/>
  <path class="st5" d="M1259.38,1575.4c-2.6,3.91-5.9,7.31-9.72,10.04,4.24,5.44,12.75,21.58-17.47,38.77-1.64.93-2.88,2.37-3.59,4.05-.23.55-.98.55-1.21,0-.7-1.68-1.95-3.12-3.59-4.05-29.32-16.68-22.19-32.37-17.86-38.26-3.97-2.71-7.41-6.14-10.14-10.1-10.49,5.99-24.59,18.08-11.75,35.65,12.88,17.63,41.87,19.86,43.88,19.99,0,0,0,0,0,0,0,0,.03,0,.06,0,.03,0,.06,0,.06,0,0,0,0,0,0,0,2.01-.13,31-2.36,43.88-19.99,13.17-18.02-2-30.28-12.56-36.1Z"/>
  <path class="st5" d="M1205.95,1585.95c-2.66,3.62-6.37,10.95-2.02,19.93l.68-.34c3.51-1.73,5.72-5.3,5.72-9.21v-7.81c-1.52-.76-2.99-1.62-4.38-2.57Z"/>
  <path class="st5" d="M1249.67,1585.44c-1.28.91-2.61,1.76-4,2.52,0,0,0,0,0,0v8.39c0,3.91,2.22,7.48,5.72,9.21l.67.33c4.55-9.43.26-17.03-2.4-20.44Z"/>
  <path class="st9" d="M1266.09,1658.34c-.17-.65-.75-1.11-1.42-1.11h-12.61c-.67,0-1.24.46-1.42,1.11-.32,1.19-.49,2.44-.49,3.73,0,5.48,3.05,10.24,7.54,12.7.42.23.93.23,1.35,0,4.49-2.46,7.54-7.22,7.54-12.7,0-1.29-.17-2.54-.49-3.73Z"/>
  <path class="st4" d="M1232.36,1580.98h-8.71c-2.94,0-5.32,2.38-5.32,5.32s2.38,5.32,5.32,5.32h8.71c2.94,0,5.32-2.38,5.32-5.32s-2.38-5.32-5.32-5.32Z"/>
  <path class="st4" d="M1233.82,1570.09c-1.79.77-3.76,1.19-5.82,1.19s-4.04-.43-5.82-1.19c-.1.31-.16.64-.16.99v10.15c.52-.17,1.06-.26,1.63-.26h8.71c.57,0,1.12.09,1.63.26v-10.15c0-.35-.07-.67-.16-.99Z"/>
  <circle class="st2" cx="1212.72" cy="1543.02" r="5.08"/>
  <path class="st2" d="M1242.64,1537.94c-2.8,0-5.08,2.27-5.08,5.08s2.27,5.08,5.08,5.08,5.08-2.27,5.08-5.08-2.27-5.08-5.08-5.08Z"/>
  <path class="st12" d="M1294.15,1577.05c-2.4-.45-4.29-2.3-4.75-4.65-.02-.12-.19-.12-.21,0-.46,2.35-2.35,4.21-4.75,4.65-.12.02-.12.18,0,.21,2.4.45,4.29,2.3,4.75,4.65.02.12.19.12.21,0,.46-2.35,2.35-4.21,4.75-4.65.12-.02.12-.18,0-.21Z"/>
  <path class="st4" d="M1161.7,1592.19c-4.5-.84-8.04-4.31-8.9-8.72-.04-.22-.35-.22-.39,0-.86,4.41-4.4,7.88-8.9,8.72-.23.04-.23.34,0,.39,4.5.84,8.04,4.31,8.9,8.72.04.22.35.22.39,0,.86-4.41,4.4-7.88,8.9-8.72.23-.04.23-.34,0-.39Z"/>
  <path class="st4" d="M1296.66,1497.25c-1.87,0-3.38,1.51-3.38,3.38s1.51,3.38,3.38,3.38,3.38-1.51,3.38-3.38-1.51-3.38-3.38-3.38Z"/>
  <path class="st10" d="M1135.66,1613.25c-1.87,0-3.38,1.51-3.38,3.38s1.51,3.38,3.38,3.38,3.38-1.51,3.38-3.38-1.51-3.38-3.38-3.38Z"/>
  <path class="st6" d="M1325.66,1638.25c-1.87,0-3.38,1.51-3.38,3.38s1.51,3.38,3.38,3.38,3.38-1.51,3.38-3.38-1.51-3.38-3.38-3.38Z"/>
  <circle class="st11" cx="1161.53" cy="1682.32" r="35.18"/>
  <path class="st8" d="M1195.02,1671.55h-2.41c-.43,0-.83.23-1.04.6l-5.52,9.57c-.21.37-.21.83,0,1.2l5.52,9.57c.21.37.61.6,1.04.6h2.41c1.09-3.39,1.69-7.01,1.69-10.77s-.59-7.37-1.69-10.77Z"/>
  <path class="st8" d="M1137,1681.71l-5.52-9.57c-.21-.37-.61-.6-1.04-.6h-2.41c-1.09,3.39-1.69,7.01-1.69,10.77s.59,7.37,1.69,10.77h2.41c.43,0,.83-.23,1.04-.6l5.52-9.57c.21-.37.21-.83,0-1.2Z"/>
  <path class="st8" d="M1168.95,1647.92l-1.2,2.08c-.21.37-.21.83,0,1.2l5.52,9.57c.21.37.61.6,1.04.6h11.04c.43,0,.83-.23,1.04-.6l1.2-2.08c-4.85-5.35-11.33-9.2-18.65-10.77Z"/>
  <path class="st8" d="M1155.31,1713.42l-5.52-9.56c-.21-.37-.61-.6-1.04-.6h-11.04c-.43,0-.83.23-1.04.6l-1.2,2.08c4.85,5.35,11.33,9.2,18.65,10.77l1.2-2.08c.21-.37.21-.83,0-1.2Z"/>
  <path class="st8" d="M1173.61,1681.71l-5.52-9.56c-.21-.37-.61-.6-1.04-.6h-11.04c-.43,0-.83.23-1.04.6l-5.52,9.56c-.21.37-.21.83,0,1.2l5.52,9.57c.21.37.61.6,1.04.6h11.04c.43,0,.83-.23,1.04-.6l5.52-9.57c.21-.37.21-.83,0-1.2Z"/>
  <path class="st8" d="M1155.31,1650.01l-1.2-2.08c-7.32,1.57-13.8,5.42-18.65,10.77l1.2,2.08c.22.37.61.6,1.04.6h11.04c.43,0,.83-.23,1.04-.6l5.52-9.57c.21-.37.21-.83,0-1.2Z"/>
  <path class="st8" d="M1186.4,1703.86c-.22-.37-.61-.6-1.04-.6h-11.04c-.43,0-.83.23-1.04.6l-5.52,9.56c-.21.37-.21.83,0,1.2l1.2,2.08c7.32-1.57,13.8-5.42,18.65-10.77l-1.2-2.08Z"/>
  <path class="st2" d="M1315.56,1712.97l-2.92-80.16s0-.03,0-.05c-.43-7.75-5.78-14.23-13.3-16.12-.03,0-.07-.02-.1-.02l-24.28-5.08c9.78-14.76,3.12-27.75-12.09-36.99,2.61-4.54,4.37-9.62,5.07-15.03,16.26.32,24.9-19.09,13.92-31.01v-27.82c0-17.87-18.68-29.71-34.79-22.06-4.59-6.19-11.9-9.95-19.61-9.95h-11.25c-23.21,0-42.09,18.88-42.09,42.09v16.62c-3.69,3.39-6.02,8.23-6.02,13.63,0,10.31,8.48,18.7,18.83,18.5.73,5.61,2.59,10.87,5.37,15.54-14.64,9.22-20.87,22-11.27,36.48l-24.28,5.08s-.07.01-.1.02c-7.53,1.89-12.87,8.37-13.31,16.17l-.61,16.83c-11.6,6.68-18.9,19.2-18.9,32.68,0,20.94,17.05,37.68,37.68,37.68h147.34c3.91,0,6.91-3.32,6.7-7.03ZM1245.19,1625.65v-.59c0-1.38-1.12-2.5-2.5-2.5s-2.5,1.12-2.5,2.5v1.94c-3.15.74-6.06,1.27-8.98,1.65.35-.63.83-1.24,1.48-1.76,1.49-1.18,34.75-18.02,20.42-40.89,2.63-2.13,4.99-4.57,7.03-7.28,28.16,16.95,10.63,39.13-14.94,46.93ZM1248.17,1589.42c.29-.17.57-.34.85-.52,2.47,4.07,3.25,8.62,1.82,13.28-4.23-3.67-2.12-8.77-2.67-12.77ZM1281.78,1541.01c0,7.44-6.04,13.5-13.48,13.52,0-.8,0-26.93,0-27.03,7.44.02,13.48,6.11,13.48,13.51ZM1173.11,1541.01c0-7.5,6.16-13.49,13.48-13.51,0,18,0,24.31-.01,26.25,0-.1,0,.03.02.77-7.43-.02-13.48-6.08-13.48-13.52ZM1186.67,1522.5c-2.52,0-5.04.49-7.54,1.59v-13.32c0-20.45,16.64-37.09,37.09-37.09h11.25c6.75,0,13.13,3.64,16.65,9.51.71,1.19,2.25,1.57,3.43.86,12.89-7.73,29.32,1.63,29.32,16.64v23.94c-2.73-1.44-5.74-2.12-8.57-2.12v-2.44c0-3.34-2.09-5.05-4.41-5.12-9.18-.27-19.47-2.95-25.88-9.23-1.96-1.92-5.1-1.68-6.78.42-12.91,16.24-31.69,14.35-39.16,12.79-2.56-.53-4.94,1.17-5.4,3.57ZM1191.58,1554.23c0-.1.03-29.6,0-29.7v-.61c16.09,3.15,32.67-1.26,43.27-14.31,7.42,7.02,18.24,9.95,28.45,10.31v4.61c-.03.1,0,29.59,0,29.7,0,15.23-9.66,28.41-23.27,33.55.09-.48.14-.97.14-1.48,0-2.8-1.48-5.25-3.69-6.63v-8.11c2.32-1.3,4.34-3.14,5.88-5.41.77-1.14.47-2.7-.67-3.47-1.14-.77-2.7-.47-3.47.67-4.89,7.24-15.59,7.2-20.46,0-.77-1.14-2.33-1.44-3.47-.67-1.14.77-1.45,2.33-.67,3.47,1.54,2.28,3.56,4.11,5.88,5.41v8.11c-2.21,1.38-3.69,3.83-3.69,6.63,0,.66.09,1.3.25,1.91-14.54-4.93-24.48-18.51-24.48-33.98ZM1232.36,1583.48c1.48,0,2.82,1.22,2.82,2.82s-1.27,2.82-2.82,2.82h-8.71c-1.56,0-2.82-1.27-2.82-2.82s1.34-2.82,2.82-2.82h8.71ZM1224.51,1578.48v-5.04c2.35.48,4.82.44,6.98,0v5.04h-6.98ZM1205.15,1602.2c-1.63-5.31-.16-9.79,1.54-12.79.38.22.76.45,1.14.66-.36,4.22,1.24,8.76-2.68,12.13ZM1195.12,1579.18c2.15,2.78,4.64,5.27,7.42,7.41-7.69,13.04-.36,25.52,11.88,34.53,7.23,5.33,8.89,4.87,10.37,7.53-3-.39-5.95-.93-8.98-1.65v-1.94c0-3.3-5-3.31-5,0v.59c-9.43-2.87-18.96-7.73-24.73-15.62-9.11-12.47-4.06-22.67,9.04-30.85ZM1152.61,1650.88l-4.62,8h-9.21c3.79-3.67,8.51-6.49,13.83-8ZM1157.88,1649.84c1.33-.15,2.58-.21,3.64-.21,0,0,0,0,0,0,1.23,0,2.45.07,3.65.21-.19.88-.06,1.82.41,2.62l5.15,8.92-4.43,7.67h-9.55l-4.43-7.67,5.15-8.92c.46-.8.59-1.74.41-2.62ZM1175.4,1684.82h8.86l5.15,8.92c.46.8,1.21,1.38,2.06,1.66-.97,2.22-2.11,4.23-3.65,6.31-.67-.6-1.54-.95-2.46-.95h-10.3l-4.43-7.67,4.77-8.27ZM1166.3,1690.58h-9.55l-4.77-8.27,4.77-8.27h9.55l4.77,8.27-4.77,8.27ZM1188.59,1682.32l4.62-8.01c.63,2.48,1,5.34,1,8.01s-.37,5.55-1,8.01l-4.62-8.01ZM1189.41,1670.89h0s-5.15,8.92-5.15,8.92h-8.86l-4.77-8.27,4.43-7.67h10.3c.92,0,1.79-.35,2.46-.95,1.56,2.11,2.69,4.13,3.65,6.31-.85.28-1.6.86-2.06,1.66ZM1175.06,1658.88l-4.62-8c5.37,1.52,10.07,4.35,13.83,8h-9.21ZM1135.23,1662.93c.67.6,1.54.95,2.46.95h10.3l4.43,7.67-4.77,8.27h-8.86l-5.15-8.92h0c-.46-.8-1.21-1.38-2.06-1.66.98-2.25,2.21-4.36,3.65-6.31ZM1129.84,1674.31l4.62,8.01-4.62,8.01c-1.33-5.26-1.3-10.85,0-16.02ZM1135.23,1701.7c-1.44-1.95-2.67-4.07-3.65-6.31.85-.28,1.6-.86,2.06-1.66l5.15-8.92h8.86l4.77,8.27-4.43,7.67h-10.3c-.92,0-1.79.35-2.46.95ZM1138.78,1705.75h9.21l4.62,8c-5.23-1.49-9.97-4.25-13.83-8ZM1165.17,1714.79c-1.2.13-2.41.21-3.65.21s-2.45-.07-3.65-.21c.19-.88.06-1.82-.41-2.62l-5.15-8.92,4.43-7.67h9.55l4.43,7.67-5.15,8.92c-.46.8-.59,1.74-.41,2.62ZM1175.06,1705.75h9.21c-3.84,3.72-8.57,6.51-13.83,8l4.62-8ZM1225.5,1715h-45.2c11.31-6.5,18.91-18.87,18.91-32.68,0-20.78-16.88-37.68-37.68-37.68h0c-4.72,0-9.47.93-13.69,2.57l.52-14.17c.31-5.54,4.12-10.17,9.49-11.54l26.61-5.57c6.81,7.53,16.68,12.22,26.36,14.98v28.13c0,1.38,1.12,2.5,2.5,2.5s2.5-1.12,2.5-2.5v-26.87c4.07.91,7.51,1.38,9.69,1.62v81.22ZM1228,1624.5c-.83-.99-1.83-1.83-2.95-2.47-6.48-3.68-13.79-8.83-17.74-15.18,6.03-4.14,5.33-9.54,5.52-14.48,9.59,3.68,20.49,3.69,30.34-.44.02,3.43-1.07,10.44,5.52,14.92-3.94,6.34-11.25,11.49-17.74,15.18-1.13.64-2.13,1.48-2.96,2.47ZM1308.86,1715h-29.14v-51.65c0-1.38-1.12-2.5-2.5-2.5s-2.5,1.12-2.5,2.5v51.65h-44.22v-81.22c2.19-.24,5.61-.71,9.69-1.61v26.86c0,1.38,1.12,2.5,2.5,2.5s2.5-1.12,2.5-2.5v-28.13c9.76-2.78,19.61-7.51,26.36-14.98l26.61,5.57c5.36,1.37,9.17,5.99,9.49,11.52l2.92,80.19c.05.98-.73,1.8-1.71,1.8ZM1186.57,1553.75c0,.22,0,1.61,0,0h0Z"/>
  <path class="st2" d="M1268.51,1657.7c-.47-1.74-2.04-2.96-3.83-2.96h-12.61c-1.79,0-3.37,1.22-3.83,2.96-2.01,7.48,1.33,15.47,8.26,19.27,1.16.63,2.59.64,3.75,0,6.92-3.79,10.27-11.78,8.26-19.27ZM1258.37,1672.27c-4.24-2.61-6.47-7.59-5.48-12.54h10.97c.98,4.91-1.22,9.91-5.48,12.54Z"/>
  <rect class="st8" x="80.76" y="224.2" width="91.91" height="11.14" rx="2.58" ry="2.58"/>
  <path class="st8" d="M150.01,187.99h-46.59c-4.04,0-7.34,3.3-7.34,7.34v1.94h61.27v-1.94c0-4.04-3.3-7.34-7.34-7.34Z"/>
  <path class="st0" d="M158.59,197.28h-63.75c-4.93,0-8.97,4.04-8.97,8.97v17.95h81.7v-17.95c0-4.93-4.04-8.97-8.97-8.97Z"/>
  <rect class="st3" x="89.12" y="91.44" width="75.2" height="11.14" rx="2.58" ry="2.58"/>
  <path class="st3" d="M139.95,156.08c.06-1.59-1.22-2.91-2.81-2.91h-20.84c-1.59,0-2.87,1.32-2.81,2.91.11,3.13.04,6.26-.2,9.38-.13,1.64,1.16,3.03,2.8,3.03h21.27c1.64,0,2.93-1.4,2.8-3.03-.25-3.12-.32-6.26-.2-9.38Z"/>
  <path class="st3" d="M144.5,121.61h-35.57c-2.05,0-3.39,2.11-2.56,3.99,1.36,3.06,2.53,6.17,3.51,9.32.37,1.19,1.45,2.01,2.7,2.01h28.29c1.25,0,2.33-.82,2.7-2.01.97-3.15,2.14-6.26,3.51-9.32.83-1.87-.51-3.99-2.56-3.99Z"/>
  <path class="st1" d="M140.86,136.93h-28.29s-.08,0-.12-.01c1.35,5.45,2.19,11.01,2.53,16.6.39-.21.84-.34,1.32-.34h20.84c.48,0,.92.13,1.32.34.34-5.59,1.18-11.14,2.53-16.6-.04,0-.08.01-.12.01Z"/>
  <path class="st1" d="M95.81,102.58l1.42,1.93c4.08,5.54,7.47,11.44,10.16,17.58.44-.29.95-.47,1.54-.47h35.57c.59,0,1.1.19,1.54.47,2.69-6.14,6.08-12.04,10.16-17.58l1.42-1.93h-61.81Z"/>
  <path class="st1" d="M138.74,168.12c-.41.23-.88.38-1.39.38h-21.27c-.51,0-.98-.15-1.39-.38-.66,6.71-2.06,13.38-4.21,19.88h32.46c-2.15-6.49-3.55-13.16-4.21-19.88Z"/>
  <path class="st5" d="M126.71,10.81c-24.53,0-44.42,19.89-44.42,44.42,0,14.94,7.39,28.15,18.7,36.21h51.45c11.31-8.05,18.7-21.26,18.7-36.21,0-24.53-19.89-44.42-44.42-44.42Z"/>
  <path class="st4" d="M169.01,41.64h-3.04c-.54,0-1.04.29-1.32.76l-6.97,12.08c-.27.47-.27,1.05,0,1.52l6.97,12.08c.27.47.77.76,1.32.76h3.04c1.38-4.29,2.13-8.85,2.13-13.6s-.75-9.31-2.13-13.6Z"/>
  <path class="st4" d="M95.75,54.48l-6.97-12.08c-.27-.47-.77-.76-1.32-.76h-3.04c-1.38,4.29-2.13,8.85-2.13,13.6s.75,9.31,2.13,13.6h3.04c.54,0,1.04-.29,1.32-.76l6.97-12.08c.27-.47.27-1.05,0-1.52Z"/>
  <path class="st4" d="M136.09,11.81l-1.52,2.63c-.27.47-.27,1.05,0,1.52l6.97,12.08c.27.47.77.76,1.32.76h13.95c.54,0,1.04-.29,1.32-.76l1.52-2.63c-6.13-6.76-14.3-11.61-23.55-13.6Z"/>
  <path class="st4" d="M111.89,82.43c-.27-.47-.77-.76-1.32-.76h-13.95c-.54,0-1.04.29-1.32.76l-1.52,2.63c2.16,2.38,4.57,4.51,7.19,6.38h16.1l-5.2-9.01Z"/>
  <path class="st4" d="M141.94,54.42l-6.9-11.96c-.29-.51-.83-.82-1.42-.82h-13.81c-.58,0-1.12.31-1.42.82l-6.9,11.96c-.29.51-.29,1.13,0,1.64l6.9,11.96c.29.51.83.82,1.42.82h13.81c.58,0,1.12-.31,1.42-.82l6.9-11.96c.29-.51.29-1.13,0-1.64Z"/>
  <path class="st4" d="M118.86,14.44l-1.52-2.63c-9.24,1.99-17.42,6.84-23.55,13.6l1.52,2.63c.27.47.77.76,1.32.76h13.95c.54,0,1.04-.29,1.32-.76l6.97-12.08c.27-.47.27-1.05,0-1.52Z"/>
  <path class="st4" d="M158.12,82.43c-.27-.47-.77-.76-1.32-.76h-13.95c-.54,0-1.04.29-1.32.76l-5.2,9.01h16.1c2.62-1.86,5.04-4,7.19-6.38l-1.52-2.63Z"/>
  <path class="st4" d="M182.14,136.65c-4.18-.78-7.47-4-8.26-8.09-.04-.21-.33-.21-.37,0-.79,4.09-4.08,7.31-8.26,8.09-.21.04-.21.32,0,.36,4.18.78,7.47,4,8.26,8.09.04.21.33.21.37,0,.79-4.09,4.08-7.31,8.26-8.09.21-.04.21-.32,0-.36Z"/>
  <path class="st6" d="M86.66,178.34c-2.87-.53-5.13-2.75-5.67-5.56-.03-.14-.22-.14-.25,0-.54,2.81-2.8,5.02-5.67,5.56-.14.03-.14.22,0,.25,2.87.53,5.13,2.75,5.67,5.56.03.14.22.14.25,0,.54-2.81,2.8-5.02,5.67-5.56.14-.03.14-.22,0-.25Z"/>
  <path class="st10" d="M90.45,5.09h-2.16v-2.16C88.29,1.31,86.98,0,85.36,0s-2.93,1.31-2.93,2.93v2.16h-2.16c-1.62,0-2.93,1.31-2.93,2.93s1.31,2.93,2.93,2.93h2.16v2.16c0,1.62,1.31,2.93,2.93,2.93s2.93-1.31,2.93-2.93v-2.16h2.16c1.62,0,2.93-1.31,2.93-2.93s-1.31-2.93-2.93-2.93Z"/>
  <circle class="st4" cx="66.06" cy="33.07" r="3.14"/>
  <circle class="st12" cx="161.68" cy="153.76" r="3.14"/>
  <circle class="st10" cx="182.1" cy="197.39" r="3.14"/>
  <path class="st2" d="M170.09,221.88h-.21v-15.63c0-5.87-4.5-10.7-10.23-11.24-.17-5.18-4.43-9.34-9.65-9.34h-5.36c-1.67-5.38-2.83-10.94-3.47-16.58.92-1.04,1.39-2.42,1.28-3.81-.24-3.03-.31-6.09-.2-9.11.05-1.38-.45-2.69-1.4-3.7.34-4.61,1.03-9.2,2.07-13.67,1.33-.59,2.38-1.72,2.83-3.19.94-3.05,2.09-6.1,3.41-9.06.72-1.61.57-3.45-.38-4.92,4.49-9.76,9.55-16.07,9.99-16.72h2.95c2.7,0,4.9-2.2,4.9-4.9v-5.99c0-2.7-2.2-4.9-4.9-4.9h-2.85c30.4-28.81,10.1-80.63-32.17-80.63s-62.6,51.8-32.17,80.63h-2.85c-2.7,0-4.9,2.2-4.9,4.9v5.99c0,2.7,2.2,4.9,4.9,4.9h2.95c.64.96,5.25,6.41,9.99,16.72-.95,1.47-1.1,3.31-.38,4.92,1.32,2.96,2.46,6.01,3.41,9.06.46,1.47,1.51,2.6,2.83,3.19,1.04,4.47,1.73,9.06,2.07,13.67-.95,1.01-1.45,2.31-1.4,3.7.11,3.02.04,6.08-.2,9.11-.11,1.39.36,2.77,1.28,3.81-.63,5.64-1.8,11.2-3.46,16.58h-5.36c-5.22,0-9.47,4.16-9.65,9.34-5.73.54-10.23,5.37-10.23,11.24v15.63h-.21c-2.7,0-4.9,2.2-4.9,4.9v5.99c0,2.7,2.2,4.9,4.9,4.9h86.76c2.7,0,4.9-2.2,4.9-4.9v-5.99c0-2.7-2.2-4.9-4.9-4.9ZM159.96,81.02c-.71-1.03-1.89-1.67-3.16-1.67h-13.48l-6.07-10.52,6.51-11.27h12.15l6.74,11.68c.63,1.1,1.77,1.8,3.02,1.9-1.45,3.53-3.36,6.86-5.71,9.89ZM156.75,84.7c-.23.23-.45.46-.68.68-1.33,1.29-2.82,2.59-4.38,3.74h-11.33l2.96-5.13h13.02l.41.71ZM133.22,71.15l6.07,10.52-4.3,7.45h-16.57l-4.3-7.45,6.07-10.52h13.02ZM113.7,55.24l6.51-11.27h13.02l6.51,11.27-6.51,11.27h-13.02l-6.51-11.27ZM167.27,43.96c2.03,7.29,2.06,15.1-.02,22.55h-.82l-6.51-11.27,6.51-11.27h.84ZM159.96,29.45c2.33,3,4.27,6.32,5.73,9.89-1.26.09-2.41.8-3.05,1.9l-6.74,11.68h-12.15l-6.51-11.28,6.07-10.52h13.48c1.27,0,2.45-.64,3.16-1.67ZM137.23,14.47c7.14,1.83,13.96,5.65,19.51,11.3l-.41.71h-13.02l-6.51-11.28.43-.74ZM121,13.53c1.87-.26,3.78-.4,5.72-.4s3.85.14,5.72.4c-.55,1.14-.51,2.49.12,3.59l6.74,11.68-6.07,10.52h-13.02l-6.07-10.52,6.74-11.68c.64-1.1.67-2.45.12-3.59ZM116.2,14.47l.43.74-6.51,11.27h-13.02l-.41-.71c5.61-5.72,12.46-9.49,19.51-11.3ZM93.47,29.45c.71,1.03,1.89,1.67,3.16,1.67h13.48l6.07,10.52-6.51,11.28h-12.15l-6.74-11.68c-.64-1.1-1.79-1.81-3.05-1.9,1.46-3.57,3.4-6.89,5.73-9.89ZM86.18,66.51c-2.07-7.41-2.06-15.31-.02-22.55h.84l6.51,11.27-6.51,11.27h-.82ZM93.47,81.02c-2.35-3.03-4.26-6.35-5.71-9.89,1.25-.1,2.39-.8,3.02-1.9l6.74-11.68h12.15l6.51,11.28-6.07,10.52h-13.48c-1.27,0-2.44.64-3.16,1.67ZM113.07,89.12h-11.33c-1.63-1.2-3.46-2.79-5.06-4.42l.41-.71h13.02l2.96,5.13ZM91.69,100.26c-.14,0-.26-.11-.26-.26v-5.99c0-.14.11-.26.26-.26h70.04c.14,0,.25.11.25.26v5.99c0,.14-.11.26-.25.26h-70.04ZM100.37,104.9h52.69c-3.18,4.53-5.96,9.36-8.31,14.4-.21-.01-35.9,0-36.07,0-2.34-5.04-5.13-9.87-8.31-14.4ZM112.54,134.61c-.21-.02-.38-.16-.45-.37-1-3.23-2.21-6.45-3.6-9.58-.18-.4.15-.72.44-.72h35.57c.29,0,.62.32.44.72-1.39,3.13-2.6,6.35-3.6,9.58-.07.21-.24.36-.44.37-.09,0-27.89.01-28.35,0ZM115.8,156c-.01-.33.29-.5.49-.5h20.84c.21,0,.5.18.49.5h0c-.12,3.2-.05,6.45.21,9.65.03.34-.28.53-.49.53h-21.27c-.22,0-.51-.2-.49-.53.26-3.21.33-6.45.21-9.65ZM136.32,150.86h-19.21c-.34-3.91-.92-7.79-1.74-11.6h22.69c-.82,3.82-1.4,7.7-1.74,11.6ZM116.73,170.82h19.98c.63,5.04,1.67,10.01,3.09,14.85h-26.15c1.42-4.84,2.46-9.82,3.09-14.85ZM103.42,190.31h46.59c2.64,0,4.81,2.05,5.01,4.64h-56.6c.19-2.59,2.37-4.64,5.01-4.64ZM88.19,206.25c0-3.67,2.98-6.65,6.65-6.65h63.75c3.67,0,6.65,2.98,6.65,6.65v15.63h-77.05v-15.63ZM170.35,232.76c0,.14-.11.26-.25.26h-86.76c-.14,0-.26-.11-.26-.26v-5.99c0-.14.12-.26.26-.26h86.76c.14,0,.25.11.25.26v5.99Z"/>
</svg>